<?xml version="1.0" encoding="utf-8"?>
<!-- Generator: Adobe Illustrator 23.0.1, SVG Export Plug-In . SVG Version: 6.00 Build 0)  -->
<svg version="1.1" xmlns="http://www.w3.org/2000/svg" xmlns:xlink="http://www.w3.org/1999/xlink" x="0px" y="0px"
	 viewBox="0 0 100 100" style="enable-background:new 0 0 100 100;" xml:space="preserve">
<style type="text/css">
	.st0{display:none;}
	.st1{display:inline;}
	.st2{fill:#FFFFFF;}
	.st3{fill:#41BDE4;}
</style>
<g id="Calque_1" class="st0">
	<g class="st1">
		<g>
			<path class="st2" d="M76.33,56.63H13.51c-3.61,0-6.54-2.93-6.54-6.54c0-3.61,2.93-6.54,6.54-6.54h62.82
				c3.61,0,6.54,2.93,6.54,6.54C82.88,53.7,79.95,56.63,76.33,56.63z"/>
		</g>
		<g>
			<path class="st2" d="M85.46,55.28c-1.67,0-3.35-0.64-4.63-1.92L61.89,34.42c-2.56-2.55-2.56-6.7,0-9.25
				c2.55-2.56,6.7-2.56,9.25,0l18.94,18.94c2.56,2.55,2.56,6.7,0,9.25C88.81,54.64,87.13,55.28,85.46,55.28z"/>
		</g>
		<g>
			<path class="st2" d="M66.52,76.22c-1.67,0-3.35-0.64-4.63-1.92c-2.56-2.55-2.56-6.7,0-9.25l18.94-18.94
				c2.55-2.56,6.7-2.56,9.25,0c2.56,2.55,2.56,6.7,0,9.25L71.14,74.3C69.87,75.58,68.19,76.22,66.52,76.22z"/>
		</g>
	</g>
</g>
<g id="Calque_2">
	<g>
		<g>
			<path class="st3" d="M22.64,42.85h62.82c3.61,0,6.54,2.93,6.54,6.54c0,3.61-2.93,6.54-6.54,6.54H22.64
				c-3.61,0-6.54-2.93-6.54-6.54C16.09,45.77,19.02,42.85,22.64,42.85z"/>
		</g>
		<g>
			<path class="st3" d="M13.51,44.19c1.67,0,3.35,0.64,4.63,1.92l18.94,18.94c2.56,2.55,2.56,6.7,0,9.25c-2.55,2.56-6.7,2.56-9.25,0
				L8.89,55.36c-2.56-2.55-2.56-6.7,0-9.25C10.16,44.83,11.84,44.19,13.51,44.19z"/>
		</g>
		<g>
			<path class="st3" d="M32.45,23.25c1.67,0,3.35,0.64,4.63,1.92c2.56,2.55,2.56,6.7,0,9.25L18.14,53.36c-2.55,2.56-6.7,2.56-9.25,0
				c-2.56-2.55-2.56-6.7,0-9.25l18.94-18.94C29.1,23.89,30.78,23.25,32.45,23.25z"/>
		</g>
	</g>
</g>
</svg>
