<?xml version="1.0" encoding="utf-8"?>
<!-- Generator: Adobe Illustrator 23.0.1, SVG Export Plug-In . SVG Version: 6.00 Build 0)  -->
<svg version="1.1" xmlns="http://www.w3.org/2000/svg" xmlns:xlink="http://www.w3.org/1999/xlink" x="0px" y="0px"
	 viewBox="0 0 200 200" style="enable-background:new 0 0 200 200;" xml:space="preserve">
<style type="text/css">
	.st0{display:none;}
	.st1{display:inline;fill:#E52929;}
	.st2{display:inline;}
	.st3{fill:#FFCD32;}
	.st4{fill:#FFFFFF;stroke:#FFFFFF;stroke-miterlimit:10;}
	.st5{display:inline;opacity:0.7;fill:#FFCD32;}
	.st6{display:inline;fill:#41BDE4;}
	.st7{display:inline;fill:#FFFFFF;}
	.st8{display:inline;fill:#0C9439;}
	.st9{fill:#FFFFFF;}
	.st10{fill:#FFE398;}
	.st11{display:inline;fill:#E42929;}
	.st12{fill:#FFCC32;}
	.st13{display:inline;fill:#FFCC32;}
	.st14{display:inline;opacity:0.85;fill:#E42929;}
	.st15{fill:#E52929;}
	.st16{opacity:0.7;fill:#FFCD32;}
</style>
<g id="Calque_1" class="st0">
	<path class="st1" d="M112.25,80.15c0,0,67.02-45.67,75.19-19.67S112.25,80.15,112.25,80.15z"/>
	<path class="st1" d="M89.21,79.99c0,0-67.02-45.67-75.19-19.67S89.21,79.99,89.21,79.99z"/>
	<path class="st1" d="M113.03,80.81c0,0,39.61-70.77,58.52-51.14S113.03,80.81,113.03,80.81z"/>
	<path class="st1" d="M88.35,79.89c0,0-39.61-70.77-58.52-51.14S88.35,79.89,88.35,79.89z"/>
	<path class="st1" d="M101.06,177.86c0,0-51.14-2.16-75.27-13.68c11.34-6.3,19.27-80.85,21.79-88.05l107.09,0.07
		c2.52,7.2,10.44,81.75,21.79,88.05C161.02,173.36,117.44,177.86,101.06,177.86z"/>
	<g class="st2">
		<path class="st3" d="M154.06,128.35c2.85-7.15,4.66-14.97,5.18-23.21c-13.24,6.95-34.34,11.44-58.12,11.44
			c-23.52,0-44.43-4.4-57.69-11.22c0.54,8.2,2.36,15.99,5.21,23.11c13.22,3.89,31.86,6.31,52.51,6.31
			C122.02,134.78,140.83,132.31,154.06,128.35z"/>
		<path class="st3" d="M58.02,144.97c10.63,13.78,26.09,22.45,43.31,22.45c17.25,0,32.73-8.71,43.37-22.53
			c-12.14,4.53-27.24,7.71-43.61,7.71C84.96,152.59,70.07,149.45,58.02,144.97z"/>
		<path class="st3" d="M157.08,81.29c-7.04-27.95-29.34-48.38-55.75-48.38c-26.45,0-48.77,20.48-55.78,48.5
			c13.31,6.24,33.29,10.21,55.64,10.21C123.67,91.62,143.76,87.6,157.08,81.29z"/>
		<path d="M43.43,105.36c-0.11-1.71-0.17-3.45-0.17-5.2c0-6.51,0.8-12.8,2.29-18.75"/>
		<path d="M157.08,81.29c1.51,5.99,2.32,12.32,2.32,18.88c0,1.67-0.05,3.33-0.16,4.97"/>
		<path d="M159.24,105.14c0.1-1.64,0.16-3.3,0.16-4.97c0-6.55-0.81-12.89-2.32-18.88c-13.31,6.31-33.41,10.33-55.89,10.33
			c-22.34,0-42.32-3.97-55.64-10.21c-1.49,5.95-2.29,12.25-2.29,18.75c0,1.75,0.06,3.48,0.17,5.2
			c13.26,6.82,34.17,11.22,57.69,11.22C124.9,116.58,146,112.09,159.24,105.14z"/>
		<path d="M154.06,128.35c-2.42,6.05-5.58,11.62-9.37,16.54"/>
		<path d="M58.02,144.97c-3.79-4.91-6.96-10.46-9.38-16.5"/>
		<path d="M101.15,134.78c-20.66,0-39.3-2.42-52.51-6.31c2.42,6.04,5.6,11.59,9.38,16.5c12.05,4.49,26.94,7.63,43.07,7.63
			c16.37,0,31.47-3.18,43.61-7.71c3.78-4.92,6.95-10.48,9.37-16.54C140.83,132.31,122.02,134.78,101.15,134.78z"/>
	</g>
	<ellipse class="st2" cx="90.07" cy="59.44" rx="2.52" ry="5.28"/>
	<ellipse class="st2" cx="111.03" cy="59.74" rx="2.52" ry="5.28"/>
	<g class="st2">
		<path d="M100.61,80.25c-4.9,0-8.89-3.99-8.89-8.89c0-0.58,0.47-1.06,1.06-1.06c0.58,0,1.06,0.47,1.06,1.06
			c0,3.74,3.04,6.77,6.78,6.77c3.74,0,6.78-3.04,6.78-6.77c0-0.58,0.47-1.06,1.06-1.06c0.58,0,1.06,0.47,1.06,1.06
			C109.5,76.26,105.51,80.25,100.61,80.25z"/>
	</g>
	<g class="st2">
		<path d="M110.42,41.42c-0.06,0-0.12-0.01-0.19-0.02c-0.58-0.1-0.96-0.65-0.86-1.23c1.56-8.75,6.45-18.51,15.49-19.66
			c0.57-0.07,1.11,0.34,1.18,0.92c0.07,0.58-0.34,1.11-0.92,1.18c-7.9,1-12.25,9.92-13.68,17.93
			C111.37,41.06,110.92,41.42,110.42,41.42z"/>
	</g>
	<g class="st2">
		<path d="M91.63,41.49c-0.5,0-0.95-0.36-1.04-0.87c-1.43-8.01-5.77-16.93-13.68-17.93c-0.58-0.07-0.99-0.6-0.92-1.18
			c0.07-0.58,0.61-0.98,1.18-0.92c9.04,1.15,13.93,10.91,15.49,19.66c0.1,0.58-0.28,1.12-0.86,1.23
			C91.76,41.48,91.7,41.49,91.63,41.49z"/>
	</g>
	<g class="st2">
		<path class="st4" d="M94.78,97.22c0.19-0.97,0.54-1.74,1.05-2.31c0.51-0.57,1.1-0.95,1.76-1.16c0.66-0.21,1.37-0.26,2.13-0.16
			c0.76,0.1,1.47,0.34,2.15,0.71c0.68,0.37,1.27,0.84,1.78,1.42c0.51,0.58,0.87,1.24,1.08,1.98c0.21,0.74,0.21,1.54,0,2.4
			c-0.21,0.86-0.68,1.75-1.41,2.65c0.57,0.21,1.11,0.41,1.6,0.62c0.49,0.21,0.91,0.46,1.26,0.77c0.34,0.3,0.61,0.67,0.8,1.1
			c0.19,0.43,0.29,0.96,0.29,1.6c0,0.53-0.1,1.08-0.29,1.67c-0.19,0.59-0.46,1.17-0.8,1.75c-0.34,0.57-0.74,1.12-1.2,1.64
			c-0.45,0.52-0.94,0.98-1.47,1.37c-0.53,0.4-1.06,0.71-1.61,0.94c-0.55,0.23-1.09,0.35-1.61,0.35c-0.35,0-0.69-0.22-1.03-0.67
			c-0.33-0.45-0.66-1.04-0.98-1.77c-0.32-0.73-0.63-1.58-0.93-2.53c-0.3-0.96-0.58-1.95-0.84-2.98c-0.26-1.03-0.49-2.05-0.69-3.06
			c-0.21-1.01-0.39-1.95-0.54-2.81c-0.15-0.86-0.27-1.61-0.36-2.24C94.82,97.89,94.78,97.46,94.78,97.22z M97.5,99.44
			c0,0.29-0.01,0.64-0.02,1.06c-0.02,0.42-0.02,0.86,0,1.3c0.02,0.45,0.06,0.89,0.14,1.34c0.08,0.45,0.22,0.83,0.43,1.15
			c0.78-0.14,1.46-0.41,2.04-0.81c0.58-0.4,1.05-0.86,1.41-1.4c0.36-0.53,0.62-1.1,0.78-1.71c0.16-0.61,0.22-1.2,0.18-1.77
			c-0.04-0.57-0.18-1.1-0.41-1.58c-0.23-0.48-0.55-0.85-0.97-1.11c-0.41-0.26-0.92-0.39-1.51-0.39c-0.59,0-1.27,0.19-2.03,0.57
			c0,0.13,0,0.35-0.01,0.67c-0.01,0.32-0.02,0.65-0.02,1c-0.01,0.35-0.01,0.69-0.01,1C97.5,99.09,97.5,99.31,97.5,99.44z
			 M99.03,107.57c0,0.27,0.06,0.63,0.19,1.08c0.13,0.45,0.29,0.89,0.49,1.34c0.2,0.45,0.42,0.86,0.66,1.23
			c0.24,0.37,0.49,0.63,0.77,0.75c0.22,0.13,0.49,0.12,0.79-0.04c0.3-0.15,0.61-0.39,0.92-0.72c0.31-0.33,0.61-0.7,0.9-1.12
			c0.29-0.42,0.55-0.84,0.78-1.26c0.23-0.41,0.41-0.8,0.55-1.16c0.14-0.36,0.2-0.63,0.2-0.82c0-0.41-0.06-0.75-0.17-1.02
			c-0.11-0.26-0.27-0.47-0.49-0.63c-0.22-0.16-0.47-0.27-0.77-0.33c-0.3-0.06-0.62-0.1-0.97-0.1c-0.4,0-0.82,0.06-1.27,0.19
			c-0.45,0.13-0.86,0.31-1.23,0.55c-0.37,0.24-0.69,0.53-0.96,0.88C99.16,106.75,99.03,107.14,99.03,107.57z"/>
	</g>
	<circle class="st5" cx="38.12" cy="104.31" r="22.96"/>
	<circle class="st5" cx="148.41" cy="128.53" r="18.91"/>
	<circle class="st5" cx="61.98" cy="158.78" r="18.91"/>
</g>
<g id="Calque_2" class="st0">
	<circle class="st6" cx="105.02" cy="99.5" r="92.98"/>
	<circle class="st7" cx="76.16" cy="19.47" r="11.27"/>
	<circle class="st7" cx="54.94" cy="20" r="11.27"/>
	<circle class="st7" cx="68.2" cy="34.32" r="11.27"/>
	<circle class="st7" cx="89.06" cy="34.14" r="11.27"/>
	<circle class="st7" cx="95.6" cy="24.95" r="11.27"/>
	<circle class="st7" cx="13.23" cy="68.08" r="11.27"/>
	<circle class="st7" cx="29.84" cy="59.77" r="11.27"/>
	<circle class="st7" cx="28.61" cy="77.8" r="11.27"/>
	<circle class="st7" cx="56.18" cy="135.78" r="11.27"/>
	<circle class="st7" cx="42.39" cy="128.36" r="11.27"/>
	<circle class="st7" cx="39.56" cy="146.03" r="11.27"/>
	<circle class="st7" cx="26.48" cy="134.72" r="11.27"/>
	<circle class="st7" cx="46.11" cy="68.61" r="11.27"/>
	<path class="st8" d="M145.85,115.06c-2.47,7.78-8.13,58.69-8.48,66.46c-4.42,0.35-4.07,0.18-6.19,0.18
		c2.3-5.83,10.78-53.38,7.6-57.8C135.6,119.48,145.85,115.06,145.85,115.06z"/>
	<g class="st2">
		<path class="st9" d="M163.24,101.98c-2.37-0.17-6.64-5.86-6.46-7.27c0.18-1.41,9.86-17.29,15.84-12.11
			C178.59,87.77,166.78,102.23,163.24,101.98z"/>
		<path class="st10" d="M163.31,103.13c-0.05,0-0.11,0-0.16-0.01l0,0c-1.9-0.13-3.98-2.35-5.05-3.65c-0.63-0.77-2.67-3.39-2.48-4.92
			c0.18-1.44,6.09-11.44,11.99-13.7c2.16-0.83,4.15-0.53,5.75,0.86c2.35,2.04,2.69,5.48,0.95,9.68
			C172.16,96.62,166.5,103.13,163.31,103.13z M163.32,100.82c0.01,0,0.03,0,0.04,0c1.46,0,6.58-4.88,8.83-10.32
			c0.94-2.27,1.64-5.33-0.33-7.04c-0.87-0.76-1.84-0.94-3.05-0.57c-4.85,1.47-10.37,10.51-10.88,11.95
			C158.14,96.16,161.77,100.71,163.32,100.82L163.32,100.82z M157.93,94.78L157.93,94.78z"/>
	</g>
	<g class="st2">
		
			<ellipse transform="matrix(0.2137 -0.9769 0.9769 0.2137 24.2873 216.0958)" class="st9" cx="146.38" cy="92.96" rx="9.9" ry="5.13"/>
		<path class="st10" d="M144.84,103.85c-0.27,0-0.54-0.03-0.82-0.09c-3.44-0.75-5.1-6.09-3.77-12.14c1.33-6.06,5.06-10.21,8.5-9.46
			c3.44,0.75,5.1,6.09,3.77,12.14l0,0C151.3,99.88,148.03,103.85,144.84,103.85z M147.92,84.38c-1.83,0-4.38,2.99-5.41,7.73
			c-1.1,5.03,0.18,8.99,2.01,9.39c1.83,0.4,4.65-2.66,5.75-7.69l0,0c1.1-5.03-0.18-8.99-2.01-9.39
			C148.14,84.4,148.03,84.38,147.92,84.38z"/>
	</g>
	<g class="st2">
		
			<ellipse transform="matrix(0.3486 -0.9373 0.9373 0.3486 17.675 205.9317)" class="st9" cx="156.99" cy="90.25" rx="9.9" ry="5.13"/>
		<path class="st10" d="M154.52,100.86c-0.48,0-0.94-0.08-1.39-0.25c-3.3-1.23-4.2-6.74-2.03-12.55c2.16-5.81,6.44-9.4,9.74-8.17
			c3.3,1.23,4.2,6.74,2.03,12.55c-0.98,2.65-2.46,4.95-4.15,6.49C157.32,100.2,155.87,100.86,154.52,100.86z M159.46,81.96
			c-1.82,0-4.58,2.57-6.19,6.91c-1.8,4.83-1.09,8.92,0.67,9.58c0.85,0.31,2.02-0.13,3.23-1.23c1.42-1.29,2.68-3.28,3.54-5.58
			c1.8-4.83,1.09-8.92-0.67-9.58C159.86,81.99,159.67,81.96,159.46,81.96z"/>
	</g>
	<g class="st2">
		
			<ellipse transform="matrix(0.9847 -0.1743 0.1743 0.9847 -14.8282 25.3199)" class="st9" cx="136.72" cy="97.07" rx="5.13" ry="9.9"/>
		<path class="st10" d="M137.96,108.02c-1.57,0-3.15-0.94-4.51-2.72c-1.39-1.82-2.43-4.35-2.92-7.13c-0.49-2.78-0.39-5.52,0.29-7.7
			c0.76-2.44,2.17-3.96,3.97-4.28c3.47-0.61,7.03,3.69,8.11,9.79c0.49,2.78,0.39,5.52-0.29,7.7c-0.76,2.44-2.17,3.96-3.97,4.28
			C138.42,108,138.19,108.02,137.96,108.02z M135.46,88.44c-0.09,0-0.18,0.01-0.27,0.02c-0.89,0.16-1.68,1.14-2.16,2.69
			c-0.57,1.84-0.65,4.18-0.22,6.61c0.43,2.42,1.31,4.6,2.48,6.13c0.99,1.29,2.07,1.95,2.95,1.79c0.89-0.16,1.68-1.14,2.16-2.69
			c0.57-1.84,0.65-4.18,0.22-6.61l0,0C139.77,91.54,137.3,88.44,135.46,88.44z"/>
	</g>
	<g class="st2">
		
			<ellipse transform="matrix(0.9216 -0.3881 0.3881 0.9216 -29.8559 57.965)" class="st9" cx="128.59" cy="102.9" rx="5.13" ry="9.9"/>
		<path class="st10" d="M131.33,113.4c-1.3,0-2.71-0.6-4.1-1.75c-1.76-1.46-3.33-3.7-4.43-6.31c-2.41-5.71-1.75-11.26,1.5-12.63
			c1.68-0.71,3.69-0.19,5.65,1.44c1.76,1.46,3.33,3.7,4.43,6.31l0,0c1.1,2.6,1.6,5.29,1.42,7.57c-0.2,2.55-1.24,4.35-2.92,5.05
			C132.39,113.3,131.87,113.4,131.33,113.4z M125.85,94.72c-0.24,0-0.45,0.04-0.65,0.12c-1.73,0.73-2.27,4.85-0.27,9.6
			c0.96,2.27,2.3,4.2,3.77,5.43c1.25,1.04,2.45,1.44,3.28,1.09c0.83-0.35,1.38-1.48,1.51-3.11c0.15-1.92-0.29-4.22-1.25-6.49l0,0
			c-0.96-2.27-2.3-4.2-3.77-5.43C127.52,95.14,126.6,94.72,125.85,94.72z"/>
	</g>
	<g class="st2">
		
			<ellipse transform="matrix(0.7505 -0.6608 0.6608 0.7505 -41.0903 106.8616)" class="st9" cx="120.99" cy="107.85" rx="5.13" ry="9.9"/>
		<path class="st10" d="M125.36,117.18c-0.88,0-1.85-0.2-2.88-0.6c-2.13-0.83-4.33-2.45-6.2-4.57c-4.1-4.65-5.23-10.12-2.59-12.45
			c2.64-2.33,7.92-0.51,12.02,4.15c1.87,2.12,3.2,4.51,3.75,6.73c0.62,2.48,0.21,4.51-1.16,5.72
			C127.52,116.83,126.51,117.18,125.36,117.18z M116.64,100.84c-0.6,0-1.09,0.15-1.43,0.45c-1.41,1.24-0.61,5.32,2.8,9.19
			c1.63,1.85,3.51,3.25,5.3,3.95c1.52,0.59,2.78,0.59,3.45-0.01c0.68-0.6,0.84-1.84,0.45-3.42c-0.47-1.87-1.62-3.91-3.24-5.76l0,0
			C121.39,102.3,118.5,100.84,116.64,100.84z"/>
	</g>
	<g class="st2">
		<ellipse transform="matrix(0.5 -0.866 0.866 0.5 -43.8749 158.0965)" class="st9" cx="114.98" cy="117.05" rx="5.13" ry="9.9"/>
		<path class="st10" d="M119.66,124.85c-0.16,0-0.32,0-0.48-0.01c-2.28-0.1-4.89-0.94-7.34-2.35c-2.45-1.41-4.47-3.25-5.71-5.18
			c-1.38-2.15-1.64-4.21-0.73-5.79c1.76-3.05,7.35-3.01,12.71,0.09l0,0c5.37,3.1,8.19,7.92,6.43,10.97
			C123.7,124.05,121.97,124.85,119.66,124.85z M110.31,111.54c-1.43,0-2.49,0.4-2.91,1.13c-0.45,0.78-0.21,2.02,0.67,3.39
			c1.04,1.62,2.78,3.19,4.92,4.42s4.37,1.96,6.29,2.05c1.62,0.07,2.82-0.33,3.27-1.11c0.94-1.63-1.12-5.23-5.59-7.81l0,0
			C114.49,112.18,112.1,111.54,110.31,111.54z"/>
	</g>
	<g class="st2">
		<path class="st9" d="M115.8,125.31c-1.94-1.41-5.3-9.02-12.55-1.24c-7.25,7.78,8.84,10.43,11.31,7.78
			C117.04,129.2,115.8,125.31,115.8,125.31z"/>
		<path class="st10" d="M110.69,134.02c-3.16,0-6.93-1.04-8.88-2.87c-1.08-1.01-3.19-3.8,0.6-7.87c2.43-2.61,4.7-3.84,6.93-3.82
			c2.88,0.06,4.82,2.31,6.1,3.8c0.41,0.48,0.8,0.93,1.05,1.11l0.31,0.22l0.11,0.36c0.06,0.19,1.41,4.57-1.49,7.68
			C114.53,133.58,112.73,134.02,110.69,134.02z M109.23,121.78c-1.5,0-3.22,1.04-5.13,3.08c-2.63,2.82-1.24,4.12-0.72,4.61
			c2.67,2.49,9.29,2.72,10.34,1.6c1.62-1.73,1.25-4.24,1.06-5.1c-0.35-0.32-0.7-0.73-1.1-1.19c-1.13-1.32-2.55-2.96-4.39-2.99
			C109.27,121.78,109.25,121.78,109.23,121.78z"/>
	</g>
	<path class="st11" d="M66.22,47.04c0,0-26.34,21.62-37.33,18.43c5.44,12.03,23.27,27.75,23.27,27.75L66.22,47.04z"/>
	<g class="st2">
		<path class="st12" d="M80.49,108.03c3.59-1.18,7.1-2.97,10.36-5.37c-6.79-2.79-15.13-9.31-22.63-18.25
			c-7.42-8.85-12.36-18.1-13.97-25.24c-2.91,2.79-5.27,5.93-7.05,9.25c2.71,6.2,7.67,13.97,14.19,21.74
			C67.96,98,74.83,104.29,80.49,108.03z"/>
		<path class="st12" d="M43.95,77.14c-1.83,8.34-0.22,16.9,5.21,23.37c5.44,6.49,13.6,9.56,22.15,9.21
			c-5.53-3.14-11.49-7.82-16.65-13.97C49.58,89.68,46.06,83.09,43.95,77.14z"/>
		<path class="st12" d="M99.14,94.32c8.29-11.47,8.95-26.29,0.62-36.23c-8.34-9.95-23.08-11.88-35.83-5.69
			c1.85,6.98,6.66,15.74,13.7,24.15C84.72,85.01,92.57,91.3,99.14,94.32z"/>
		<path d="M54.24,59.16c0.61-0.58,1.24-1.15,1.9-1.7c2.45-2.05,5.07-3.74,7.78-5.05"/>
		<path d="M99.14,94.32c-1.78,2.46-3.9,4.76-6.37,6.83c-0.63,0.53-1.27,1.03-1.92,1.51"/>
		<path d="M90.85,102.65c0.65-0.48,1.29-0.98,1.92-1.51c2.46-2.07,4.59-4.37,6.37-6.83c-6.57-3.02-14.42-9.31-21.51-17.77
			c-7.05-8.4-11.85-17.17-13.7-24.15c-2.71,1.32-5.33,3-7.78,5.05c-0.66,0.55-1.29,1.12-1.9,1.7c1.62,7.14,6.55,16.39,13.97,25.24
			C75.72,93.34,84.06,99.87,90.85,102.65z"/>
		<path d="M80.49,108.03c-3.04,1-6.13,1.56-9.17,1.69"/>
		<path d="M43.95,77.14c0.65-2.97,1.74-5.92,3.25-8.73"/>
		<path d="M61.38,90.15C54.87,82.38,49.9,74.61,47.2,68.41c-1.51,2.82-2.59,5.76-3.25,8.73c2.11,5.95,5.63,12.54,10.71,18.6
			c5.16,6.16,11.12,10.83,16.65,13.97c3.04-0.13,6.14-0.69,9.17-1.69C74.83,104.29,67.96,98,61.38,90.15z"/>
	</g>
	
		<ellipse transform="matrix(0.5879 -0.809 0.809 0.5879 -18.5979 104.5695)" class="st2" cx="93.33" cy="70.54" rx="2.59" ry="1.24"/>
	<g class="st2">
		<path d="M88.5,82.32c-1.84-1.55-2.07-4.31-0.52-6.15c0.19-0.22,0.51-0.25,0.73-0.06s0.25,0.51,0.06,0.73
			c-1.18,1.4-1.01,3.5,0.39,4.69c1.4,1.18,3.5,1.01,4.69-0.39c0.19-0.22,0.51-0.25,0.73-0.06c0.22,0.19,0.25,0.51,0.06,0.73
			C93.09,83.64,90.33,83.88,88.5,82.32z"/>
	</g>
	<g class="st2">
		<path d="M102.58,68.01c-0.02-0.02-0.05-0.04-0.07-0.06c-0.19-0.22-0.17-0.54,0.05-0.73c3.27-2.88,8.14-5.14,11.96-2.81
			c0.24,0.15,0.32,0.47,0.17,0.71c-0.15,0.25-0.47,0.32-0.71,0.17c-3.34-2.03-7.74,0.07-10.73,2.71
			C103.05,68.16,102.77,68.16,102.58,68.01z"/>
	</g>
	<g class="st2">
		<path d="M99.08,65.37c-0.19-0.16-0.24-0.43-0.12-0.66c1.98-3.47,3.16-8.19,0.5-11.06c-0.2-0.21-0.18-0.54,0.03-0.73
			c0.21-0.19,0.54-0.18,0.73,0.03c3.04,3.28,1.81,8.49-0.36,12.28c-0.14,0.25-0.46,0.34-0.71,0.19
			C99.13,65.41,99.11,65.39,99.08,65.37z"/>
	</g>
	
		<ellipse transform="matrix(0.5879 -0.809 0.809 0.5879 -20.7717 110.9529)" class="st2" cx="98.51" cy="75.86" rx="2.59" ry="1.24"/>
	<path class="st11" d="M75.41,55.35c0,0-32.9-22.41-36.91-9.65S75.41,55.35,75.41,55.35z"/>
	<path class="st11" d="M74.98,55.3c0,0-19.44-34.73-28.72-25.1S74.98,55.3,74.98,55.3z"/>
	<g class="st2">
		<path class="st4" d="M82.7,85.34c0.46-0.15,0.88-0.18,1.24-0.09c0.36,0.09,0.67,0.25,0.91,0.48c0.25,0.24,0.44,0.53,0.57,0.88
			c0.13,0.35,0.2,0.71,0.2,1.09c0,0.38-0.06,0.75-0.19,1.1c-0.13,0.36-0.33,0.67-0.6,0.93c-0.27,0.26-0.61,0.45-1.03,0.57
			c-0.42,0.11-0.91,0.12-1.47,0.02c0.05,0.3,0.08,0.57,0.11,0.84c0.03,0.26,0.02,0.5-0.03,0.72c-0.05,0.22-0.14,0.42-0.28,0.6
			c-0.14,0.18-0.35,0.35-0.62,0.5c-0.23,0.12-0.49,0.21-0.79,0.27c-0.3,0.06-0.61,0.08-0.94,0.07c-0.33-0.01-0.66-0.05-0.99-0.13
			c-0.33-0.07-0.64-0.18-0.94-0.31c-0.3-0.13-0.56-0.29-0.79-0.47c-0.23-0.18-0.41-0.39-0.53-0.61c-0.08-0.15-0.07-0.35,0.05-0.6
			c0.11-0.25,0.29-0.53,0.53-0.84c0.24-0.31,0.53-0.64,0.87-1c0.34-0.36,0.7-0.71,1.08-1.06c0.38-0.35,0.77-0.69,1.15-1.02
			c0.39-0.33,0.75-0.63,1.08-0.89c0.33-0.27,0.63-0.5,0.88-0.68C82.42,85.51,82.6,85.39,82.7,85.34z M82.39,87.03
			c-0.12,0.07-0.28,0.15-0.46,0.24c-0.19,0.09-0.37,0.2-0.56,0.31c-0.19,0.11-0.37,0.24-0.54,0.38c-0.17,0.14-0.3,0.29-0.39,0.46
			c0.25,0.3,0.52,0.53,0.83,0.69c0.31,0.16,0.62,0.25,0.93,0.28c0.31,0.03,0.62,0.01,0.92-0.07c0.3-0.07,0.57-0.19,0.8-0.34
			c0.24-0.15,0.43-0.34,0.58-0.55c0.15-0.21,0.23-0.44,0.25-0.68c0.02-0.24-0.05-0.49-0.19-0.74c-0.14-0.25-0.38-0.5-0.73-0.74
			c-0.05,0.03-0.15,0.08-0.29,0.15c-0.14,0.07-0.29,0.15-0.44,0.23c-0.15,0.08-0.3,0.16-0.43,0.23C82.54,86.95,82.44,87,82.39,87.03
			z M79.25,89.61c-0.12,0.06-0.26,0.18-0.42,0.34c-0.16,0.16-0.32,0.34-0.46,0.53c-0.15,0.19-0.27,0.38-0.37,0.57
			c-0.1,0.19-0.15,0.36-0.14,0.51c0,0.13,0.07,0.24,0.2,0.33c0.14,0.09,0.31,0.17,0.53,0.23c0.21,0.06,0.45,0.1,0.7,0.12
			c0.25,0.02,0.49,0.04,0.72,0.04c0.23,0,0.44-0.01,0.63-0.04c0.19-0.03,0.32-0.06,0.4-0.11c0.18-0.1,0.31-0.2,0.4-0.31
			c0.09-0.11,0.14-0.23,0.16-0.36c0.02-0.13,0.01-0.27-0.04-0.41c-0.04-0.14-0.1-0.29-0.19-0.44c-0.09-0.17-0.22-0.34-0.38-0.5
			c-0.16-0.16-0.34-0.3-0.53-0.4c-0.19-0.1-0.39-0.17-0.61-0.2C79.63,89.47,79.44,89.51,79.25,89.61z"/>
	</g>
	
		<ellipse transform="matrix(0.7754 -0.6315 0.6315 0.7754 -41.9232 114.0233)" class="st13" cx="139.31" cy="115.94" rx="33.23" ry="13.26"/>
	<g class="st2">
		<path class="st9" d="M166.42,106.46c-1.84-1.51-0.73-7.68,0.23-8.73s16.75-9.35,18.63-1.67
			C187.16,103.74,169.17,108.71,166.42,106.46z"/>
		<path class="st10" d="M168.9,108.15c-1.4,0-2.53-0.24-3.21-0.8c-0.81-0.66-1.27-1.81-1.39-3.43c-0.16-2.29,0.46-5.83,1.5-6.97
			c0.86-0.94,10.9-6.52,16.75-5.02c2.03,0.52,3.36,1.85,3.85,3.85c0.74,3.02-0.97,6.02-4.82,8.45
			C178.06,106.45,172.58,108.15,168.9,108.15z M180.38,93.99c-4.76,0-12.1,3.83-12.9,4.55c-0.69,0.86-1.45,6.1-0.32,7.02l0,0
			c1.08,0.89,8.17-0.12,13.2-3.29c2.08-1.31,4.42-3.4,3.8-5.94c-0.27-1.11-0.9-1.78-1.98-2.11
			C181.64,94.06,181.03,93.99,180.38,93.99z"/>
	</g>
	
		<ellipse transform="matrix(0.7071 -0.7071 0.7071 0.7071 -35.2251 129.7506)" class="st2" cx="139.01" cy="107.4" rx="2.59" ry="1.24"/>
	
		<ellipse transform="matrix(0.7071 -0.7071 0.7071 0.7071 -36.2718 133.2922)" class="st2" cx="142.76" cy="110.43" rx="2.59" ry="1.24"/>
	<g class="st2">
		<path d="M132.06,118.21c-1.47-1.24-1.65-3.44-0.41-4.91c0.15-0.17,0.41-0.2,0.58-0.05c0.17,0.15,0.2,0.41,0.05,0.58
			c-0.94,1.12-0.8,2.8,0.31,3.74s2.8,0.8,3.74-0.31c0.15-0.17,0.41-0.2,0.58-0.05c0.17,0.15,0.2,0.41,0.05,0.58
			C135.73,119.26,133.53,119.44,132.06,118.21z"/>
	</g>
	
		<ellipse transform="matrix(0.7071 -0.7071 0.7071 0.7071 -40.5944 132.6274)" class="st14" cx="139.8" cy="115.32" rx="1.1" ry="2.31"/>
	
		<ellipse transform="matrix(0.7071 -0.7071 0.7071 0.7071 -38.7829 127.3374)" class="st14" cx="134.32" cy="110.48" rx="1.1" ry="2.31"/>
	<g class="st2">
		<path class="st9" d="M121.64,134.98c1.81-1.54,8.84-0.47,9.7,0.67c0.86,1.13,5.07,19.25-2.82,19.74
			C120.63,155.88,118.94,137.29,121.64,134.98z"/>
		<path class="st10" d="M128.23,156.56c-2.95,0-5.45-2.2-7.09-6.25c-2.15-5.33-2.66-14.15-0.24-16.2l0,0
			c1.45-1.23,4.48-1.11,6.16-0.93c0.99,0.11,4.28,0.55,5.21,1.78c0.88,1.16,3.67,12.43,1.03,18.17c-0.97,2.1-2.59,3.29-4.71,3.42
			C128.47,156.55,128.35,156.56,128.23,156.56z M124.94,135.37c-1.15,0-2.13,0.14-2.54,0.5l0,0c-1.07,0.91-1.33,8.06,0.89,13.58
			c0.92,2.28,2.56,4.95,5.17,4.8c1.15-0.07,1.97-0.62,2.57-1.73c2.43-4.45,0.05-14.76-0.6-16.15
			C129.73,135.85,127.05,135.37,124.94,135.37z M130.47,136.4L130.47,136.4L130.47,136.4z"/>
	</g>
	<g class="st2">
		<path class="st9" d="M131.57,132.88c0.89-2.2,7.62-4.51,8.91-3.9c1.29,0.61,13.4,14.72,6.63,18.8S130.23,136.17,131.57,132.88z"/>
		<path class="st10" d="M144.71,149.6c-2.01,0-4.24-0.98-6.5-2.91c-4.38-3.73-8.9-11.31-7.72-14.25l0,0
			c0.71-1.76,3.46-3.06,5.03-3.68c0.92-0.36,4.05-1.49,5.44-0.84c1.31,0.62,9.01,9.32,9.33,15.63c0.12,2.31-0.78,4.11-2.59,5.21
			C146.79,149.33,145.78,149.6,144.71,149.6z M132.64,133.31c-0.53,1.3,2.55,7.76,7.07,11.62c1.87,1.59,4.57,3.21,6.8,1.86
			c0.99-0.6,1.46-1.46,1.48-2.72c0.1-5.07-6.79-13.11-8.01-14.03C138.67,129.83,133.22,131.87,132.64,133.31L132.64,133.31z
			 M140.05,130.05L140.05,130.05L140.05,130.05z"/>
	</g>
	<g class="st2">
		<path class="st9" d="M142.47,128.11c0.37-2.35,6.41-6.11,7.8-5.81c1.39,0.3,16.38,11.31,10.71,16.82
			C155.31,144.62,141.92,131.62,142.47,128.11z"/>
		<path class="st10" d="M157.51,141.6c-1.62,0-3.46-0.51-5.44-1.54c-5.11-2.65-11.23-9.01-10.74-12.13l0,0
			c0.3-1.88,2.68-3.76,4.07-4.72c0.82-0.56,3.61-2.36,5.11-2.04c1.42,0.31,10.88,7.04,12.62,13.12c0.64,2.23,0.17,4.18-1.35,5.66
			C160.65,141.05,159.19,141.6,157.51,141.6z M143.61,128.29c-0.22,1.38,4.24,6.99,9.52,9.72c2.18,1.13,5.17,2.1,7.05,0.27
			c0.83-0.8,1.09-1.75,0.83-2.99c-1.05-4.96-9.58-11.24-10.97-11.86C148.7,123.54,143.85,126.75,143.61,128.29L143.61,128.29z"/>
	</g>
	<g class="st2">
		<path class="st9" d="M151.37,122.05c0.01-2.38,5.41-7.01,6.83-6.92s17.9,8.7,13.13,15S151.36,125.6,151.37,122.05z"/>
		<path class="st10" d="M166.98,133.2c-1.3,0-2.75-0.26-4.31-0.79c-5.45-1.84-12.46-7.2-12.45-10.37l0,0
			c0.01-1.9,2.08-4.13,3.31-5.28c0.72-0.68,3.19-2.9,4.74-2.79c1.45,0.09,11.82,5.32,14.46,11.06c0.97,2.1,0.8,4.11-0.48,5.8
			C171.06,132.4,169.25,133.2,166.98,133.2z M152.53,122.05c-0.01,1.4,5.25,6.26,10.88,8.17c2.33,0.79,5.43,1.29,7.01-0.8
			c0.7-0.92,0.81-1.9,0.37-3.08c-1.79-4.74-11.17-9.66-12.64-10.06C156.84,116.58,152.54,120.5,152.53,122.05L152.53,122.05z
			 M158.2,116.27L158.2,116.27z"/>
	</g>
	<g class="st2">
		<path class="st9" d="M158.56,112.99c-0.42-2.34,4.06-7.87,5.47-8.04s19.18,5.33,15.62,12.39
			C176.09,124.39,159.18,116.49,158.56,112.99z"/>
		<path class="st10" d="M173.86,121.32c-0.73,0-1.51-0.06-2.33-0.18c-5.69-0.83-13.56-4.84-14.11-7.96l0,0
			c-0.33-1.87,1.3-4.43,2.3-5.79c0.59-0.8,2.63-3.42,4.17-3.61c1.45-0.18,12.59,3.1,16.22,8.27c1.33,1.89,1.53,3.9,0.58,5.79
			C179.53,120.13,177.15,121.32,173.86,121.32z M164.18,106.1c-1.23,0.53-4.75,5.15-4.48,6.68l0,0c0.25,1.38,6.29,5.22,12.17,6.07
			c2.43,0.35,5.57,0.29,6.75-2.05c0.52-1.03,0.46-2.01-0.19-3.09C175.81,109.38,165.7,106.23,164.18,106.1z M164.23,106.08
			L164.23,106.08z"/>
	</g>
	<g class="st2">
		<path class="st9" d="M110.21,132.62c-4.71,0.71-9.78,8.25-8.84,12.26c0.94,4.01,5.77,1.89,7.9-3.54
			C111.38,135.91,115.74,133.68,110.21,132.62z"/>
		<path class="st10" d="M103.56,148.1c-0.08,0-0.17,0-0.25-0.01c-1.53-0.11-2.65-1.19-3.07-2.96c-0.51-2.16,0.35-5.16,2.3-8.04
			c2.12-3.13,4.92-5.23,7.49-5.62l0.2-0.03l0.19,0.04c1.42,0.27,2.93,0.71,3.46,1.95c0.56,1.31-0.27,2.61-1.33,4.25
			c-0.7,1.09-1.58,2.46-2.22,4.08C108.88,145.49,106.06,148.1,103.56,148.1z M110.19,133.79c-1.87,0.37-4.05,2.11-5.73,4.6
			c-1.55,2.28-2.32,4.72-1.97,6.22c0.27,1.13,0.8,1.17,0.98,1.18c0.03,0,0.05,0,0.08,0c1.17,0,3.37-1.65,4.63-4.88
			c0.72-1.84,1.67-3.31,2.43-4.49c0.47-0.73,1.11-1.73,1.14-2.09C111.67,134.26,111.33,134.03,110.19,133.79z"/>
	</g>
	<g class="st2">
		<path class="st9" d="M116.6,134.91c-6.13,2.36-10.7,14.03-8.23,19.15c2.47,5.11,8.34,0.81,9.57-7.12
			C119.18,139,124.38,134.68,116.6,134.91z"/>
		<path class="st10" d="M111.28,157.42c-1.64,0-3.05-1.02-3.95-2.87c-1.28-2.64-1.01-6.82,0.71-11.17c1.88-4.74,4.92-8.32,8.15-9.56
			l0.18-0.07l0.2-0.01c2.65-0.08,4.11,0.34,4.88,1.4c1.01,1.41,0.31,3.31-0.57,5.71c-0.63,1.7-1.41,3.82-1.79,6.24
			c-0.85,5.46-3.88,9.78-7.2,10.27C111.68,157.41,111.48,157.42,111.28,157.42z M116.84,136.06c-2.54,1.07-5.07,4.18-6.65,8.18
			c-1.44,3.65-1.75,7.3-0.78,9.31c0.56,1.15,1.28,1.67,2.13,1.54c1.95-0.29,4.51-3.56,5.25-8.34c0.41-2.65,1.24-4.89,1.9-6.69
			c0.52-1.4,1.16-3.15,0.86-3.56C119.51,136.42,119.1,136.01,116.84,136.06z"/>
	</g>
	<path class="st8" d="M176.7,158.51c-17.05,20.7-42.89,33.9-71.8,33.9c-30.25,0-57.12-14.44-74.1-36.8
		C56.52,179.41,140.97,184.82,176.7,158.51z"/>
	<ellipse class="st7" cx="150.19" cy="28.89" rx="35.41" ry="23.24"/>
	<path class="st7" d="M123.37,42.48c-1.2,6.51-5.31,12.81-8.83,12.85c11.81,1.17,16.22-5.63,16.43-8.54S123.37,42.48,123.37,42.48z"
		/>
	<path class="st11" d="M145.57,23.44c0-0.32-0.04-0.67-0.12-1.04s-0.16-0.76-0.25-1.15c-0.09-0.39-0.18-0.78-0.26-1.17
		c-0.08-0.39-0.13-0.75-0.14-1.1h-2.01c0-0.05,0-0.12,0-0.21s0.01-0.18,0.03-0.28c0.02-0.09,0.04-0.18,0.08-0.25
		c0.04-0.08,0.09-0.12,0.16-0.14h4.97c-0.01,0.19-0.04,0.34-0.12,0.44s-0.17,0.18-0.28,0.23c-0.12,0.05-0.25,0.09-0.39,0.1
		c-0.14,0.02-0.29,0.03-0.43,0.05s-0.29,0.04-0.42,0.07c-0.14,0.03-0.26,0.08-0.36,0.16c-0.1,0.08-0.17,0.19-0.23,0.32
		c-0.05,0.14-0.07,0.32-0.04,0.55c0,0.13,0.01,0.29,0.03,0.5c0.02,0.21,0.05,0.43,0.09,0.67s0.1,0.48,0.16,0.73
		c0.07,0.24,0.15,0.47,0.25,0.67s0.21,0.36,0.34,0.49c0.13,0.12,0.28,0.19,0.46,0.19c0.12,0.01,0.28,0.01,0.46,0
		c0.19-0.01,0.38-0.02,0.57-0.02c0.19-0.01,0.37,0,0.55,0.01c0.17,0.01,0.3,0.05,0.38,0.11s0.1,0.15,0.05,0.27
		c-0.04,0.12-0.17,0.28-0.4,0.47c-0.38,0.14-0.77,0.24-1.17,0.29c-0.39,0.05-0.79,0.08-1.19,0.08s-0.79,0-1.19-0.02
		c-0.4-0.02-0.79-0.02-1.18-0.02c-0.22-0.27-0.36-0.48-0.4-0.62s-0.03-0.25,0.05-0.3c0.08-0.06,0.2-0.09,0.36-0.09
		c0.17,0,0.34,0,0.54,0.02c0.19,0.02,0.39,0.03,0.58,0.04C145.28,23.5,145.44,23.48,145.57,23.44z"/>
	<path class="st11" d="M149.83,18.7c0-0.02,0.01-0.05,0.02-0.08c0.01-0.04,0.03-0.08,0.05-0.12c0.02-0.04,0.04-0.08,0.06-0.12
		c0.02-0.04,0.04-0.06,0.05-0.07c0.01,0,0.03,0,0.05-0.01c0.01,0,0.02,0,0.03,0s0.02,0,0.02,0c0.11,0,0.21,0.04,0.3,0.12
		c0.09,0.08,0.16,0.17,0.22,0.29c0.06,0.11,0.1,0.23,0.13,0.36c0.03,0.12,0.04,0.23,0.04,0.32c0,0.06-0.01,0.14-0.03,0.25
		c-0.02,0.11-0.05,0.2-0.09,0.29s-0.09,0.17-0.15,0.24c-0.06,0.07-0.14,0.1-0.23,0.1c-0.1,0-0.18-0.07-0.24-0.2
		c-0.06-0.14-0.1-0.29-0.14-0.47c-0.04-0.18-0.07-0.35-0.08-0.52C149.84,18.89,149.83,18.77,149.83,18.7z"/>
	<path class="st11" d="M150.97,20.9c0-0.15,0.03-0.27,0.08-0.35s0.16-0.13,0.33-0.13c0.02,0,0.05,0,0.1,0c0.05,0,0.08,0,0.09,0
		c0.04,0.19,0.09,0.39,0.13,0.61s0.1,0.44,0.16,0.66c0.06,0.22,0.13,0.44,0.2,0.66s0.17,0.41,0.28,0.59
		c0.11-0.11,0.19-0.25,0.23-0.41c0.05-0.16,0.08-0.31,0.11-0.47c0.02-0.16,0.05-0.31,0.07-0.46c0.02-0.15,0.06-0.27,0.13-0.38
		c0.07-0.11,0.16-0.18,0.29-0.23c0.13-0.05,0.31-0.05,0.54,0c0.25,0,0.46,0.05,0.61,0.14s0.28,0.21,0.39,0.35
		c0.11,0.14,0.22,0.29,0.33,0.45s0.24,0.3,0.4,0.43c0.04-0.08,0.08-0.18,0.14-0.29c0.05-0.12,0.12-0.24,0.2-0.37
		s0.17-0.26,0.26-0.39c0.09-0.13,0.19-0.25,0.29-0.35s0.21-0.19,0.32-0.26c0.11-0.07,0.21-0.1,0.32-0.1c0.25,0,0.46,0.08,0.64,0.23
		c0.18,0.15,0.33,0.35,0.46,0.58c0.13,0.23,0.24,0.49,0.32,0.78c0.08,0.29,0.15,0.56,0.2,0.83c0.05,0.27,0.08,0.51,0.1,0.73
		c0.02,0.22,0.03,0.38,0.03,0.47c0,0.08-0.02,0.14-0.05,0.18s-0.08,0.07-0.14,0.09c-0.05,0.02-0.11,0.03-0.18,0.04
		c-0.06,0.01-0.12,0.01-0.18,0.01c-0.01,0-0.03,0-0.05,0c-0.02,0-0.05-0.01-0.08-0.01c-0.02-0.01-0.06-0.02-0.1-0.03l-0.59-2.7
		c0-0.02-0.02-0.05-0.07-0.1c-0.05-0.05-0.08-0.08-0.11-0.09c-0.02,0-0.03,0-0.04-0.01c-0.01,0-0.02,0-0.03,0c-0.01,0-0.01,0-0.02,0
		c-0.13,0-0.25,0.05-0.36,0.15c-0.11,0.1-0.21,0.23-0.31,0.39c-0.1,0.16-0.19,0.33-0.27,0.52c-0.08,0.19-0.16,0.38-0.23,0.57
		c-0.07,0.19-0.13,0.36-0.18,0.52c-0.05,0.16-0.09,0.28-0.12,0.37c-0.02,0.01-0.07,0.02-0.14,0.03c-0.07,0.01-0.12,0.01-0.14,0.01
		c-0.17,0-0.3-0.06-0.39-0.18c-0.09-0.12-0.16-0.26-0.22-0.44c-0.06-0.17-0.11-0.37-0.14-0.57c-0.04-0.21-0.09-0.4-0.14-0.57
		c-0.06-0.17-0.14-0.32-0.24-0.44c-0.1-0.12-0.24-0.18-0.42-0.18c-0.07,0-0.13,0.07-0.19,0.2c-0.06,0.13-0.11,0.3-0.16,0.5
		c-0.05,0.2-0.09,0.42-0.14,0.65c-0.04,0.23-0.08,0.45-0.1,0.65c-0.03,0.2-0.05,0.44-0.08,0.72c-0.01,0.02-0.04,0.04-0.07,0.06
		c-0.04,0.02-0.07,0.04-0.11,0.07c-0.04,0.02-0.08,0.04-0.12,0.05s-0.07,0.02-0.08,0.02c-0.17,0-0.33-0.08-0.49-0.23
		c-0.16-0.15-0.3-0.35-0.43-0.6s-0.25-0.51-0.35-0.81c-0.1-0.29-0.19-0.58-0.27-0.87c-0.07-0.28-0.13-0.54-0.17-0.77
		C150.99,21.2,150.97,21.02,150.97,20.9z"/>
	<path class="st11" d="M134.27,31.24c0-0.02,0-0.03,0.01-0.05c0-0.01,0-0.03,0.01-0.04c0.02-0.03,0.06-0.07,0.11-0.12
		c0.05-0.05,0.08-0.07,0.09-0.07h1.82c0-0.07-0.01-0.17-0.03-0.32c-0.02-0.14-0.03-0.3-0.05-0.48c-0.01-0.17-0.02-0.36-0.01-0.55
		c0.01-0.19,0.03-0.36,0.08-0.51c0.04-0.15,0.12-0.28,0.22-0.38c0.1-0.1,0.24-0.15,0.42-0.15c0,0.61,0.04,1.1,0.13,1.46
		c0.08,0.37,0.2,0.65,0.34,0.85c0.14,0.2,0.3,0.33,0.48,0.39s0.37,0.09,0.55,0.08c0.19-0.01,0.38-0.04,0.56-0.09
		c0.18-0.05,0.34-0.08,0.48-0.1s0.25,0,0.34,0.04c0.08,0.04,0.13,0.15,0.13,0.32c0,0.13-0.03,0.22-0.09,0.27s-0.17,0.1-0.33,0.13
		c-0.05,0.01-0.13,0.02-0.24,0.03c-0.11,0.02-0.24,0.03-0.38,0.04s-0.29,0.03-0.44,0.04c-0.16,0.02-0.3,0.03-0.44,0.04
		c-0.14,0.01-0.27,0.02-0.38,0.02s-0.2,0-0.25,0c0,0.03,0,0.08-0.01,0.15s-0.01,0.12-0.01,0.14c0,0.27,0.04,0.52,0.13,0.77
		c0.08,0.25,0.18,0.5,0.28,0.75c0.1,0.25,0.19,0.49,0.28,0.74c0.08,0.25,0.13,0.5,0.13,0.77c0,0.05,0,0.1-0.01,0.15
		c-0.01,0.05-0.03,0.1-0.05,0.14c-0.03,0.04-0.07,0.07-0.12,0.09c-0.05,0.02-0.12,0.02-0.21-0.01c-0.23-0.06-0.4-0.19-0.51-0.39
		s-0.19-0.44-0.25-0.71c-0.05-0.27-0.09-0.56-0.11-0.87c-0.02-0.31-0.05-0.59-0.08-0.86c-0.04-0.27-0.1-0.5-0.19-0.69
		s-0.22-0.31-0.41-0.35l-1.74-0.4c-0.02,0-0.06-0.03-0.11-0.08c-0.05-0.05-0.08-0.09-0.09-0.11c-0.01-0.01-0.01-0.03-0.01-0.04
		C134.27,31.28,134.27,31.26,134.27,31.24z"/>
	<path class="st11" d="M140.53,29.92c0-0.07,0.01-0.15,0.02-0.25c0.02-0.1,0.04-0.19,0.08-0.28s0.09-0.17,0.15-0.23
		c0.06-0.06,0.14-0.09,0.23-0.09c0.01,0,0.02,0,0.05,0.01c0.02,0.01,0.04,0.01,0.04,0.01c0.1,0.37,0.16,0.74,0.18,1.11
		c0.02,0.37,0.01,0.72-0.02,1.07s-0.08,0.68-0.13,1c-0.06,0.32-0.11,0.62-0.15,0.89s-0.06,0.51-0.07,0.73s0.02,0.4,0.09,0.55
		c-0.01-0.1-0.02-0.21-0.02-0.35c0-0.14,0.01-0.28,0.04-0.42s0.07-0.29,0.14-0.43c0.06-0.14,0.15-0.27,0.28-0.39
		c0.12-0.11,0.28-0.2,0.46-0.27c0.19-0.07,0.43-0.1,0.71-0.1c0.29,0,0.55,0.05,0.76,0.15c0.21,0.1,0.39,0.24,0.53,0.42
		c0.14,0.18,0.24,0.39,0.31,0.62c0.07,0.24,0.1,0.49,0.1,0.76c0,0.13,0,0.27,0,0.43c0,0.16-0.02,0.31-0.06,0.44
		c-0.04,0.14-0.11,0.25-0.21,0.34c-0.1,0.09-0.25,0.14-0.44,0.14c0-0.1,0.01-0.23,0.02-0.39c0.01-0.17,0.02-0.34,0.02-0.53
		s0-0.38-0.02-0.57c-0.02-0.19-0.06-0.37-0.12-0.52c-0.07-0.15-0.16-0.28-0.28-0.38c-0.12-0.1-0.28-0.15-0.48-0.15
		c-0.07,0-0.16,0-0.27,0.01c-0.11,0.01-0.21,0.04-0.32,0.09s-0.21,0.12-0.32,0.22s-0.18,0.23-0.24,0.41
		c-0.06,0.17-0.09,0.39-0.1,0.65c-0.01,0.26,0.02,0.58,0.09,0.96c-0.04,0.11-0.09,0.17-0.16,0.19c-0.06,0.02-0.14,0.03-0.24,0.03
		c-0.19,0-0.35-0.07-0.47-0.2c-0.12-0.14-0.22-0.32-0.29-0.55c-0.07-0.23-0.11-0.49-0.13-0.79c-0.02-0.3-0.03-0.62-0.02-0.94
		s0.02-0.66,0.05-1c0.03-0.34,0.05-0.66,0.08-0.97c0.03-0.3,0.05-0.58,0.08-0.83C140.52,30.27,140.53,30.07,140.53,29.92z"/>
	<path class="st11" d="M145.18,29.02c0.11,0.05,0.21,0.13,0.29,0.23c0.08,0.11,0.11,0.21,0.1,0.29c-0.01,0.09-0.08,0.15-0.2,0.18
		c-0.13,0.03-0.34,0-0.63-0.1c0-0.16,0.03-0.3,0.09-0.42C144.9,29.08,145.01,29.02,145.18,29.02z M145.06,32.4c0-0.04,0-0.09,0-0.18
		c0-0.08,0.01-0.17,0.01-0.26s0.01-0.18,0.01-0.26c0-0.08,0-0.14,0-0.18c0.07-0.1,0.15-0.17,0.26-0.23c0.1-0.06,0.21-0.11,0.32-0.14
		c0.02,0.32,0.07,0.67,0.15,1.04c0.08,0.37,0.17,0.74,0.27,1.11c0.1,0.37,0.18,0.74,0.26,1.1c0.08,0.36,0.11,0.7,0.11,1.01
		c0,0.27-0.14,0.41-0.42,0.41c-0.17,0-0.31-0.07-0.42-0.21c-0.12-0.14-0.21-0.31-0.28-0.53c-0.07-0.21-0.13-0.45-0.17-0.71
		c-0.04-0.26-0.07-0.52-0.08-0.77c-0.02-0.25-0.02-0.48-0.03-0.7S145.06,32.52,145.06,32.4z"/>
	<path class="st11" d="M146.81,32c0-0.05,0-0.11,0.01-0.17s0.02-0.11,0.04-0.15c0.02-0.05,0.05-0.08,0.09-0.11
		c0.04-0.03,0.09-0.04,0.17-0.04c0.06,0,0.13,0.05,0.2,0.14s0.15,0.21,0.23,0.35s0.16,0.3,0.23,0.46s0.14,0.32,0.2,0.47
		c0.06,0.14,0.1,0.26,0.14,0.37c0.04,0.1,0.06,0.16,0.06,0.16c0.08-0.21,0.17-0.44,0.26-0.69c0.1-0.25,0.22-0.48,0.36-0.69
		c0.14-0.21,0.31-0.39,0.5-0.54c0.2-0.14,0.44-0.22,0.72-0.22c0.14,0,0.28,0.02,0.41,0.07c0.13,0.04,0.24,0.11,0.34,0.2
		c0.1,0.09,0.18,0.19,0.24,0.31c0.06,0.12,0.09,0.26,0.09,0.42c0,0.13-0.05,0.23-0.16,0.28s-0.22,0.08-0.36,0.08h-0.09l-0.39-0.39
		c-0.01,0-0.02,0-0.03-0.01c-0.01,0-0.02,0-0.03,0s-0.02,0-0.03,0c-0.21,0-0.37,0.06-0.49,0.18c-0.12,0.12-0.21,0.26-0.27,0.43
		c-0.06,0.17-0.1,0.35-0.11,0.54c-0.01,0.19-0.02,0.36-0.02,0.52c0,0.12,0.01,0.24,0.04,0.37s0.05,0.24,0.08,0.36
		c0.03,0.12,0.06,0.24,0.08,0.36c0.02,0.12,0.04,0.25,0.04,0.38c0,0.25-0.13,0.38-0.41,0.38c-0.15,0-0.31-0.08-0.47-0.24
		c-0.16-0.16-0.32-0.36-0.48-0.61c-0.16-0.25-0.31-0.52-0.46-0.82s-0.27-0.59-0.38-0.87c-0.11-0.28-0.19-0.54-0.26-0.77
		C146.84,32.27,146.81,32.1,146.81,32z"/>
	<path class="st11" d="M153.16,35.38c0.1-0.07,0.21-0.15,0.35-0.26c0.14-0.11,0.27-0.22,0.41-0.34c0.14-0.12,0.27-0.25,0.39-0.38
		c0.12-0.13,0.21-0.26,0.28-0.38s0.1-0.24,0.1-0.35s-0.05-0.2-0.16-0.27c-0.19,0-0.4,0.01-0.63,0.02c-0.23,0.02-0.46,0.02-0.69,0.02
		c-0.23,0-0.45-0.02-0.66-0.06s-0.41-0.1-0.57-0.2c-0.17-0.1-0.3-0.23-0.4-0.41c-0.1-0.18-0.15-0.4-0.15-0.68
		c0-0.32,0.06-0.62,0.18-0.88c0.12-0.26,0.29-0.49,0.49-0.7c0.21-0.2,0.44-0.38,0.69-0.53c0.26-0.15,0.51-0.28,0.77-0.39
		c0.16,0.04,0.3,0.12,0.43,0.23s0.25,0.23,0.34,0.36c-0.04,0.13-0.13,0.23-0.25,0.31s-0.26,0.14-0.42,0.19
		c-0.16,0.05-0.33,0.11-0.5,0.17c-0.17,0.06-0.33,0.14-0.47,0.24c-0.14,0.1-0.26,0.23-0.36,0.39c-0.1,0.16-0.14,0.37-0.14,0.63
		c0,0.19,0.05,0.33,0.14,0.42c0.1,0.09,0.22,0.15,0.38,0.19c0.16,0.03,0.33,0.05,0.53,0.04c0.2-0.01,0.4-0.02,0.61-0.04
		c0.21-0.02,0.41-0.03,0.61-0.03c0.2,0,0.38,0.02,0.53,0.07c0.16,0.05,0.28,0.13,0.38,0.25c0.09,0.11,0.14,0.28,0.14,0.51
		c0,0.1-0.03,0.22-0.1,0.37c-0.06,0.15-0.15,0.31-0.25,0.48c-0.11,0.17-0.23,0.34-0.37,0.51c-0.14,0.17-0.29,0.32-0.44,0.46
		c-0.15,0.14-0.31,0.25-0.46,0.33s-0.3,0.13-0.43,0.13c-0.13,0-0.21-0.04-0.25-0.14S153.16,35.47,153.16,35.38z"/>
	<path class="st11" d="M155.67,31.24c0-0.02,0-0.03,0.01-0.05c0-0.01,0-0.03,0.01-0.04c0.02-0.03,0.06-0.07,0.11-0.12
		c0.05-0.05,0.08-0.07,0.09-0.07h1.82c0-0.07-0.01-0.17-0.03-0.32c-0.02-0.14-0.03-0.3-0.05-0.48c-0.01-0.17-0.02-0.36-0.01-0.55
		c0.01-0.19,0.03-0.36,0.08-0.51c0.04-0.15,0.12-0.28,0.22-0.38c0.1-0.1,0.24-0.15,0.42-0.15c0,0.61,0.04,1.1,0.13,1.46
		c0.08,0.37,0.2,0.65,0.34,0.85c0.14,0.2,0.3,0.33,0.48,0.39s0.37,0.09,0.55,0.08c0.19-0.01,0.38-0.04,0.56-0.09
		c0.18-0.05,0.34-0.08,0.48-0.1s0.25,0,0.34,0.04c0.08,0.04,0.13,0.15,0.13,0.32c0,0.13-0.03,0.22-0.09,0.27s-0.17,0.1-0.33,0.13
		c-0.05,0.01-0.13,0.02-0.24,0.03c-0.11,0.02-0.24,0.03-0.38,0.04s-0.29,0.03-0.44,0.04c-0.16,0.02-0.3,0.03-0.44,0.04
		c-0.14,0.01-0.27,0.02-0.38,0.02s-0.2,0-0.25,0c0,0.03,0,0.08-0.01,0.15s-0.01,0.12-0.01,0.14c0,0.27,0.04,0.52,0.13,0.77
		c0.08,0.25,0.18,0.5,0.28,0.75c0.1,0.25,0.19,0.49,0.28,0.74c0.08,0.25,0.13,0.5,0.13,0.77c0,0.05,0,0.1-0.01,0.15
		c-0.01,0.05-0.03,0.1-0.05,0.14c-0.03,0.04-0.07,0.07-0.12,0.09c-0.05,0.02-0.12,0.02-0.21-0.01c-0.23-0.06-0.4-0.19-0.51-0.39
		s-0.19-0.44-0.25-0.71c-0.05-0.27-0.09-0.56-0.11-0.87c-0.02-0.31-0.05-0.59-0.08-0.86c-0.04-0.27-0.1-0.5-0.19-0.69
		s-0.22-0.31-0.41-0.35l-1.74-0.4c-0.02,0-0.06-0.03-0.11-0.08c-0.05-0.05-0.08-0.09-0.09-0.11c-0.01-0.01-0.01-0.03-0.01-0.04
		C155.68,31.28,155.67,31.26,155.67,31.24z"/>
	<path class="st11" d="M161.53,31.12c0-0.05,0-0.11,0-0.17s0.02-0.11,0.04-0.16c0.02-0.05,0.05-0.09,0.09-0.12
		c0.04-0.03,0.1-0.04,0.18-0.04c0.01,0,0.01,0,0.02,0s0.02,0,0.03,0c0.02,0.01,0.03,0.01,0.04,0.01c0.11,0.16,0.21,0.36,0.3,0.6
		s0.17,0.5,0.24,0.78c0.08,0.27,0.16,0.55,0.25,0.83c0.09,0.28,0.21,0.53,0.35,0.75s0.32,0.4,0.53,0.53
		c0.21,0.13,0.47,0.19,0.79,0.17c0.14,0,0.23-0.08,0.27-0.23c0.04-0.15,0.07-0.34,0.07-0.58c0-0.23,0-0.49-0.02-0.78
		c-0.01-0.28-0.01-0.55,0-0.81c0.02-0.26,0.06-0.48,0.14-0.67c0.08-0.19,0.21-0.32,0.39-0.39c0.08,0.16,0.14,0.4,0.19,0.74
		s0.09,0.72,0.11,1.16c0.02,0.44,0.04,0.91,0.04,1.42s-0.01,1.01-0.04,1.52c-0.02,0.5-0.06,0.99-0.11,1.45
		c-0.05,0.46-0.1,0.87-0.16,1.22c-0.06,0.35-0.13,0.62-0.21,0.83s-0.17,0.29-0.26,0.26c-0.13-0.12-0.22-0.28-0.29-0.47
		c-0.07-0.19-0.12-0.41-0.14-0.64c-0.03-0.23-0.04-0.48-0.03-0.74c0.01-0.26,0.02-0.53,0.03-0.79c0.01-0.27,0.03-0.52,0.05-0.78
		c0.02-0.25,0.03-0.48,0.03-0.7c-0.22,0.02-0.44-0.01-0.66-0.1s-0.45-0.22-0.66-0.39c-0.22-0.18-0.42-0.39-0.62-0.65
		s-0.37-0.54-0.51-0.86c-0.15-0.32-0.26-0.66-0.35-1.03S161.53,31.53,161.53,31.12z"/>
	<path class="st11" d="M166.15,29.01c0.16-0.15,0.29-0.18,0.38-0.1c0.09,0.08,0.16,0.24,0.2,0.48c0.04,0.23,0.07,0.52,0.08,0.84
		s0.01,0.66,0.01,1.01c0,0.34,0.01,0.67,0.02,0.98s0.03,0.55,0.08,0.73c0,0.09-0.01,0.17-0.02,0.23c-0.01,0.07-0.03,0.12-0.06,0.16
		c-0.03,0.04-0.08,0.07-0.14,0.1s-0.15,0.03-0.26,0.03c-0.02,0-0.04-0.01-0.05-0.03c-0.02-0.02-0.04-0.07-0.05-0.16
		c-0.02-0.09-0.04-0.22-0.05-0.41c-0.02-0.18-0.04-0.44-0.05-0.77c-0.02-0.33-0.03-0.75-0.04-1.25
		C166.16,30.36,166.15,29.74,166.15,29.01z M166.83,35c0.08,0,0.16,0.02,0.23,0.07c0.08,0.05,0.12,0.11,0.14,0.18
		c0.02,0.07,0,0.15-0.06,0.23c-0.06,0.08-0.19,0.16-0.39,0.23c-0.16-0.02-0.28-0.06-0.35-0.12c-0.07-0.06-0.11-0.12-0.12-0.18
		c-0.01-0.06,0.01-0.13,0.04-0.19c0.04-0.06,0.09-0.12,0.14-0.16c0.06-0.04,0.12-0.08,0.18-0.09
		C166.73,34.96,166.78,34.97,166.83,35z"/>
	<circle class="st5" cx="43.68" cy="88.26" r="9.62"/>
	<circle class="st5" cx="68.88" cy="72.77" r="10.77"/>
	<circle class="st5" cx="63.1" cy="108.14" r="6.38"/>
	<circle class="st5" cx="79.74" cy="49.89" r="6.38"/>
</g>
<g id="Calque_3">
	<path class="st9" d="M171.88,196H28.12C15.35,196,5,185.65,5,172.88V29.12C5,16.35,15.35,6,28.12,6h143.75
		C184.65,6,195,16.35,195,29.12v143.75C195,185.65,184.65,196,171.88,196z"/>
	<path class="st15" d="M110.44,85.71c0,0,54.74-37.3,61.41-16.06S110.44,85.71,110.44,85.71z"/>
	<path class="st15" d="M91.63,85.59c0,0-54.74-37.3-61.41-16.06S91.63,85.59,91.63,85.59z"/>
	<path class="st15" d="M111.08,86.25c0,0,32.36-57.8,47.8-41.77S111.08,86.25,111.08,86.25z"/>
	<path class="st15" d="M90.93,85.51c0,0-32.36-57.8-47.8-41.77S90.93,85.51,90.93,85.51z"/>
	<path class="st15" d="M101.3,165.52c0,0-41.77-1.76-61.48-11.18c9.27-5.15,15.74-66.03,17.8-71.92l87.47,0.05
		c2.06,5.88,8.53,66.77,17.8,71.92C150.28,161.85,114.69,165.52,101.3,165.52z"/>
	<g>
		<path class="st3" d="M144.6,125.08c2.33-5.84,3.8-12.23,4.23-18.96c-10.81,5.67-28.05,9.35-47.47,9.35
			c-19.21,0-36.29-3.59-47.12-9.16c0.44,6.7,1.92,13.06,4.26,18.87c10.79,3.17,26.02,5.15,42.89,5.15
			C118.42,130.33,133.78,128.31,144.6,125.08z"/>
		<path class="st3" d="M66.15,138.65c8.69,11.25,21.31,18.34,35.37,18.34c14.09,0,26.73-7.11,35.42-18.4
			c-9.92,3.7-22.25,6.3-35.62,6.3C88.16,144.89,75.99,142.32,66.15,138.65z"/>
		<path class="st3" d="M147.06,86.65c-5.75-22.83-23.96-39.51-45.53-39.51c-21.6,0-39.83,16.73-45.56,39.61
			c10.87,5.1,27.19,8.34,45.44,8.34C119.77,95.09,136.18,91.8,147.06,86.65z"/>
		<path d="M54.23,106.31c-0.09-1.4-0.14-2.82-0.14-4.24c0-5.32,0.65-10.46,1.87-15.32"/>
		<path d="M147.06,86.65c1.23,4.89,1.9,10.06,1.9,15.42c0,1.37-0.04,2.72-0.13,4.06"/>
		<path d="M148.82,106.13c0.08-1.34,0.13-2.7,0.13-4.06c0-5.35-0.66-10.53-1.9-15.42c-10.87,5.15-27.29,8.44-45.65,8.44
			c-18.25,0-34.57-3.24-45.44-8.34c-1.22,4.86-1.87,10-1.87,15.32c0,1.43,0.05,2.84,0.14,4.24c10.83,5.57,27.91,9.16,47.12,9.16
			C120.77,115.47,138.01,111.8,148.82,106.13z"/>
		<path d="M144.6,125.08c-1.97,4.94-4.56,9.49-7.65,13.51"/>
		<path d="M66.15,138.65c-3.09-4.01-5.68-8.54-7.66-13.47"/>
		<path d="M101.38,130.33c-16.87,0-32.1-1.98-42.89-5.15c1.98,4.93,4.57,9.47,7.66,13.47c9.84,3.66,22,6.23,35.18,6.23
			c13.37,0,25.7-2.6,35.62-6.3c3.09-4.02,5.68-8.56,7.65-13.51C133.78,128.31,118.42,130.33,101.38,130.33z"/>
	</g>
	<ellipse cx="92.33" cy="68.8" rx="2.06" ry="4.31"/>
	<ellipse cx="109.45" cy="69.04" rx="2.06" ry="4.31"/>
	<g>
		<path d="M100.93,85.79c-4,0-7.26-3.26-7.26-7.26c0-0.48,0.39-0.86,0.86-0.86s0.86,0.39,0.86,0.86c0,3.05,2.48,5.53,5.53,5.53
			c3.05,0,5.53-2.48,5.53-5.53c0-0.48,0.39-0.86,0.86-0.86s0.86,0.39,0.86,0.86C108.2,82.54,104.94,85.79,100.93,85.79z"/>
	</g>
	<g>
		<path d="M108.95,54.08c-0.05,0-0.1,0-0.15-0.01c-0.47-0.08-0.78-0.53-0.7-1c1.28-7.15,5.27-15.12,12.66-16.05
			c0.47-0.06,0.91,0.27,0.97,0.75c0.06,0.47-0.28,0.91-0.75,0.97c-6.45,0.82-10,8.1-11.17,14.64
			C109.72,53.79,109.36,54.08,108.95,54.08z"/>
	</g>
	<g>
		<path d="M93.61,54.14c-0.41,0-0.77-0.29-0.85-0.71c-1.17-6.54-4.72-13.82-11.17-14.64c-0.47-0.06-0.81-0.49-0.75-0.97
			c0.06-0.47,0.5-0.8,0.97-0.75c7.38,0.94,11.38,8.91,12.65,16.05c0.08,0.47-0.23,0.92-0.7,1C93.71,54.13,93.66,54.14,93.61,54.14z"
			/>
	</g>
	<g>
		<path class="st4" d="M96.17,99.65c0.16-0.79,0.44-1.42,0.86-1.88c0.42-0.46,0.89-0.78,1.44-0.95c0.54-0.17,1.12-0.21,1.74-0.13
			c0.62,0.08,1.2,0.28,1.76,0.58c0.55,0.3,1.04,0.69,1.45,1.16c0.42,0.48,0.71,1.02,0.88,1.62c0.17,0.61,0.17,1.26,0,1.96
			c-0.17,0.7-0.55,1.43-1.15,2.17c0.47,0.17,0.9,0.34,1.31,0.51c0.4,0.17,0.75,0.38,1.03,0.62c0.28,0.25,0.5,0.55,0.65,0.9
			c0.16,0.35,0.23,0.79,0.23,1.31c0,0.43-0.08,0.89-0.23,1.37c-0.16,0.48-0.37,0.96-0.65,1.43c-0.28,0.47-0.61,0.91-0.98,1.34
			c-0.37,0.42-0.77,0.8-1.2,1.12c-0.43,0.33-0.87,0.58-1.32,0.77c-0.45,0.19-0.89,0.28-1.32,0.28c-0.29,0-0.57-0.18-0.84-0.55
			c-0.27-0.36-0.54-0.85-0.8-1.44c-0.26-0.6-0.51-1.29-0.76-2.07c-0.25-0.78-0.48-1.59-0.68-2.43c-0.21-0.84-0.4-1.67-0.57-2.5
			c-0.17-0.83-0.32-1.59-0.44-2.29c-0.12-0.7-0.22-1.31-0.29-1.83C96.21,100.21,96.17,99.85,96.17,99.65z M98.4,101.47
			c0,0.23-0.01,0.52-0.02,0.87c-0.01,0.35-0.01,0.7,0,1.06c0.01,0.36,0.05,0.73,0.12,1.09c0.07,0.36,0.18,0.68,0.35,0.94
			c0.64-0.12,1.19-0.34,1.67-0.66c0.48-0.33,0.86-0.71,1.15-1.14c0.29-0.44,0.5-0.9,0.63-1.4c0.13-0.49,0.18-0.98,0.15-1.44
			c-0.03-0.47-0.14-0.9-0.33-1.29c-0.19-0.39-0.45-0.69-0.79-0.91c-0.34-0.21-0.75-0.32-1.23-0.32c-0.48,0-1.03,0.16-1.66,0.47
			c0,0.1,0,0.29-0.01,0.55c-0.01,0.26-0.01,0.53-0.02,0.82c-0.01,0.29-0.01,0.56-0.01,0.82C98.4,101.18,98.4,101.37,98.4,101.47z
			 M99.65,108.11c0,0.22,0.05,0.51,0.16,0.88c0.1,0.36,0.24,0.73,0.4,1.09c0.16,0.36,0.34,0.7,0.54,1.01
			c0.2,0.31,0.4,0.51,0.62,0.62c0.18,0.1,0.4,0.09,0.64-0.03c0.25-0.12,0.5-0.32,0.75-0.59c0.25-0.27,0.5-0.57,0.73-0.92
			c0.23-0.34,0.45-0.69,0.63-1.03c0.19-0.34,0.34-0.65,0.45-0.95c0.11-0.29,0.17-0.52,0.17-0.67c0-0.34-0.05-0.62-0.14-0.83
			c-0.09-0.21-0.22-0.39-0.4-0.52c-0.18-0.13-0.38-0.22-0.62-0.27c-0.24-0.05-0.5-0.08-0.79-0.08c-0.33,0-0.67,0.05-1.03,0.16
			c-0.36,0.1-0.7,0.25-1.01,0.45c-0.31,0.2-0.57,0.44-0.78,0.72C99.76,107.44,99.65,107.76,99.65,108.11z"/>
	</g>
	<circle class="st16" cx="49.9" cy="105.45" r="18.75"/>
	<circle class="st16" cx="139.98" cy="125.23" r="15.44"/>
	<circle class="st16" cx="69.39" cy="149.94" r="15.44"/>
</g>
</svg>
