<?xml version="1.0" encoding="utf-8"?>
<!-- Generator: Adobe Illustrator 23.0.1, SVG Export Plug-In . SVG Version: 6.00 Build 0)  -->
<svg version="1.1" xmlns="http://www.w3.org/2000/svg" xmlns:xlink="http://www.w3.org/1999/xlink" x="0px" y="0px"
	 viewBox="0 0 200 200" style="enable-background:new 0 0 200 200;" xml:space="preserve">
<style type="text/css">
	.st0{display:none;}
	.st1{display:inline;fill:#E52929;}
	.st2{display:inline;}
	.st3{fill:#FFCD32;}
	.st4{fill:#FFFFFF;stroke:#FFFFFF;stroke-miterlimit:10;}
	.st5{display:inline;opacity:0.7;fill:#FFCD32;}
	.st6{display:inline;fill:#FFCD32;}
	.st7{clip-path:url(#SVGID_2_);fill:#EF7E1B;}
	.st8{fill:#E52929;}
	.st9{fill:#F19698;}
	.st10{display:inline;fill:#FFFFFF;}
	.st11{fill:#E42B2A;}
	.st12{fill:#41BDE4;}
	.st13{opacity:0.7;fill:#FFCD32;}
</style>
<g id="Calque_1" class="st0">
	<path class="st1" d="M112.25,80.15c0,0,67.02-45.67,75.19-19.67S112.25,80.15,112.25,80.15z"/>
	<path class="st1" d="M89.21,79.99c0,0-67.02-45.67-75.19-19.67S89.21,79.99,89.21,79.99z"/>
	<path class="st1" d="M113.03,80.81c0,0,39.61-70.77,58.52-51.14S113.03,80.81,113.03,80.81z"/>
	<path class="st1" d="M88.35,79.89c0,0-39.61-70.77-58.52-51.14S88.35,79.89,88.35,79.89z"/>
	<path class="st1" d="M101.06,177.86c0,0-51.14-2.16-75.27-13.68c11.34-6.3,19.27-80.85,21.79-88.05l107.09,0.07
		c2.52,7.2,10.44,81.75,21.79,88.05C161.02,173.36,117.44,177.86,101.06,177.86z"/>
	<g class="st2">
		<path class="st3" d="M154.06,128.35c2.85-7.15,4.66-14.97,5.18-23.21c-13.24,6.95-34.34,11.44-58.12,11.44
			c-23.52,0-44.43-4.4-57.69-11.22c0.54,8.2,2.36,15.99,5.21,23.11c13.22,3.89,31.86,6.31,52.51,6.31
			C122.02,134.78,140.83,132.31,154.06,128.35z"/>
		<path class="st3" d="M58.02,144.97c10.63,13.78,26.09,22.45,43.31,22.45c17.25,0,32.73-8.71,43.37-22.53
			c-12.14,4.53-27.24,7.71-43.61,7.71C84.96,152.59,70.07,149.45,58.02,144.97z"/>
		<path class="st3" d="M157.08,81.29c-7.04-27.95-29.34-48.38-55.75-48.38c-26.45,0-48.77,20.48-55.78,48.5
			c13.31,6.24,33.29,10.21,55.64,10.21C123.67,91.62,143.76,87.6,157.08,81.29z"/>
		<path d="M43.43,105.36c-0.11-1.71-0.17-3.45-0.17-5.2c0-6.51,0.8-12.8,2.29-18.75"/>
		<path d="M157.08,81.29c1.51,5.99,2.32,12.32,2.32,18.88c0,1.67-0.05,3.33-0.16,4.97"/>
		<path d="M159.24,105.14c0.1-1.64,0.16-3.3,0.16-4.97c0-6.55-0.81-12.89-2.32-18.88c-13.31,6.31-33.41,10.33-55.89,10.33
			c-22.34,0-42.32-3.97-55.64-10.21c-1.49,5.95-2.29,12.25-2.29,18.75c0,1.75,0.06,3.48,0.17,5.2
			c13.26,6.82,34.17,11.22,57.69,11.22C124.9,116.58,146,112.09,159.24,105.14z"/>
		<path d="M154.06,128.35c-2.42,6.05-5.58,11.62-9.37,16.54"/>
		<path d="M58.02,144.97c-3.79-4.91-6.96-10.46-9.38-16.5"/>
		<path d="M101.15,134.78c-20.66,0-39.3-2.42-52.51-6.31c2.42,6.04,5.6,11.59,9.38,16.5c12.05,4.49,26.94,7.63,43.07,7.63
			c16.37,0,31.47-3.18,43.61-7.71c3.78-4.92,6.95-10.48,9.37-16.54C140.83,132.31,122.02,134.78,101.15,134.78z"/>
	</g>
	<ellipse class="st2" cx="90.07" cy="59.44" rx="2.52" ry="5.28"/>
	<ellipse class="st2" cx="111.03" cy="59.74" rx="2.52" ry="5.28"/>
	<g class="st2">
		<path d="M100.61,80.25c-4.9,0-8.89-3.99-8.89-8.89c0-0.58,0.47-1.06,1.06-1.06c0.58,0,1.06,0.47,1.06,1.06
			c0,3.74,3.04,6.77,6.78,6.77c3.74,0,6.78-3.04,6.78-6.77c0-0.58,0.47-1.06,1.06-1.06c0.58,0,1.06,0.47,1.06,1.06
			C109.5,76.26,105.51,80.25,100.61,80.25z"/>
	</g>
	<g class="st2">
		<path d="M110.42,41.42c-0.06,0-0.12-0.01-0.19-0.02c-0.58-0.1-0.96-0.65-0.86-1.23c1.56-8.75,6.45-18.51,15.49-19.66
			c0.57-0.07,1.11,0.34,1.18,0.92c0.07,0.58-0.34,1.11-0.92,1.18c-7.9,1-12.25,9.92-13.68,17.93
			C111.37,41.06,110.92,41.42,110.42,41.42z"/>
	</g>
	<g class="st2">
		<path d="M91.63,41.49c-0.5,0-0.95-0.36-1.04-0.87c-1.43-8.01-5.77-16.93-13.68-17.93c-0.58-0.07-0.99-0.6-0.92-1.18
			c0.07-0.58,0.61-0.98,1.18-0.92c9.04,1.15,13.93,10.91,15.49,19.66c0.1,0.58-0.28,1.12-0.86,1.23
			C91.76,41.48,91.7,41.49,91.63,41.49z"/>
	</g>
	<g class="st2">
		<path class="st4" d="M94.78,97.22c0.19-0.97,0.54-1.74,1.05-2.31c0.51-0.57,1.1-0.95,1.76-1.16c0.66-0.21,1.37-0.26,2.13-0.16
			c0.76,0.1,1.47,0.34,2.15,0.71c0.68,0.37,1.27,0.84,1.78,1.42c0.51,0.58,0.87,1.24,1.08,1.98c0.21,0.74,0.21,1.54,0,2.4
			c-0.21,0.86-0.68,1.75-1.41,2.65c0.57,0.21,1.11,0.41,1.6,0.62c0.49,0.21,0.91,0.46,1.26,0.77c0.34,0.3,0.61,0.67,0.8,1.1
			c0.19,0.43,0.29,0.96,0.29,1.6c0,0.53-0.1,1.08-0.29,1.67c-0.19,0.59-0.46,1.17-0.8,1.75c-0.34,0.57-0.74,1.12-1.2,1.64
			c-0.45,0.52-0.94,0.98-1.47,1.37c-0.53,0.4-1.06,0.71-1.61,0.94c-0.55,0.23-1.09,0.35-1.61,0.35c-0.35,0-0.69-0.22-1.03-0.67
			c-0.33-0.45-0.66-1.04-0.98-1.77c-0.32-0.73-0.63-1.58-0.93-2.53c-0.3-0.96-0.58-1.95-0.84-2.98c-0.26-1.03-0.49-2.05-0.69-3.06
			c-0.21-1.01-0.39-1.95-0.54-2.81c-0.15-0.86-0.27-1.61-0.36-2.24C94.82,97.89,94.78,97.46,94.78,97.22z M97.5,99.44
			c0,0.29-0.01,0.64-0.02,1.06c-0.02,0.42-0.02,0.86,0,1.3c0.02,0.45,0.06,0.89,0.14,1.34c0.08,0.45,0.22,0.83,0.43,1.15
			c0.78-0.14,1.46-0.41,2.04-0.81c0.58-0.4,1.05-0.86,1.41-1.4c0.36-0.53,0.62-1.1,0.78-1.71c0.16-0.61,0.22-1.2,0.18-1.77
			c-0.04-0.57-0.18-1.1-0.41-1.58c-0.23-0.48-0.55-0.85-0.97-1.11c-0.41-0.26-0.92-0.39-1.51-0.39c-0.59,0-1.27,0.19-2.03,0.57
			c0,0.13,0,0.35-0.01,0.67c-0.01,0.32-0.02,0.65-0.02,1c-0.01,0.35-0.01,0.69-0.01,1C97.5,99.09,97.5,99.31,97.5,99.44z
			 M99.03,107.57c0,0.27,0.06,0.63,0.19,1.08c0.13,0.45,0.29,0.89,0.49,1.34c0.2,0.45,0.42,0.86,0.66,1.23
			c0.24,0.37,0.49,0.63,0.77,0.75c0.22,0.13,0.49,0.12,0.79-0.04c0.3-0.15,0.61-0.39,0.92-0.72c0.31-0.33,0.61-0.7,0.9-1.12
			c0.29-0.42,0.55-0.84,0.78-1.26c0.23-0.41,0.41-0.8,0.55-1.16c0.14-0.36,0.2-0.63,0.2-0.82c0-0.41-0.06-0.75-0.17-1.02
			c-0.11-0.26-0.27-0.47-0.49-0.63c-0.22-0.16-0.47-0.27-0.77-0.33c-0.3-0.06-0.62-0.1-0.97-0.1c-0.4,0-0.82,0.06-1.27,0.19
			c-0.45,0.13-0.86,0.31-1.23,0.55c-0.37,0.24-0.69,0.53-0.96,0.88C99.16,106.75,99.03,107.14,99.03,107.57z"/>
	</g>
	<circle class="st5" cx="38.12" cy="104.31" r="22.96"/>
	<circle class="st5" cx="148.41" cy="128.53" r="18.91"/>
	<circle class="st5" cx="61.98" cy="158.78" r="18.91"/>
</g>
<g id="Calque_2" class="st0">
	<circle class="st6" cx="100.45" cy="100.27" r="98.54"/>
	<g class="st2">
		<defs>
			<circle id="SVGID_1_" cx="100.46" cy="100.29" r="98.54"/>
		</defs>
		<clipPath id="SVGID_2_">
			<use xlink:href="#SVGID_1_"  style="overflow:visible;"/>
		</clipPath>
		<polygon class="st7" points="20.57,-7.65 5.87,-7.65 -1.48,5.07 5.87,17.8 20.57,17.8 27.91,5.07 		"/>
		<polygon class="st7" points="20.57,21.44 5.87,21.44 -1.48,34.17 5.87,46.9 20.57,46.9 27.91,34.17 		"/>
		<polygon class="st7" points="20.57,21.44 5.87,21.44 -1.48,34.17 5.87,46.9 20.57,46.9 27.91,34.17 		"/>
		<polygon class="st7" points="20.57,50.54 5.87,50.54 -1.48,63.27 5.87,75.99 20.57,75.99 27.91,63.27 		"/>
		<polygon class="st7" points="20.57,50.54 5.87,50.54 -1.48,63.27 5.87,75.99 20.57,75.99 27.91,63.27 		"/>
		<polygon class="st7" points="20.57,79.64 5.87,79.64 -1.48,92.36 5.87,105.09 20.57,105.09 27.91,92.36 		"/>
		<polygon class="st7" points="20.57,79.64 5.87,79.64 -1.48,92.36 5.87,105.09 20.57,105.09 27.91,92.36 		"/>
		<polygon class="st7" points="20.57,108.73 5.87,108.73 -1.48,121.46 5.87,134.18 20.57,134.18 27.91,121.46 		"/>
		<polygon class="st7" points="20.57,108.73 5.87,108.73 -1.48,121.46 5.87,134.18 20.57,134.18 27.91,121.46 		"/>
		<polygon class="st7" points="20.57,137.83 5.87,137.83 -1.48,150.55 5.87,163.28 20.57,163.28 27.91,150.55 		"/>
		<polygon class="st7" points="20.57,137.83 5.87,137.83 -1.48,150.55 5.87,163.28 20.57,163.28 27.91,150.55 		"/>
		<polygon class="st7" points="20.57,166.92 5.87,166.92 -1.48,179.65 5.87,192.37 20.57,192.37 27.91,179.65 		"/>
		<polygon class="st7" points="45.09,7.02 30.4,7.02 23.05,19.75 30.4,32.48 45.09,32.48 52.44,19.75 		"/>
		<polygon class="st7" points="45.09,36.12 30.4,36.12 23.05,48.85 30.4,61.57 45.09,61.57 52.44,48.85 		"/>
		<polygon class="st7" points="45.09,36.12 30.4,36.12 23.05,48.85 30.4,61.57 45.09,61.57 52.44,48.85 		"/>
		<polygon class="st7" points="45.09,65.22 30.4,65.22 23.05,77.94 30.4,90.67 45.09,90.67 52.44,77.94 		"/>
		<polygon class="st7" points="45.09,65.22 30.4,65.22 23.05,77.94 30.4,90.67 45.09,90.67 52.44,77.94 		"/>
		<polygon class="st7" points="45.09,94.31 30.4,94.31 23.05,107.04 30.4,119.76 45.09,119.76 52.44,107.04 		"/>
		<polygon class="st7" points="45.09,94.31 30.4,94.31 23.05,107.04 30.4,119.76 45.09,119.76 52.44,107.04 		"/>
		<polygon class="st7" points="45.09,123.41 30.4,123.41 23.05,136.13 30.4,148.86 45.09,148.86 52.44,136.13 		"/>
		<polygon class="st7" points="45.09,123.41 30.4,123.41 23.05,136.13 30.4,148.86 45.09,148.86 52.44,136.13 		"/>
		<polygon class="st7" points="45.09,152.5 30.4,152.5 23.05,165.23 30.4,177.95 45.09,177.95 52.44,165.23 		"/>
		<polygon class="st7" points="45.09,152.5 30.4,152.5 23.05,165.23 30.4,177.95 45.09,177.95 52.44,165.23 		"/>
		<polygon class="st7" points="45.09,181.6 30.4,181.6 23.05,194.32 30.4,207.05 45.09,207.05 52.44,194.32 		"/>
		<polygon class="st7" points="70.03,-7.65 55.33,-7.65 47.99,5.07 55.33,17.8 70.03,17.8 77.38,5.07 		"/>
		<polygon class="st7" points="70.03,21.44 55.33,21.44 47.99,34.17 55.33,46.9 70.03,46.9 77.38,34.17 		"/>
		<polygon class="st7" points="70.03,21.44 55.33,21.44 47.99,34.17 55.33,46.9 70.03,46.9 77.38,34.17 		"/>
		<polygon class="st7" points="70.03,50.54 55.33,50.54 47.99,63.27 55.33,75.99 70.03,75.99 77.38,63.27 		"/>
		<polygon class="st7" points="70.03,50.54 55.33,50.54 47.99,63.27 55.33,75.99 70.03,75.99 77.38,63.27 		"/>
		<polygon class="st7" points="70.03,79.64 55.33,79.64 47.99,92.36 55.33,105.09 70.03,105.09 77.38,92.36 		"/>
		<polygon class="st7" points="70.03,79.64 55.33,79.64 47.99,92.36 55.33,105.09 70.03,105.09 77.38,92.36 		"/>
		<polygon class="st7" points="70.03,108.73 55.33,108.73 47.99,121.46 55.33,134.18 70.03,134.18 77.38,121.46 		"/>
		<polygon class="st7" points="70.03,108.73 55.33,108.73 47.99,121.46 55.33,134.18 70.03,134.18 77.38,121.46 		"/>
		<polygon class="st7" points="70.03,137.83 55.33,137.83 47.99,150.55 55.33,163.28 70.03,163.28 77.38,150.55 		"/>
		<polygon class="st7" points="70.03,137.83 55.33,137.83 47.99,150.55 55.33,163.28 70.03,163.28 77.38,150.55 		"/>
		<polygon class="st7" points="70.03,166.92 55.33,166.92 47.99,179.65 55.33,192.37 70.03,192.37 77.38,179.65 		"/>
		<polygon class="st7" points="94.56,7.02 79.86,7.02 72.52,19.75 79.86,32.48 94.56,32.48 101.9,19.75 		"/>
		<polygon class="st7" points="94.56,36.12 79.86,36.12 72.52,48.85 79.86,61.57 94.56,61.57 101.9,48.85 		"/>
		<polygon class="st7" points="94.56,36.12 79.86,36.12 72.52,48.85 79.86,61.57 94.56,61.57 101.9,48.85 		"/>
		<polygon class="st7" points="94.56,65.22 79.86,65.22 72.52,77.94 79.86,90.67 94.56,90.67 101.9,77.94 		"/>
		<polygon class="st7" points="94.56,65.22 79.86,65.22 72.52,77.94 79.86,90.67 94.56,90.67 101.9,77.94 		"/>
		<polygon class="st7" points="94.56,94.31 79.86,94.31 72.52,107.04 79.86,119.76 94.56,119.76 101.9,107.04 		"/>
		<polygon class="st7" points="94.56,94.31 79.86,94.31 72.52,107.04 79.86,119.76 94.56,119.76 101.9,107.04 		"/>
		<polygon class="st7" points="94.56,123.41 79.86,123.41 72.52,136.13 79.86,148.86 94.56,148.86 101.9,136.13 		"/>
		<polygon class="st7" points="94.56,123.41 79.86,123.41 72.52,136.13 79.86,148.86 94.56,148.86 101.9,136.13 		"/>
		<polygon class="st7" points="94.56,152.5 79.86,152.5 72.52,165.23 79.86,177.95 94.56,177.95 101.9,165.23 		"/>
		<polygon class="st7" points="94.56,152.5 79.86,152.5 72.52,165.23 79.86,177.95 94.56,177.95 101.9,165.23 		"/>
		<polygon class="st7" points="94.56,181.6 79.86,181.6 72.52,194.32 79.86,207.05 94.56,207.05 101.9,194.32 		"/>
		<polygon class="st7" points="119.49,-7.65 104.8,-7.65 97.45,5.07 104.8,17.8 119.49,17.8 126.84,5.07 		"/>
		<polygon class="st7" points="119.49,21.44 104.8,21.44 97.45,34.17 104.8,46.9 119.49,46.9 126.84,34.17 		"/>
		<polygon class="st7" points="119.49,21.44 104.8,21.44 97.45,34.17 104.8,46.9 119.49,46.9 126.84,34.17 		"/>
		<polygon class="st7" points="119.49,50.54 104.8,50.54 97.45,63.27 104.8,75.99 119.49,75.99 126.84,63.27 		"/>
		<polygon class="st7" points="119.49,50.54 104.8,50.54 97.45,63.27 104.8,75.99 119.49,75.99 126.84,63.27 		"/>
		<polygon class="st7" points="119.49,79.64 104.8,79.64 97.45,92.36 104.8,105.09 119.49,105.09 126.84,92.36 		"/>
		<polygon class="st7" points="119.49,79.64 104.8,79.64 97.45,92.36 104.8,105.09 119.49,105.09 126.84,92.36 		"/>
		<polygon class="st7" points="119.49,108.73 104.8,108.73 97.45,121.46 104.8,134.18 119.49,134.18 126.84,121.46 		"/>
		<polygon class="st7" points="119.49,108.73 104.8,108.73 97.45,121.46 104.8,134.18 119.49,134.18 126.84,121.46 		"/>
		<polygon class="st7" points="119.49,137.83 104.8,137.83 97.45,150.55 104.8,163.28 119.49,163.28 126.84,150.55 		"/>
		<polygon class="st7" points="119.49,137.83 104.8,137.83 97.45,150.55 104.8,163.28 119.49,163.28 126.84,150.55 		"/>
		<polygon class="st7" points="119.49,166.92 104.8,166.92 97.45,179.65 104.8,192.37 119.49,192.37 126.84,179.65 		"/>
		<polygon class="st7" points="144.02,7.02 129.33,7.02 121.98,19.75 129.33,32.48 144.02,32.48 151.37,19.75 		"/>
		<polygon class="st7" points="144.02,36.12 129.33,36.12 121.98,48.85 129.33,61.57 144.02,61.57 151.37,48.85 		"/>
		<polygon class="st7" points="144.02,36.12 129.33,36.12 121.98,48.85 129.33,61.57 144.02,61.57 151.37,48.85 		"/>
		<polygon class="st7" points="144.02,65.22 129.33,65.22 121.98,77.94 129.33,90.67 144.02,90.67 151.37,77.94 		"/>
		<polygon class="st7" points="144.02,65.22 129.33,65.22 121.98,77.94 129.33,90.67 144.02,90.67 151.37,77.94 		"/>
		<polygon class="st7" points="144.02,94.31 129.33,94.31 121.98,107.04 129.33,119.76 144.02,119.76 151.37,107.04 		"/>
		<polygon class="st7" points="144.02,94.31 129.33,94.31 121.98,107.04 129.33,119.76 144.02,119.76 151.37,107.04 		"/>
		<polygon class="st7" points="144.02,123.41 129.33,123.41 121.98,136.13 129.33,148.86 144.02,148.86 151.37,136.13 		"/>
		<polygon class="st7" points="144.02,123.41 129.33,123.41 121.98,136.13 129.33,148.86 144.02,148.86 151.37,136.13 		"/>
		<polygon class="st7" points="144.02,152.5 129.33,152.5 121.98,165.23 129.33,177.95 144.02,177.95 151.37,165.23 		"/>
		<polygon class="st7" points="144.02,152.5 129.33,152.5 121.98,165.23 129.33,177.95 144.02,177.95 151.37,165.23 		"/>
		<polygon class="st7" points="144.02,181.6 129.33,181.6 121.98,194.32 129.33,207.05 144.02,207.05 151.37,194.32 		"/>
		<polygon class="st7" points="168.95,-7.65 154.26,-7.65 146.91,5.07 154.26,17.8 168.95,17.8 176.3,5.07 		"/>
		<polygon class="st7" points="168.95,21.44 154.26,21.44 146.91,34.17 154.26,46.9 168.95,46.9 176.3,34.17 		"/>
		<polygon class="st7" points="168.95,21.44 154.26,21.44 146.91,34.17 154.26,46.9 168.95,46.9 176.3,34.17 		"/>
		<polygon class="st7" points="168.95,50.54 154.26,50.54 146.91,63.27 154.26,75.99 168.95,75.99 176.3,63.27 		"/>
		<polygon class="st7" points="168.95,50.54 154.26,50.54 146.91,63.27 154.26,75.99 168.95,75.99 176.3,63.27 		"/>
		<polygon class="st7" points="168.95,79.64 154.26,79.64 146.91,92.36 154.26,105.09 168.95,105.09 176.3,92.36 		"/>
		<polygon class="st7" points="168.95,79.64 154.26,79.64 146.91,92.36 154.26,105.09 168.95,105.09 176.3,92.36 		"/>
		<polygon class="st7" points="168.95,108.73 154.26,108.73 146.91,121.46 154.26,134.18 168.95,134.18 176.3,121.46 		"/>
		<polygon class="st7" points="168.95,108.73 154.26,108.73 146.91,121.46 154.26,134.18 168.95,134.18 176.3,121.46 		"/>
		<polygon class="st7" points="168.95,137.83 154.26,137.83 146.91,150.55 154.26,163.28 168.95,163.28 176.3,150.55 		"/>
		<polygon class="st7" points="168.95,137.83 154.26,137.83 146.91,150.55 154.26,163.28 168.95,163.28 176.3,150.55 		"/>
		<polygon class="st7" points="168.95,166.92 154.26,166.92 146.91,179.65 154.26,192.37 168.95,192.37 176.3,179.65 		"/>
		<polygon class="st7" points="193.48,7.02 178.79,7.02 171.44,19.75 178.79,32.48 193.48,32.48 200.83,19.75 		"/>
		<polygon class="st7" points="193.48,36.12 178.79,36.12 171.44,48.85 178.79,61.57 193.48,61.57 200.83,48.85 		"/>
		<polygon class="st7" points="193.48,36.12 178.79,36.12 171.44,48.85 178.79,61.57 193.48,61.57 200.83,48.85 		"/>
		<polygon class="st7" points="193.48,65.22 178.79,65.22 171.44,77.94 178.79,90.67 193.48,90.67 200.83,77.94 		"/>
		<polygon class="st7" points="193.48,65.22 178.79,65.22 171.44,77.94 178.79,90.67 193.48,90.67 200.83,77.94 		"/>
		<polygon class="st7" points="193.48,94.31 178.79,94.31 171.44,107.04 178.79,119.76 193.48,119.76 200.83,107.04 		"/>
		<polygon class="st7" points="193.48,94.31 178.79,94.31 171.44,107.04 178.79,119.76 193.48,119.76 200.83,107.04 		"/>
		<polygon class="st7" points="193.48,123.41 178.79,123.41 171.44,136.13 178.79,148.86 193.48,148.86 200.83,136.13 		"/>
		<polygon class="st7" points="193.48,123.41 178.79,123.41 171.44,136.13 178.79,148.86 193.48,148.86 200.83,136.13 		"/>
		<polygon class="st7" points="193.48,152.5 178.79,152.5 171.44,165.23 178.79,177.95 193.48,177.95 200.83,165.23 		"/>
		<polygon class="st7" points="193.48,152.5 178.79,152.5 171.44,165.23 178.79,177.95 193.48,177.95 200.83,165.23 		"/>
		<polygon class="st7" points="193.48,181.6 178.79,181.6 171.44,194.32 178.79,207.05 193.48,207.05 200.83,194.32 		"/>
	</g>
	<g class="st2">
		<path class="st8" d="M122.32,100.98c0,0-20.84,34.02-34.22,34.72c10.64,11.22,36.39,21.77,36.39,21.77L122.32,100.98z"/>
		<g>
			<path class="st3" d="M161.52,162.97c3.52-2.68,6.71-6.01,9.4-9.92c-8.58-0.48-20.31-4.49-32.04-11.5
				c-11.6-6.94-20.62-15.28-25.15-22.55c-2.15,4.21-3.56,8.58-4.25,12.94c5.37,5.82,13.85,12.51,24.04,18.6
				C143.82,156.68,153.82,161.01,161.52,162.97z"/>
			<path class="st3" d="M109.24,142.83c1.18,9.93,6.25,18.77,14.74,23.85c8.51,5.09,18.71,5.36,28.04,1.68
				c-7.32-1.35-15.71-4.23-23.78-9.06C120.28,154.54,113.86,148.6,109.24,142.83z"/>
			<path class="st3" d="M176.89,140.64c4.77-15.87-0.2-32.52-13.23-40.31c-13.05-7.8-30.1-4.28-41.82,7.47
				c4.72,7.01,13.41,14.86,24.43,21.45C157.36,135.88,168.46,139.83,176.89,140.64z"/>
			<path d="M113.73,118.99c0.45-0.88,0.93-1.75,1.45-2.61c1.92-3.21,4.17-6.08,6.66-8.57"/>
			<path d="M176.89,140.64c-1.02,3.4-2.49,6.76-4.42,10c-0.49,0.83-1.01,1.63-1.55,2.41"/>
			<path d="M170.92,153.04c0.54-0.78,1.05-1.58,1.55-2.41c1.93-3.23,3.4-6.6,4.42-10c-8.43-0.81-19.53-4.76-30.62-11.39
				c-11.02-6.59-19.71-14.44-24.43-21.45c-2.49,2.5-4.74,5.36-6.66,8.57c-0.52,0.86-1,1.73-1.45,2.61
				c4.53,7.28,13.54,15.61,25.15,22.55C150.6,148.56,162.34,152.57,170.92,153.04z"/>
			<path d="M161.52,162.97c-2.98,2.27-6.18,4.08-9.5,5.39"/>
			<path d="M109.24,142.83c-0.42-3.54-0.35-7.21,0.24-10.9"/>
			<path d="M133.52,150.53c-10.19-6.09-18.67-12.79-24.04-18.6c-0.59,3.69-0.66,7.37-0.24,10.9c4.62,5.77,11.04,11.71,18.99,16.47
				c8.07,4.83,16.46,7.71,23.78,9.06c3.32-1.31,6.52-3.12,9.5-5.39C153.82,161.01,143.82,156.68,133.52,150.53z"/>
		</g>
		<ellipse transform="matrix(0.2901 -0.957 0.957 0.2901 2.9711 237.1382)" cx="161.33" cy="116.57" rx="3.04" ry="1.45"/>
		<g>
			<path d="M160.51,131.46c-2.63-1.01-3.94-3.98-2.93-6.6c0.12-0.31,0.47-0.47,0.79-0.35c0.31,0.12,0.47,0.47,0.35,0.79
				c-0.77,2,0.23,4.26,2.23,5.03s4.26-0.23,5.03-2.23c0.12-0.31,0.47-0.47,0.79-0.35c0.31,0.12,0.47,0.47,0.35,0.79
				C166.1,131.16,163.14,132.47,160.51,131.46z"/>
		</g>
		<g>
			<path d="M170.59,110.22c-0.03-0.01-0.07-0.03-0.1-0.04c-0.29-0.17-0.4-0.54-0.23-0.83c2.52-4.45,7.03-8.8,12.15-7.7
				c0.32,0.07,0.54,0.39,0.47,0.72c-0.07,0.33-0.39,0.54-0.72,0.47c-4.48-0.96-8.53,3.04-10.83,7.11
				C171.17,110.2,170.86,110.31,170.59,110.22z"/>
		</g>
		<g>
			<path d="M165.71,108.64c-0.27-0.1-0.44-0.39-0.38-0.68c0.86-4.6,0.35-10.27-3.7-12.42c-0.3-0.16-0.41-0.53-0.25-0.82
				c0.16-0.3,0.53-0.41,0.82-0.25c4.62,2.46,5.26,8.7,4.32,13.72c-0.06,0.33-0.38,0.55-0.71,0.49
				C165.78,108.66,165.74,108.65,165.71,108.64z"/>
		</g>
		<ellipse transform="matrix(0.2901 -0.957 0.957 0.2901 4.7535 247.3464)" cx="169.1" cy="120.47" rx="3.04" ry="1.45"/>
		<path class="st8" d="M135.67,106.64c0,0-44.99-12.16-44.53,3.49S135.67,106.64,135.67,106.64z"/>
		<path class="st8" d="M135.19,106.75c0,0-34.84-30.96-41.41-16.74C87.21,104.23,135.19,106.75,135.19,106.75z"/>
		<g>
			<path class="st4" d="M155.25,137.02c0.46-0.34,0.9-0.53,1.34-0.58c0.44-0.04,0.83,0.02,1.2,0.18c0.36,0.17,0.68,0.42,0.97,0.75
				c0.28,0.34,0.5,0.71,0.65,1.13c0.15,0.42,0.22,0.85,0.21,1.29c-0.01,0.44-0.11,0.86-0.31,1.26c-0.2,0.4-0.51,0.74-0.93,1.02
				c-0.42,0.29-0.96,0.48-1.62,0.59c0.16,0.31,0.31,0.6,0.44,0.88c0.13,0.28,0.21,0.55,0.24,0.81c0.03,0.26,0,0.52-0.08,0.78
				c-0.08,0.26-0.25,0.52-0.49,0.79c-0.2,0.22-0.46,0.43-0.77,0.6c-0.31,0.18-0.65,0.32-1.01,0.44c-0.37,0.11-0.75,0.19-1.14,0.24
				c-0.39,0.05-0.78,0.05-1.16,0.02c-0.38-0.03-0.73-0.11-1.05-0.22c-0.32-0.11-0.6-0.27-0.82-0.47c-0.15-0.14-0.21-0.36-0.18-0.68
				c0.03-0.32,0.12-0.7,0.26-1.13c0.15-0.44,0.34-0.92,0.58-1.44c0.24-0.52,0.5-1.06,0.79-1.59c0.29-0.54,0.58-1.06,0.88-1.57
				c0.3-0.51,0.59-0.98,0.85-1.41c0.27-0.43,0.5-0.79,0.71-1.09C155.01,137.32,155.16,137.12,155.25,137.02z M155.56,139.02
				c-0.11,0.12-0.25,0.27-0.42,0.44c-0.17,0.17-0.34,0.36-0.5,0.56c-0.17,0.2-0.32,0.41-0.45,0.63c-0.14,0.22-0.22,0.44-0.26,0.66
				c0.39,0.24,0.78,0.39,1.18,0.44c0.4,0.05,0.78,0.04,1.14-0.05c0.36-0.09,0.69-0.23,0.99-0.43c0.3-0.2,0.55-0.43,0.76-0.69
				c0.2-0.26,0.35-0.54,0.43-0.83c0.09-0.29,0.09-0.58,0.02-0.85c-0.08-0.27-0.24-0.52-0.49-0.75c-0.25-0.23-0.61-0.41-1.09-0.54
				c-0.05,0.05-0.14,0.15-0.26,0.28c-0.13,0.13-0.26,0.27-0.4,0.42c-0.14,0.15-0.27,0.29-0.39,0.42
				C155.69,138.87,155.61,138.96,155.56,139.02z M153.08,143.07c-0.1,0.12-0.22,0.29-0.33,0.53c-0.12,0.24-0.22,0.49-0.31,0.76
				c-0.09,0.27-0.15,0.53-0.19,0.78c-0.04,0.25-0.03,0.46,0.04,0.62c0.05,0.14,0.16,0.24,0.35,0.29c0.19,0.05,0.41,0.07,0.67,0.05
				c0.26-0.02,0.53-0.06,0.82-0.13c0.29-0.07,0.56-0.15,0.81-0.24c0.26-0.09,0.49-0.18,0.68-0.28c0.2-0.1,0.33-0.19,0.4-0.27
				c0.16-0.18,0.27-0.34,0.32-0.5c0.05-0.16,0.07-0.31,0.04-0.46c-0.03-0.15-0.1-0.3-0.2-0.44c-0.1-0.14-0.23-0.28-0.38-0.41
				c-0.17-0.15-0.37-0.29-0.61-0.41c-0.24-0.12-0.49-0.2-0.74-0.24c-0.25-0.04-0.5-0.04-0.75,0.01
				C153.45,142.77,153.25,142.89,153.08,143.07z"/>
		</g>
	</g>
	<g class="st2">
		<path class="st9" d="M64.73,74.76c0,0,28.71-19.56,32.21-8.42C100.44,77.48,64.73,74.76,64.73,74.76z"/>
		<path class="st9" d="M54.87,74.7c0,0-28.71-19.56-32.21-8.42S54.87,74.7,54.87,74.7z"/>
		<path class="st9" d="M65.07,75.05c0,0,16.97-30.31,25.07-21.9S65.07,75.05,65.07,75.05z"/>
		<path class="st9" d="M54.5,74.65c0,0-16.97-30.31-25.07-21.9S54.5,74.65,54.5,74.65z"/>
		<g>
			<path class="st3" d="M82.64,95.41c1.22-3.06,1.99-6.41,2.22-9.94c-5.67,2.98-14.71,4.9-24.9,4.9c-10.08,0-19.03-1.88-24.71-4.81
				c0.23,3.51,1.01,6.85,2.23,9.9c5.66,1.66,13.65,2.7,22.49,2.7C68.92,98.16,76.97,97.1,82.64,95.41z"/>
			<path class="st3" d="M41.5,102.53c4.55,5.9,11.18,9.62,18.55,9.62c7.39,0,14.02-3.73,18.58-9.65c-5.2,1.94-11.67,3.3-18.68,3.3
				C53.04,105.79,46.66,104.45,41.5,102.53z"/>
			<path class="st3" d="M83.93,75.25c-3.02-11.97-12.57-20.72-23.88-20.72c-11.33,0-20.89,8.77-23.89,20.77
				c5.7,2.67,14.26,4.37,23.83,4.37C69.62,79.68,78.23,77.96,83.93,75.25z"/>
			<path d="M35.25,85.56c-0.05-0.73-0.07-1.48-0.07-2.23c0-2.79,0.34-5.48,0.98-8.03"/>
			<path d="M83.93,75.25c0.65,2.57,0.99,5.28,0.99,8.09c0,0.72-0.02,1.43-0.07,2.13"/>
			<path d="M84.86,85.47c0.04-0.7,0.07-1.41,0.07-2.13c0-2.81-0.35-5.52-0.99-8.09c-5.7,2.7-14.31,4.43-23.94,4.43
				c-9.57,0-18.13-1.7-23.83-4.37c-0.64,2.55-0.98,5.25-0.98,8.03c0,0.75,0.02,1.49,0.07,2.23c5.68,2.92,14.63,4.81,24.71,4.81
				C70.15,90.37,79.19,88.44,84.86,85.47z"/>
			<path d="M82.64,95.41c-1.03,2.59-2.39,4.98-4.01,7.08"/>
			<path d="M41.5,102.53c-1.62-2.1-2.98-4.48-4.02-7.07"/>
			<path d="M59.98,98.16c-8.85,0-16.83-1.04-22.49-2.7c1.04,2.59,2.4,4.96,4.02,7.07c5.16,1.92,11.54,3.27,18.45,3.27
				c7.01,0,13.48-1.36,18.68-3.3c1.62-2.11,2.98-4.49,4.01-7.08C76.97,97.1,68.92,98.16,59.98,98.16z"/>
		</g>
		<ellipse cx="55.23" cy="65.89" rx="1.08" ry="2.26"/>
		<ellipse cx="64.21" cy="66.02" rx="1.08" ry="2.26"/>
		<g>
			<path d="M63.95,58.17c-0.03,0-0.05,0-0.08-0.01c-0.25-0.04-0.41-0.28-0.37-0.53c0.67-3.75,2.76-7.93,6.64-8.42
				c0.24-0.03,0.47,0.14,0.51,0.39c0.03,0.25-0.14,0.48-0.39,0.51c-3.38,0.43-5.25,4.25-5.86,7.68
				C64.36,58.02,64.16,58.17,63.95,58.17z"/>
		</g>
		<g>
			<path d="M55.9,58.2c-0.22,0-0.41-0.15-0.45-0.37c-0.61-3.43-2.47-7.25-5.86-7.68c-0.25-0.03-0.42-0.26-0.39-0.51
				c0.03-0.25,0.26-0.42,0.51-0.39c3.87,0.49,5.97,4.67,6.64,8.42c0.04,0.25-0.12,0.48-0.37,0.53C55.96,58.2,55.93,58.2,55.9,58.2z"
				/>
		</g>
		<g>
			<path d="M59.78,75.55c-2.15,0-3.9-1.75-3.9-3.9c0-0.25,0.2-0.45,0.45-0.45h6.88c0.25,0,0.45,0.2,0.45,0.45
				C63.68,73.8,61.93,75.55,59.78,75.55z M56.83,72.11c0.22,1.43,1.46,2.54,2.95,2.54c1.49,0,2.74-1.1,2.95-2.54H56.83z"/>
		</g>
		<circle class="st9" cx="66.47" cy="70.34" r="1.23"/>
		<circle class="st9" cx="53.18" cy="70.34" r="1.23"/>
	</g>
	<ellipse class="st10" cx="154.5" cy="24.94" rx="28.82" ry="18.92"/>
	<ellipse class="st10" cx="133.85" cy="62.2" rx="25.94" ry="17.03"/>
	<path class="st10" d="M109.74,61.3c-1.26,2.36-6.13,6.6-8.18,7.23c3.77,4.09,12.26,1.1,12.26,1.1L109.74,61.3z"/>
	<path class="st10" d="M158.48,39.13c2.83,2.99,13.05,23.43,5.82,38.21c8.81-5.82,8.49-27.99,4.25-37.58"/>
	<g class="st2">
		<path class="st11" d="M146.35,20.7c0-0.24-0.03-0.5-0.09-0.78c-0.06-0.28-0.12-0.57-0.19-0.87c-0.07-0.3-0.13-0.59-0.2-0.88
			c-0.06-0.29-0.1-0.57-0.1-0.83h-1.52c0-0.04,0-0.09,0-0.16s0.01-0.14,0.02-0.21c0.01-0.07,0.03-0.13,0.06-0.19
			c0.03-0.06,0.07-0.09,0.12-0.11h3.75c0,0.15-0.03,0.26-0.09,0.33c-0.05,0.08-0.13,0.14-0.21,0.18c-0.09,0.04-0.19,0.07-0.3,0.08
			c-0.11,0.01-0.22,0.02-0.33,0.04c-0.11,0.01-0.22,0.03-0.32,0.05c-0.1,0.02-0.19,0.06-0.27,0.12c-0.07,0.06-0.13,0.14-0.17,0.24
			c-0.04,0.1-0.05,0.24-0.03,0.41c0,0.1,0.01,0.22,0.02,0.38c0.01,0.16,0.04,0.33,0.07,0.51c0.03,0.18,0.07,0.36,0.12,0.55
			c0.05,0.18,0.11,0.35,0.19,0.5c0.07,0.15,0.16,0.28,0.26,0.37c0.1,0.09,0.21,0.14,0.34,0.14c0.09,0.01,0.21,0.01,0.35,0
			c0.14-0.01,0.29-0.01,0.43-0.02c0.15,0,0.28,0,0.41,0.01c0.13,0.01,0.22,0.04,0.28,0.08c0.06,0.05,0.07,0.11,0.04,0.2
			c-0.03,0.09-0.13,0.21-0.3,0.36c-0.29,0.11-0.59,0.18-0.88,0.22c-0.3,0.04-0.6,0.06-0.9,0.06c-0.3,0-0.6,0-0.9-0.01
			c-0.3-0.01-0.6-0.02-0.89-0.02c-0.17-0.2-0.27-0.36-0.3-0.47c-0.03-0.11-0.02-0.19,0.04-0.23c0.06-0.04,0.15-0.07,0.27-0.07
			c0.12,0,0.26,0,0.41,0.01c0.15,0.01,0.29,0.02,0.44,0.03C146.13,20.74,146.25,20.73,146.35,20.7z"/>
		<path class="st11" d="M149.56,17.12c0-0.01,0-0.03,0.01-0.06c0.01-0.03,0.02-0.06,0.04-0.09c0.02-0.03,0.03-0.06,0.05-0.09
			c0.02-0.03,0.03-0.05,0.04-0.05c0.01,0,0.02,0,0.03-0.01c0.01,0,0.02,0,0.02,0c0.01,0,0.01,0,0.02,0c0.09,0,0.16,0.03,0.23,0.09
			c0.07,0.06,0.12,0.13,0.17,0.22c0.05,0.09,0.08,0.18,0.1,0.27c0.02,0.09,0.03,0.17,0.03,0.24c0,0.05-0.01,0.11-0.02,0.19
			c-0.01,0.08-0.04,0.15-0.06,0.22c-0.03,0.07-0.07,0.13-0.12,0.18c-0.05,0.05-0.11,0.08-0.17,0.08c-0.08,0-0.14-0.05-0.18-0.15
			c-0.04-0.1-0.08-0.22-0.11-0.35c-0.03-0.13-0.05-0.27-0.06-0.4C149.57,17.27,149.56,17.17,149.56,17.12z"/>
		<path class="st11" d="M150.74,17.79c0-0.13-0.01-0.26-0.03-0.39c-0.02-0.12-0.02-0.24-0.01-0.33c0.01-0.1,0.04-0.18,0.11-0.24
			c0.06-0.06,0.17-0.09,0.34-0.09c0.05,0.1,0.1,0.26,0.15,0.48c0.05,0.21,0.09,0.46,0.14,0.74c0.05,0.28,0.09,0.58,0.13,0.9
			c0.04,0.32,0.08,0.65,0.11,0.98c0.03,0.33,0.06,0.65,0.09,0.96c0.02,0.32,0.04,0.6,0.06,0.86c-0.15,0.1-0.27,0.11-0.36,0.02
			c-0.09-0.09-0.17-0.23-0.22-0.44c-0.06-0.21-0.1-0.46-0.14-0.76c-0.03-0.3-0.06-0.61-0.09-0.93c-0.03-0.32-0.06-0.64-0.11-0.95
			C150.85,18.3,150.8,18.03,150.74,17.79z"/>
		<path class="st11" d="M152.33,17.79c0-0.13-0.01-0.26-0.03-0.39c-0.02-0.12-0.02-0.24-0.01-0.33c0.01-0.1,0.04-0.18,0.11-0.24
			c0.06-0.06,0.17-0.09,0.34-0.09c0.05,0.1,0.1,0.26,0.15,0.48c0.05,0.21,0.09,0.46,0.14,0.74c0.05,0.28,0.09,0.58,0.13,0.9
			c0.04,0.32,0.08,0.65,0.11,0.98c0.03,0.33,0.06,0.65,0.09,0.96c0.02,0.32,0.04,0.6,0.06,0.86c-0.15,0.1-0.27,0.11-0.36,0.02
			c-0.09-0.09-0.17-0.23-0.22-0.44c-0.06-0.21-0.1-0.46-0.14-0.76c-0.03-0.3-0.06-0.61-0.09-0.93c-0.03-0.32-0.06-0.64-0.11-0.95
			C152.45,18.3,152.39,18.03,152.33,17.79z"/>
		<path class="st11" d="M157.93,21.35c-0.14-0.41-0.27-0.79-0.4-1.15c-0.13-0.36-0.23-0.71-0.33-1.05
			c-0.09-0.34-0.17-0.69-0.22-1.05c-0.05-0.35-0.08-0.73-0.08-1.14c0-0.03,0-0.09,0-0.17c0-0.08,0-0.17,0-0.26c0-0.09,0-0.18,0-0.26
			c0-0.08,0-0.14,0-0.17c0.04-0.09,0.11-0.17,0.21-0.25c0.1-0.08,0.21-0.12,0.31-0.12c0,0.34,0,0.69,0.01,1.07
			c0.01,0.38,0.04,0.76,0.09,1.13c0.05,0.38,0.12,0.75,0.23,1.11c0.11,0.36,0.26,0.69,0.45,0.99c0-0.11,0.01-0.23,0.01-0.36
			c0-0.13,0.02-0.26,0.04-0.4c0.02-0.13,0.05-0.26,0.1-0.38c0.05-0.12,0.11-0.23,0.2-0.33c0.09-0.1,0.2-0.17,0.35-0.22
			c0.14-0.05,0.32-0.08,0.54-0.07c0.2,0,0.37,0.04,0.53,0.11c0.16,0.07,0.29,0.17,0.4,0.3c0.11,0.13,0.19,0.27,0.25,0.44
			c0.06,0.17,0.09,0.34,0.09,0.53c0,0.25-0.06,0.5-0.18,0.74c-0.12,0.24-0.29,0.46-0.49,0.65c-0.2,0.19-0.43,0.34-0.68,0.46
			c-0.25,0.12-0.5,0.17-0.76,0.17c-0.13,0-0.26-0.02-0.38-0.07C158.1,21.54,158.01,21.46,157.93,21.35z M159.55,18.86
			c-0.09,0.05-0.19,0.11-0.29,0.18c-0.1,0.07-0.19,0.17-0.28,0.32c-0.08,0.14-0.16,0.34-0.21,0.58c-0.06,0.25-0.1,0.57-0.11,0.97
			c0.01,0,0.03,0,0.07,0.01c0.04,0,0.06,0.01,0.08,0.01c0.12,0,0.26-0.04,0.42-0.12c0.16-0.08,0.31-0.17,0.46-0.29
			c0.15-0.11,0.28-0.24,0.39-0.38c0.11-0.14,0.17-0.27,0.2-0.4c0.01-0.08,0-0.17-0.05-0.27c-0.05-0.1-0.11-0.2-0.18-0.29
			c-0.07-0.09-0.16-0.17-0.25-0.24C159.71,18.9,159.63,18.86,159.55,18.86z"/>
		<path class="st11" d="M161.14,19.75c0-0.25,0.03-0.49,0.09-0.74c0.06-0.25,0.15-0.47,0.28-0.66c0.13-0.2,0.3-0.35,0.5-0.48
			c0.21-0.12,0.46-0.18,0.75-0.18c0.17,0,0.32,0.03,0.44,0.09c0.13,0.06,0.23,0.14,0.32,0.24c0.09,0.1,0.15,0.22,0.19,0.35
			c0.04,0.13,0.06,0.27,0.06,0.42c0,0.23-0.05,0.46-0.16,0.67c-0.11,0.22-0.25,0.41-0.43,0.58c-0.18,0.17-0.39,0.29-0.62,0.37
			c-0.23,0.08-0.47,0.1-0.71,0.06c0,0.13,0.05,0.24,0.13,0.32c0.08,0.08,0.19,0.14,0.3,0.18c0.12,0.04,0.24,0.07,0.37,0.08
			c0.13,0.01,0.24,0.02,0.34,0.02c0.1,0,0.2-0.01,0.29-0.03c0.09-0.02,0.18-0.04,0.27-0.06c0.09-0.02,0.18-0.04,0.28-0.06
			c0.09-0.02,0.19-0.03,0.3-0.03c0.04,0,0.08,0,0.12,0.01c0.04,0,0.08,0.01,0.12,0.03c0.04,0.02,0.07,0.04,0.09,0.07
			c0.02,0.03,0.03,0.08,0.03,0.13c0,0.09-0.03,0.16-0.1,0.21c-0.06,0.06-0.14,0.11-0.24,0.15c-0.1,0.04-0.21,0.07-0.32,0.09
			c-0.12,0.02-0.23,0.04-0.34,0.05c-0.11,0.01-0.21,0.02-0.31,0.02c-0.09,0-0.16,0-0.21,0c-0.29,0-0.55-0.05-0.78-0.14
			c-0.23-0.09-0.43-0.22-0.59-0.39c-0.16-0.17-0.28-0.37-0.36-0.6C161.18,20.3,161.14,20.04,161.14,19.75z M161.86,19.31
			c0,0.16,0.02,0.28,0.06,0.35c0.04,0.07,0.15,0.11,0.32,0.11c0.12,0,0.23-0.02,0.35-0.06c0.11-0.04,0.22-0.1,0.31-0.18
			c0.09-0.08,0.17-0.17,0.22-0.27c0.05-0.1,0.08-0.22,0.08-0.34c0-0.07-0.01-0.14-0.02-0.21c-0.01-0.07-0.04-0.14-0.07-0.2
			c-0.04-0.06-0.08-0.11-0.14-0.15c-0.06-0.04-0.13-0.06-0.22-0.06c-0.14,0-0.26,0.03-0.37,0.09c-0.11,0.06-0.21,0.14-0.28,0.24
			c-0.08,0.1-0.14,0.21-0.18,0.33C161.88,19.06,161.86,19.19,161.86,19.31z"/>
		<path class="st11" d="M147.39,33.65c0.25,0,0.48-0.05,0.68-0.14c0.2-0.09,0.37-0.22,0.51-0.38c0.14-0.16,0.25-0.35,0.32-0.55
			c0.07-0.21,0.11-0.42,0.11-0.64c0-0.11-0.01-0.26-0.02-0.45c-0.01-0.19-0.03-0.39-0.05-0.61c-0.02-0.22-0.06-0.44-0.1-0.67
			c-0.04-0.23-0.1-0.44-0.16-0.64c-0.06-0.2-0.14-0.38-0.24-0.53c-0.09-0.15-0.2-0.26-0.32-0.32c-0.12,0.09-0.23,0.17-0.35,0.25
			c-0.11,0.07-0.23,0.14-0.35,0.19c-0.12,0.05-0.25,0.09-0.38,0.12c-0.13,0.03-0.27,0.04-0.42,0.04c-0.2,0-0.36-0.02-0.5-0.05
			c-0.14-0.04-0.25-0.1-0.35-0.18c-0.09-0.09-0.16-0.2-0.21-0.34c-0.05-0.14-0.07-0.32-0.07-0.53c0-0.15,0.04-0.3,0.11-0.44
			c0.07-0.14,0.17-0.28,0.29-0.4c0.12-0.12,0.26-0.24,0.41-0.34c0.15-0.1,0.31-0.2,0.47-0.27c0.16-0.08,0.32-0.14,0.48-0.18
			s0.3-0.06,0.42-0.06c0.12,0,0.22,0,0.29,0.01c0.08,0.01,0.14,0.03,0.2,0.05c0.05,0.03,0.1,0.07,0.14,0.14
			c0.04,0.06,0.08,0.14,0.11,0.25c0.1,0.35,0.22,0.74,0.36,1.15s0.27,0.83,0.39,1.26c0.12,0.43,0.23,0.87,0.31,1.31
			c0.08,0.44,0.13,0.86,0.13,1.27c0,0.36-0.05,0.67-0.15,0.92c-0.1,0.25-0.24,0.46-0.4,0.62c-0.17,0.16-0.35,0.29-0.57,0.37
			c-0.21,0.09-0.42,0.14-0.64,0.17c-0.21,0.02-0.42,0.03-0.62,0.02c-0.2-0.01-0.37-0.04-0.52-0.08c-0.15-0.04-0.26-0.08-0.33-0.13
			c-0.07-0.05-0.09-0.09-0.05-0.13c0.04-0.03,0.14-0.06,0.31-0.07C146.79,33.61,147.05,33.62,147.39,33.65z M147.48,27.07
			c-0.34,0.07-0.61,0.17-0.81,0.3c-0.21,0.13-0.36,0.27-0.46,0.42c-0.1,0.15-0.16,0.3-0.17,0.44c-0.01,0.15,0.02,0.27,0.08,0.38
			c0.06,0.1,0.16,0.18,0.28,0.24c0.12,0.05,0.26,0.05,0.41,0.01c0.15-0.05,0.32-0.15,0.49-0.31c0.17-0.16,0.35-0.4,0.53-0.71
			c0-0.08,0-0.16,0-0.25c0-0.09-0.01-0.17-0.02-0.25c-0.02-0.07-0.05-0.14-0.1-0.19C147.66,27.1,147.58,27.07,147.48,27.07z"/>
		<path class="st11" d="M149.58,28.64c0-0.28,0.07-0.54,0.2-0.79c0.13-0.24,0.31-0.45,0.52-0.63c0.22-0.17,0.46-0.31,0.73-0.41
			c0.27-0.1,0.54-0.15,0.82-0.15c0.15,0,0.29,0.05,0.41,0.15c0.12,0.1,0.22,0.22,0.3,0.36c0.08,0.14,0.14,0.29,0.19,0.45
			c0.04,0.16,0.06,0.3,0.06,0.42c0,0.25-0.06,0.5-0.18,0.74s-0.28,0.45-0.48,0.63c-0.2,0.18-0.42,0.33-0.66,0.45
			c-0.25,0.11-0.49,0.17-0.74,0.17c-0.22,0-0.4-0.04-0.55-0.11c-0.15-0.07-0.27-0.17-0.36-0.3c-0.09-0.12-0.16-0.27-0.2-0.44
			C149.6,29.01,149.58,28.83,149.58,28.64z M150.16,28.71c0,0.12,0.01,0.22,0.03,0.31c0.02,0.09,0.06,0.16,0.11,0.23
			c0.05,0.06,0.12,0.11,0.21,0.15c0.09,0.03,0.19,0.05,0.32,0.05c0.17,0,0.34-0.05,0.5-0.14c0.17-0.09,0.32-0.21,0.45-0.35
			c0.13-0.14,0.24-0.3,0.32-0.47c0.08-0.17,0.12-0.34,0.12-0.5c0-0.07-0.01-0.15-0.02-0.24c-0.01-0.09-0.04-0.17-0.07-0.24
			c-0.03-0.07-0.08-0.13-0.14-0.18c-0.06-0.05-0.13-0.07-0.22-0.07c-0.08,0-0.18,0.03-0.29,0.08c-0.11,0.05-0.23,0.13-0.35,0.21
			c-0.12,0.09-0.24,0.18-0.35,0.29c-0.12,0.11-0.22,0.22-0.32,0.33c-0.1,0.11-0.17,0.21-0.23,0.31
			C150.18,28.56,150.16,28.64,150.16,28.71z"/>
		<path class="st11" d="M153.46,24.91c0.09,0.04,0.16,0.1,0.22,0.18c0.06,0.08,0.09,0.16,0.08,0.22c-0.01,0.07-0.06,0.11-0.15,0.14
			c-0.1,0.03-0.25,0-0.48-0.08c0-0.12,0.02-0.23,0.07-0.32C153.25,24.95,153.33,24.91,153.46,24.91z M153.37,27.47
			c0-0.03,0-0.07,0-0.13c0-0.06,0-0.13,0.01-0.19c0-0.07,0-0.13,0.01-0.2c0-0.06,0-0.11,0-0.14c0.05-0.07,0.11-0.13,0.19-0.18
			c0.08-0.05,0.16-0.08,0.24-0.11c0.01,0.25,0.05,0.51,0.12,0.78c0.06,0.28,0.13,0.56,0.2,0.83c0.07,0.28,0.14,0.56,0.19,0.83
			c0.06,0.27,0.09,0.53,0.09,0.76c0,0.2-0.1,0.31-0.31,0.31c-0.13,0-0.23-0.05-0.32-0.16c-0.09-0.1-0.16-0.24-0.21-0.4
			c-0.05-0.16-0.09-0.34-0.13-0.54c-0.03-0.2-0.05-0.39-0.06-0.58c-0.01-0.19-0.02-0.37-0.02-0.52
			C153.37,27.67,153.37,27.55,153.37,27.47z"/>
		<path class="st11" d="M154.69,27.72c0-0.12,0.03-0.2,0.09-0.26c0.06-0.05,0.15-0.08,0.29-0.08h0.07c0.01,0.07,0.03,0.16,0.05,0.25
			c0.02,0.1,0.05,0.19,0.08,0.29c0.04,0.1,0.08,0.19,0.13,0.28c0.05,0.08,0.11,0.15,0.18,0.2c0-0.16,0.04-0.31,0.12-0.46
			c0.07-0.15,0.17-0.28,0.28-0.4c0.11-0.12,0.23-0.21,0.37-0.29c0.13-0.08,0.27-0.13,0.4-0.16h0.15c0.22,0,0.4,0.05,0.56,0.15
			c0.15,0.1,0.28,0.22,0.39,0.38c0.1,0.16,0.18,0.34,0.24,0.54c0.05,0.2,0.1,0.4,0.13,0.61c0.03,0.21,0.05,0.41,0.05,0.6
			c0.01,0.19,0.01,0.36,0.01,0.49h-0.5c-0.03-0.27-0.06-0.53-0.1-0.78c-0.01-0.1-0.03-0.21-0.05-0.32
			c-0.02-0.11-0.05-0.22-0.07-0.31c-0.03-0.1-0.06-0.19-0.09-0.27c-0.03-0.08-0.07-0.16-0.11-0.21c-0.02-0.02-0.04-0.04-0.07-0.07
			c-0.03-0.03-0.06-0.06-0.09-0.1c-0.03-0.03-0.06-0.06-0.09-0.08c-0.03-0.02-0.04-0.03-0.05-0.03c-0.14-0.04-0.25-0.01-0.35,0.08
			c-0.1,0.09-0.19,0.21-0.27,0.36c-0.08,0.15-0.14,0.32-0.19,0.51s-0.09,0.37-0.12,0.55c-0.03,0.18-0.05,0.33-0.07,0.46
			c-0.01,0.13-0.02,0.21-0.03,0.24c-0.11,0.08-0.22,0.11-0.32,0.07c-0.1-0.03-0.19-0.11-0.28-0.21c-0.09-0.11-0.17-0.25-0.24-0.41
			c-0.07-0.16-0.14-0.34-0.19-0.52c-0.06-0.18-0.11-0.37-0.16-0.56C154.77,28.06,154.73,27.88,154.69,27.72z"/>
		<path class="st11" d="M160.39,33.65c0.25,0,0.48-0.05,0.68-0.14c0.2-0.09,0.37-0.22,0.51-0.38c0.14-0.16,0.25-0.35,0.32-0.55
			c0.07-0.21,0.11-0.42,0.11-0.64c0-0.11-0.01-0.26-0.02-0.45c-0.01-0.19-0.03-0.39-0.05-0.61c-0.02-0.22-0.06-0.44-0.1-0.67
			c-0.04-0.23-0.1-0.44-0.16-0.64c-0.06-0.2-0.14-0.38-0.24-0.53c-0.09-0.15-0.2-0.26-0.32-0.32c-0.12,0.09-0.23,0.17-0.35,0.25
			c-0.11,0.07-0.23,0.14-0.35,0.19c-0.12,0.05-0.25,0.09-0.38,0.12c-0.13,0.03-0.27,0.04-0.42,0.04c-0.2,0-0.36-0.02-0.5-0.05
			c-0.14-0.04-0.25-0.1-0.35-0.18c-0.09-0.09-0.16-0.2-0.21-0.34c-0.05-0.14-0.07-0.32-0.07-0.53c0-0.15,0.04-0.3,0.11-0.44
			c0.07-0.14,0.17-0.28,0.29-0.4c0.12-0.12,0.26-0.24,0.41-0.34c0.15-0.1,0.31-0.2,0.47-0.27c0.16-0.08,0.32-0.14,0.48-0.18
			s0.3-0.06,0.42-0.06c0.12,0,0.22,0,0.29,0.01c0.08,0.01,0.14,0.03,0.2,0.05c0.05,0.03,0.1,0.07,0.14,0.14
			c0.04,0.06,0.08,0.14,0.11,0.25c0.1,0.35,0.22,0.74,0.36,1.15c0.14,0.41,0.27,0.83,0.39,1.26c0.12,0.43,0.23,0.87,0.31,1.31
			c0.08,0.44,0.13,0.86,0.13,1.27c0,0.36-0.05,0.67-0.15,0.92c-0.1,0.25-0.24,0.46-0.4,0.62c-0.17,0.16-0.35,0.29-0.57,0.37
			c-0.21,0.09-0.42,0.14-0.64,0.17c-0.21,0.02-0.42,0.03-0.62,0.02c-0.2-0.01-0.37-0.04-0.52-0.08c-0.15-0.04-0.26-0.08-0.33-0.13
			c-0.07-0.05-0.09-0.09-0.05-0.13c0.04-0.03,0.14-0.06,0.31-0.07C159.8,33.61,160.05,33.62,160.39,33.65z M160.49,27.07
			c-0.34,0.07-0.61,0.17-0.81,0.3c-0.21,0.13-0.36,0.27-0.46,0.42c-0.1,0.15-0.16,0.3-0.17,0.44c-0.01,0.15,0.02,0.27,0.08,0.38
			c0.06,0.1,0.16,0.18,0.28,0.24c0.12,0.05,0.26,0.05,0.41,0.01c0.15-0.05,0.32-0.15,0.49-0.31c0.17-0.16,0.35-0.4,0.53-0.71
			c0-0.08,0-0.16,0-0.25c0-0.09-0.01-0.17-0.02-0.25c-0.02-0.07-0.05-0.14-0.1-0.19C160.66,27.1,160.59,27.07,160.49,27.07z"/>
		<path class="st11" d="M162.6,24.9c0.12-0.11,0.22-0.14,0.29-0.07c0.07,0.06,0.12,0.18,0.15,0.36c0.03,0.18,0.05,0.39,0.06,0.64
			c0,0.25,0.01,0.5,0.01,0.76c0,0.26,0.01,0.5,0.01,0.74s0.03,0.42,0.06,0.55c0,0.07,0,0.13-0.01,0.18
			c-0.01,0.05-0.03,0.09-0.05,0.12c-0.02,0.03-0.06,0.06-0.11,0.07c-0.05,0.02-0.12,0.02-0.2,0.02c-0.01,0-0.03-0.01-0.04-0.02
			c-0.01-0.01-0.03-0.05-0.04-0.12c-0.01-0.07-0.03-0.17-0.04-0.31c-0.01-0.14-0.03-0.33-0.04-0.58c-0.01-0.25-0.02-0.56-0.03-0.94
			C162.6,25.92,162.6,25.46,162.6,24.9z M163.11,29.43c0.06,0,0.12,0.02,0.17,0.05c0.06,0.04,0.09,0.08,0.11,0.13
			c0.02,0.05,0,0.11-0.04,0.17c-0.05,0.06-0.14,0.12-0.29,0.18c-0.12-0.02-0.21-0.05-0.26-0.09c-0.05-0.04-0.08-0.09-0.09-0.14
			c-0.01-0.05,0-0.1,0.03-0.14c0.03-0.05,0.07-0.09,0.11-0.12c0.04-0.03,0.09-0.06,0.14-0.07C163.03,29.39,163.08,29.4,163.11,29.43
			z"/>
	</g>
	<g class="st2">
		<path class="st11" d="M123.11,59.36c0.02-0.11,0.08-0.2,0.17-0.27c0.09-0.07,0.2-0.14,0.32-0.19c0.12-0.06,0.25-0.11,0.38-0.17
			c0.13-0.05,0.25-0.11,0.36-0.17c0.11-0.06,0.2-0.13,0.28-0.21c0.07-0.08,0.11-0.18,0.11-0.29c0-0.15-0.04-0.27-0.11-0.36
			c-0.07-0.1-0.18-0.18-0.3-0.25c-0.13-0.07-0.27-0.12-0.43-0.17c-0.16-0.05-0.32-0.09-0.49-0.14c-0.17-0.05-0.33-0.1-0.49-0.16
			c-0.16-0.06-0.3-0.13-0.43-0.21c-0.12-0.09-0.22-0.19-0.3-0.31c-0.07-0.12-0.11-0.27-0.11-0.46c0-0.15,0.03-0.29,0.09-0.43
			c0.06-0.13,0.14-0.26,0.25-0.38c0.1-0.12,0.22-0.23,0.35-0.33c0.13-0.1,0.27-0.18,0.42-0.25c0.15-0.07,0.3-0.12,0.45-0.16
			c0.15-0.04,0.29-0.06,0.42-0.06h0.07c0.04,0.01,0.1,0.04,0.16,0.07c0.07,0.03,0.13,0.06,0.2,0.09c0.06,0.03,0.12,0.06,0.16,0.08
			c0.05,0.03,0.07,0.04,0.07,0.04v0.16c-0.09,0.01-0.2,0.03-0.33,0.05c-0.14,0.03-0.28,0.06-0.43,0.1s-0.3,0.09-0.46,0.15
			c-0.15,0.06-0.29,0.13-0.42,0.21c-0.12,0.08-0.22,0.18-0.3,0.28c-0.08,0.11-0.12,0.23-0.12,0.36c0,0.2,0.07,0.35,0.2,0.46
			c0.14,0.11,0.31,0.2,0.51,0.28c0.2,0.07,0.43,0.14,0.67,0.19c0.24,0.06,0.47,0.13,0.67,0.2c0.2,0.08,0.37,0.18,0.51,0.31
			c0.14,0.13,0.2,0.3,0.2,0.52c0,0.12-0.04,0.24-0.11,0.37c-0.07,0.13-0.16,0.26-0.28,0.38c-0.12,0.13-0.25,0.24-0.39,0.36
			c-0.15,0.11-0.29,0.21-0.45,0.3c-0.15,0.08-0.3,0.15-0.45,0.2c-0.15,0.05-0.27,0.08-0.39,0.08c-0.04,0-0.07,0-0.12-0.01
			c-0.04-0.01-0.08-0.02-0.11-0.04c-0.03-0.02-0.05-0.05-0.07-0.09C123.08,59.48,123.09,59.43,123.11,59.36z"/>
		<path class="st11" d="M125.73,57.76c0-0.25,0.03-0.49,0.09-0.74c0.06-0.25,0.15-0.47,0.28-0.66c0.13-0.2,0.3-0.35,0.5-0.48
			c0.21-0.12,0.46-0.18,0.75-0.18c0.17,0,0.32,0.03,0.44,0.09c0.13,0.06,0.23,0.14,0.32,0.24c0.09,0.1,0.15,0.22,0.19,0.35
			c0.04,0.13,0.06,0.27,0.06,0.42c0,0.23-0.05,0.46-0.16,0.67c-0.11,0.22-0.25,0.41-0.43,0.58c-0.18,0.17-0.39,0.29-0.62,0.37
			c-0.23,0.08-0.47,0.1-0.71,0.06c0,0.13,0.05,0.24,0.13,0.32c0.08,0.08,0.19,0.14,0.3,0.18c0.12,0.04,0.24,0.07,0.37,0.08
			c0.13,0.01,0.24,0.02,0.34,0.02c0.1,0,0.2-0.01,0.29-0.03c0.09-0.02,0.18-0.04,0.27-0.06c0.09-0.02,0.18-0.04,0.28-0.06
			c0.09-0.02,0.19-0.03,0.3-0.03c0.04,0,0.08,0,0.12,0.01c0.04,0,0.08,0.01,0.12,0.03c0.04,0.02,0.07,0.04,0.09,0.07
			c0.02,0.03,0.03,0.08,0.03,0.13c0,0.09-0.03,0.16-0.1,0.21c-0.06,0.06-0.14,0.11-0.24,0.15c-0.1,0.04-0.21,0.07-0.32,0.09
			c-0.12,0.02-0.23,0.04-0.34,0.05c-0.11,0.01-0.21,0.02-0.31,0.02c-0.09,0-0.16,0-0.21,0c-0.29,0-0.55-0.05-0.78-0.14
			c-0.23-0.09-0.43-0.22-0.59-0.39c-0.16-0.17-0.28-0.37-0.36-0.6C125.77,58.31,125.73,58.05,125.73,57.76z M126.45,57.32
			c0,0.16,0.02,0.28,0.06,0.35c0.04,0.07,0.15,0.11,0.32,0.11c0.12,0,0.23-0.02,0.35-0.06c0.11-0.04,0.22-0.1,0.31-0.18
			c0.09-0.08,0.17-0.17,0.22-0.27c0.05-0.1,0.08-0.22,0.08-0.34c0-0.07-0.01-0.14-0.02-0.21c-0.01-0.07-0.04-0.14-0.07-0.2
			c-0.04-0.06-0.08-0.11-0.14-0.15c-0.06-0.04-0.13-0.06-0.22-0.06c-0.14,0-0.26,0.03-0.37,0.09c-0.11,0.06-0.21,0.14-0.28,0.24
			c-0.08,0.1-0.14,0.21-0.18,0.33C126.47,57.08,126.45,57.2,126.45,57.32z"/>
		<path class="st11" d="M129.53,57.76c0-0.25,0.03-0.49,0.09-0.74c0.06-0.25,0.15-0.47,0.28-0.66c0.13-0.2,0.3-0.35,0.5-0.48
			c0.21-0.12,0.46-0.18,0.75-0.18c0.17,0,0.32,0.03,0.44,0.09c0.13,0.06,0.23,0.14,0.32,0.24c0.09,0.1,0.15,0.22,0.19,0.35
			c0.04,0.13,0.06,0.27,0.06,0.42c0,0.23-0.05,0.46-0.16,0.67c-0.11,0.22-0.25,0.41-0.43,0.58c-0.18,0.17-0.39,0.29-0.62,0.37
			c-0.23,0.08-0.47,0.1-0.71,0.06c0,0.13,0.05,0.24,0.13,0.32c0.08,0.08,0.19,0.14,0.3,0.18c0.12,0.04,0.24,0.07,0.37,0.08
			c0.13,0.01,0.24,0.02,0.34,0.02c0.1,0,0.2-0.01,0.29-0.03c0.09-0.02,0.18-0.04,0.27-0.06c0.09-0.02,0.18-0.04,0.28-0.06
			c0.09-0.02,0.19-0.03,0.3-0.03c0.04,0,0.08,0,0.12,0.01c0.04,0,0.08,0.01,0.12,0.03c0.04,0.02,0.07,0.04,0.09,0.07
			c0.02,0.03,0.03,0.08,0.03,0.13c0,0.09-0.03,0.16-0.1,0.21c-0.06,0.06-0.14,0.11-0.24,0.15c-0.1,0.04-0.21,0.07-0.32,0.09
			c-0.12,0.02-0.23,0.04-0.34,0.05c-0.11,0.01-0.21,0.02-0.31,0.02c-0.09,0-0.16,0-0.21,0c-0.29,0-0.55-0.05-0.78-0.14
			c-0.23-0.09-0.43-0.22-0.59-0.39c-0.16-0.17-0.28-0.37-0.36-0.6C129.57,58.31,129.53,58.05,129.53,57.76z M130.25,57.32
			c0,0.16,0.02,0.28,0.06,0.35c0.04,0.07,0.15,0.11,0.32,0.11c0.12,0,0.23-0.02,0.35-0.06c0.11-0.04,0.22-0.1,0.31-0.18
			c0.09-0.08,0.17-0.17,0.22-0.27c0.05-0.1,0.08-0.22,0.08-0.34c0-0.07-0.01-0.14-0.02-0.21c-0.01-0.07-0.04-0.14-0.07-0.2
			c-0.04-0.06-0.08-0.11-0.14-0.15c-0.06-0.04-0.13-0.06-0.22-0.06c-0.14,0-0.26,0.03-0.37,0.09c-0.11,0.06-0.21,0.14-0.28,0.24
			c-0.08,0.1-0.14,0.21-0.18,0.33C130.27,57.08,130.25,57.2,130.25,57.32z"/>
		<path class="st11" d="M136.36,56.13c0-0.04,0-0.08,0-0.13c0-0.04,0.01-0.08,0.03-0.12c0.02-0.04,0.04-0.07,0.07-0.09
			c0.03-0.02,0.07-0.03,0.13-0.03c0,0,0.01,0,0.02,0c0.01,0,0.01,0,0.02,0c0.01,0,0.02,0.01,0.03,0.01
			c0.09,0.12,0.16,0.27,0.22,0.45c0.06,0.18,0.12,0.38,0.18,0.59c0.06,0.21,0.12,0.42,0.19,0.63c0.07,0.21,0.16,0.4,0.27,0.57
			c0.11,0.17,0.24,0.3,0.4,0.4c0.16,0.1,0.36,0.14,0.59,0.13c0.1,0,0.17-0.06,0.2-0.17c0.03-0.11,0.05-0.26,0.05-0.44
			c0-0.18,0-0.37-0.01-0.59c-0.01-0.21-0.01-0.42,0-0.61c0.01-0.19,0.05-0.36,0.1-0.51c0.06-0.15,0.16-0.24,0.3-0.29
			c0.06,0.12,0.11,0.3,0.15,0.56c0.04,0.25,0.07,0.54,0.09,0.87c0.02,0.33,0.03,0.69,0.03,1.07c0,0.38-0.01,0.77-0.03,1.15
			c-0.02,0.38-0.05,0.74-0.08,1.09c-0.04,0.35-0.08,0.66-0.12,0.92c-0.05,0.26-0.1,0.47-0.16,0.62c-0.06,0.15-0.13,0.22-0.19,0.19
			c-0.1-0.09-0.17-0.21-0.22-0.35c-0.05-0.15-0.09-0.31-0.11-0.48c-0.02-0.18-0.03-0.36-0.02-0.56c0-0.2,0.01-0.4,0.02-0.6
			c0.01-0.2,0.02-0.4,0.04-0.59c0.02-0.19,0.02-0.37,0.02-0.52c-0.16,0.01-0.33-0.01-0.5-0.07c-0.17-0.06-0.34-0.16-0.5-0.3
			c-0.16-0.13-0.32-0.3-0.47-0.49c-0.15-0.19-0.28-0.41-0.39-0.65c-0.11-0.24-0.2-0.5-0.26-0.78
			C136.39,56.74,136.36,56.44,136.36,56.13z"/>
		<path class="st11" d="M139.84,58.27c0-0.28,0.07-0.54,0.2-0.79c0.13-0.24,0.31-0.45,0.52-0.63c0.22-0.17,0.46-0.31,0.73-0.41
			c0.27-0.1,0.54-0.15,0.82-0.15c0.15,0,0.29,0.05,0.41,0.15c0.12,0.1,0.22,0.22,0.3,0.36c0.08,0.14,0.14,0.29,0.19,0.45
			c0.04,0.16,0.06,0.3,0.06,0.42c0,0.25-0.06,0.5-0.18,0.74c-0.12,0.24-0.28,0.45-0.48,0.63c-0.2,0.18-0.42,0.33-0.66,0.45
			c-0.25,0.11-0.49,0.17-0.74,0.17c-0.22,0-0.4-0.04-0.55-0.11c-0.15-0.07-0.27-0.17-0.36-0.3c-0.09-0.12-0.16-0.27-0.2-0.44
			C139.86,58.65,139.84,58.46,139.84,58.27z M140.41,58.34c0,0.12,0.01,0.22,0.03,0.31s0.06,0.16,0.11,0.23
			c0.05,0.06,0.12,0.11,0.21,0.15c0.09,0.03,0.19,0.05,0.32,0.05c0.17,0,0.34-0.05,0.5-0.14c0.17-0.09,0.32-0.21,0.45-0.35
			c0.13-0.14,0.24-0.3,0.32-0.47c0.08-0.17,0.12-0.34,0.12-0.5c0-0.07-0.01-0.15-0.02-0.24c-0.01-0.09-0.04-0.17-0.07-0.24
			c-0.03-0.07-0.08-0.13-0.14-0.18c-0.06-0.05-0.13-0.07-0.22-0.07c-0.08,0-0.18,0.03-0.29,0.08c-0.11,0.05-0.23,0.13-0.35,0.21
			c-0.12,0.09-0.24,0.18-0.35,0.29s-0.22,0.22-0.32,0.33c-0.1,0.11-0.17,0.21-0.23,0.31C140.44,58.2,140.41,58.28,140.41,58.34z"/>
		<path class="st11" d="M143.34,56.88c0-0.03,0-0.08,0-0.15c0-0.07,0-0.14,0-0.22c0-0.08,0-0.15,0-0.21c0-0.07,0-0.11,0-0.14
			c0.03-0.05,0.07-0.11,0.11-0.16c0.04-0.05,0.09-0.09,0.14-0.11c0.05-0.02,0.1-0.02,0.16-0.01c0.06,0.01,0.11,0.06,0.17,0.14v0.05
			v0.09c0,0.02-0.01,0.08-0.03,0.16c-0.01,0.08-0.03,0.18-0.05,0.28c-0.02,0.1-0.04,0.19-0.05,0.28c-0.02,0.08-0.02,0.14-0.02,0.16
			c0,0.09,0.01,0.19,0.03,0.32c0.02,0.13,0.04,0.26,0.08,0.41c0.03,0.14,0.08,0.28,0.13,0.42c0.05,0.14,0.11,0.27,0.19,0.38
			c0.07,0.11,0.15,0.2,0.24,0.28c0.09,0.07,0.19,0.11,0.31,0.11c0.15,0,0.27-0.04,0.39-0.12c0.11-0.08,0.21-0.18,0.29-0.3
			c0.08-0.12,0.15-0.26,0.2-0.42c0.05-0.15,0.09-0.31,0.13-0.47c0.03-0.16,0.05-0.31,0.07-0.45c0.01-0.15,0.02-0.27,0.02-0.38
			c0-0.11-0.01-0.21-0.02-0.31c-0.02-0.1-0.04-0.19-0.06-0.29c-0.02-0.1-0.04-0.19-0.06-0.28c-0.02-0.09-0.02-0.19-0.02-0.28
			c0-0.09,0.03-0.15,0.09-0.18c0.06-0.04,0.13-0.05,0.21-0.05c0.1,0,0.17,0.03,0.23,0.09c0.06,0.06,0.11,0.13,0.14,0.21
			c0.03,0.09,0.06,0.19,0.07,0.3c0.01,0.11,0.02,0.22,0.02,0.33s0,0.21-0.01,0.31c0,0.1-0.01,0.18-0.01,0.24
			c0,0.15-0.01,0.33-0.03,0.52c-0.02,0.2-0.06,0.4-0.12,0.6c-0.06,0.21-0.13,0.41-0.21,0.61c-0.08,0.2-0.19,0.38-0.31,0.54
			c-0.12,0.16-0.26,0.28-0.42,0.38s-0.33,0.14-0.53,0.14c-0.2,0-0.38-0.05-0.54-0.15c-0.15-0.1-0.29-0.23-0.39-0.39
			c-0.11-0.16-0.2-0.34-0.27-0.55c-0.07-0.2-0.13-0.41-0.17-0.61c-0.04-0.2-0.07-0.4-0.08-0.6
			C143.35,57.18,143.34,57.02,143.34,56.88z"/>
		<path class="st11" d="M125.36,64.18c0-0.13-0.01-0.26-0.03-0.39c-0.02-0.12-0.02-0.24-0.01-0.33c0.01-0.1,0.04-0.18,0.11-0.24
			c0.06-0.06,0.17-0.09,0.34-0.09c0.05,0.1,0.1,0.26,0.15,0.48c0.05,0.21,0.09,0.46,0.14,0.74c0.05,0.28,0.09,0.58,0.13,0.9
			c0.04,0.32,0.08,0.65,0.11,0.98c0.03,0.33,0.06,0.65,0.09,0.96c0.02,0.32,0.04,0.6,0.06,0.86c-0.15,0.1-0.27,0.11-0.36,0.02
			c-0.09-0.09-0.17-0.23-0.22-0.44c-0.06-0.21-0.1-0.46-0.14-0.76c-0.03-0.3-0.06-0.61-0.09-0.93c-0.03-0.32-0.06-0.64-0.11-0.95
			C125.48,64.69,125.43,64.42,125.36,64.18z"/>
		<path class="st11" d="M129.73,67.15c-0.17,0.12-0.32,0.22-0.45,0.32c-0.13,0.09-0.25,0.17-0.36,0.24
			c-0.12,0.06-0.24,0.11-0.38,0.14c-0.13,0.03-0.3,0.05-0.49,0.05c-0.42,0-0.74-0.11-0.94-0.34c-0.2-0.22-0.31-0.56-0.31-1.01
			c0-0.17,0.02-0.35,0.07-0.54c0.05-0.19,0.11-0.37,0.2-0.56c0.09-0.18,0.19-0.36,0.32-0.52c0.12-0.17,0.26-0.31,0.42-0.44
			c0.15-0.13,0.32-0.23,0.49-0.3c0.17-0.07,0.36-0.11,0.56-0.11c0.33,0.03,0.58,0.11,0.77,0.24c0.19,0.13,0.33,0.3,0.42,0.5
			c0.1,0.2,0.16,0.43,0.2,0.67c0.04,0.25,0.06,0.5,0.09,0.77c0.02,0.26,0.05,0.53,0.08,0.79c0.03,0.26,0.1,0.51,0.2,0.73
			c-0.06,0.15-0.11,0.26-0.17,0.32c-0.05,0.06-0.11,0.07-0.17,0.03c-0.06-0.04-0.14-0.14-0.22-0.3
			C129.95,67.67,129.85,67.44,129.73,67.15z M127.38,66.57c0,0.26,0.05,0.45,0.15,0.57c0.1,0.12,0.27,0.18,0.52,0.18
			c0.19,0,0.36-0.03,0.54-0.1c0.17-0.07,0.32-0.16,0.45-0.27c0.13-0.12,0.23-0.26,0.31-0.42c0.08-0.16,0.12-0.35,0.12-0.55
			c0-0.08,0-0.2,0.01-0.34c0-0.15,0-0.29-0.03-0.44c-0.02-0.15-0.07-0.27-0.13-0.38c-0.06-0.11-0.16-0.16-0.29-0.16
			c-0.24,0-0.45,0.06-0.65,0.18c-0.2,0.12-0.37,0.27-0.52,0.46c-0.15,0.19-0.26,0.39-0.34,0.62
			C127.42,66.14,127.38,66.36,127.38,66.57z"/>
		<path class="st11" d="M130.88,64.6c0-0.01,0-0.02,0.01-0.03c0-0.01,0-0.02,0.01-0.03c0.02-0.02,0.05-0.05,0.08-0.09
			c0.04-0.04,0.06-0.05,0.07-0.05h1.37c0-0.05-0.01-0.13-0.02-0.24c-0.01-0.11-0.03-0.23-0.04-0.36c-0.01-0.13-0.01-0.27-0.01-0.41
			c0-0.14,0.02-0.27,0.06-0.39c0.03-0.12,0.09-0.21,0.16-0.29c0.07-0.07,0.18-0.11,0.32-0.11c0,0.46,0.03,0.83,0.1,1.1
			c0.06,0.28,0.15,0.49,0.26,0.64c0.11,0.15,0.23,0.25,0.36,0.29c0.14,0.05,0.28,0.06,0.42,0.06c0.14-0.01,0.28-0.03,0.42-0.06
			c0.14-0.04,0.26-0.06,0.36-0.07c0.11-0.01,0.19,0,0.26,0.03c0.06,0.03,0.1,0.11,0.1,0.24c0,0.1-0.02,0.16-0.06,0.2
			c-0.04,0.04-0.13,0.07-0.25,0.1c-0.04,0-0.1,0.01-0.18,0.02c-0.08,0.01-0.18,0.02-0.28,0.03c-0.1,0.01-0.22,0.02-0.33,0.03
			c-0.12,0.01-0.23,0.02-0.33,0.03c-0.1,0.01-0.2,0.01-0.29,0.02c-0.09,0-0.15,0-0.19,0c0,0.02,0,0.06-0.01,0.12
			c0,0.05-0.01,0.09-0.01,0.11c0,0.2,0.03,0.39,0.1,0.58c0.06,0.19,0.13,0.38,0.21,0.56c0.07,0.19,0.14,0.37,0.21,0.56
			c0.06,0.19,0.1,0.38,0.1,0.58c0,0.04,0,0.07-0.01,0.11c-0.01,0.04-0.02,0.07-0.04,0.1c-0.02,0.03-0.05,0.05-0.09,0.07
			c-0.04,0.02-0.09,0.01-0.16-0.01c-0.17-0.05-0.3-0.14-0.39-0.29c-0.08-0.15-0.15-0.33-0.19-0.54c-0.04-0.21-0.07-0.43-0.08-0.66
			c-0.01-0.23-0.04-0.45-0.06-0.65c-0.03-0.2-0.08-0.37-0.14-0.52c-0.06-0.14-0.17-0.23-0.31-0.26l-1.32-0.3
			c-0.02,0-0.05-0.02-0.08-0.06c-0.04-0.04-0.06-0.07-0.07-0.09c0-0.01-0.01-0.02-0.01-0.03C130.88,64.63,130.88,64.62,130.88,64.6z
			"/>
		<path class="st11" d="M135.41,66.14c0-0.25,0.03-0.49,0.09-0.74c0.06-0.25,0.15-0.47,0.28-0.66c0.13-0.2,0.3-0.35,0.5-0.48
			c0.21-0.12,0.46-0.18,0.75-0.18c0.17,0,0.32,0.03,0.44,0.09c0.13,0.06,0.23,0.14,0.32,0.24c0.09,0.1,0.15,0.22,0.19,0.35
			c0.04,0.13,0.06,0.27,0.06,0.42c0,0.23-0.05,0.46-0.16,0.67c-0.11,0.22-0.25,0.41-0.43,0.58c-0.18,0.17-0.39,0.29-0.62,0.37
			c-0.23,0.08-0.47,0.1-0.71,0.06c0,0.13,0.05,0.24,0.13,0.32c0.08,0.08,0.19,0.14,0.3,0.18c0.12,0.04,0.24,0.07,0.37,0.08
			c0.13,0.01,0.24,0.02,0.34,0.02c0.1,0,0.2-0.01,0.29-0.03c0.09-0.02,0.18-0.04,0.27-0.06c0.09-0.02,0.18-0.04,0.28-0.06
			c0.09-0.02,0.19-0.03,0.3-0.03c0.04,0,0.08,0,0.12,0.01c0.04,0,0.08,0.01,0.12,0.03c0.04,0.02,0.07,0.04,0.09,0.07
			c0.02,0.03,0.03,0.08,0.03,0.13c0,0.09-0.03,0.16-0.1,0.21c-0.06,0.06-0.14,0.11-0.24,0.15c-0.1,0.04-0.21,0.07-0.32,0.09
			c-0.12,0.02-0.23,0.04-0.34,0.05c-0.11,0.01-0.21,0.02-0.31,0.02c-0.09,0-0.16,0-0.21,0c-0.29,0-0.55-0.05-0.78-0.14
			c-0.23-0.09-0.43-0.22-0.59-0.39c-0.16-0.17-0.28-0.37-0.36-0.6C135.45,66.68,135.41,66.42,135.41,66.14z M136.13,65.7
			c0,0.16,0.02,0.28,0.06,0.35c0.04,0.07,0.15,0.11,0.32,0.11c0.12,0,0.23-0.02,0.35-0.06c0.11-0.04,0.22-0.1,0.31-0.18
			c0.09-0.08,0.17-0.17,0.22-0.27c0.05-0.1,0.08-0.22,0.08-0.34c0-0.07-0.01-0.14-0.02-0.21c-0.01-0.07-0.04-0.14-0.07-0.2
			c-0.04-0.06-0.08-0.11-0.14-0.15c-0.06-0.04-0.13-0.06-0.22-0.06c-0.14,0-0.26,0.03-0.37,0.09c-0.11,0.06-0.21,0.14-0.28,0.24
			c-0.08,0.1-0.14,0.21-0.18,0.33C136.15,65.45,136.13,65.57,136.13,65.7z"/>
		<path class="st11" d="M139.22,65.17c0-0.04,0-0.08,0.01-0.13c0-0.04,0.01-0.08,0.03-0.12c0.01-0.03,0.04-0.06,0.06-0.09
			c0.03-0.02,0.07-0.03,0.13-0.03c0.05,0,0.1,0.04,0.15,0.11c0.06,0.07,0.11,0.16,0.17,0.27c0.06,0.11,0.12,0.22,0.17,0.35
			c0.06,0.13,0.11,0.24,0.15,0.35c0.04,0.11,0.08,0.2,0.11,0.28c0.03,0.08,0.04,0.12,0.05,0.12c0.06-0.16,0.12-0.33,0.2-0.52
			c0.07-0.19,0.16-0.36,0.27-0.52c0.11-0.16,0.23-0.3,0.38-0.41c0.15-0.11,0.33-0.16,0.54-0.16c0.11,0,0.21,0.02,0.31,0.05
			c0.1,0.03,0.18,0.08,0.26,0.15c0.07,0.07,0.14,0.14,0.18,0.24c0.05,0.09,0.07,0.2,0.07,0.31c0,0.1-0.04,0.17-0.12,0.21
			c-0.08,0.04-0.17,0.06-0.27,0.06H142l-0.29-0.29c-0.01,0-0.02,0-0.02-0.01c-0.01,0-0.02,0-0.02,0c-0.01,0-0.01,0-0.02,0
			c-0.16,0-0.28,0.04-0.37,0.13c-0.09,0.09-0.16,0.2-0.2,0.33c-0.05,0.13-0.07,0.27-0.09,0.41c-0.01,0.14-0.02,0.27-0.02,0.39
			c0,0.09,0.01,0.18,0.03,0.28c0.02,0.09,0.04,0.18,0.06,0.27c0.02,0.09,0.04,0.18,0.06,0.27c0.02,0.09,0.03,0.19,0.03,0.29
			c0,0.19-0.1,0.29-0.31,0.29c-0.11,0-0.23-0.06-0.35-0.18c-0.12-0.12-0.24-0.27-0.36-0.46c-0.12-0.19-0.24-0.39-0.34-0.62
			c-0.11-0.22-0.2-0.44-0.29-0.66c-0.08-0.21-0.15-0.41-0.19-0.58C139.24,65.38,139.22,65.25,139.22,65.17z"/>
		<path class="st11" d="M142.71,62.91c0.12-0.11,0.22-0.14,0.29-0.07c0.07,0.06,0.12,0.18,0.15,0.36c0.03,0.18,0.05,0.39,0.06,0.64
			c0,0.25,0.01,0.5,0.01,0.76c0,0.26,0.01,0.5,0.01,0.74s0.03,0.42,0.06,0.55c0,0.07,0,0.13-0.01,0.18
			c-0.01,0.05-0.03,0.09-0.05,0.12c-0.02,0.03-0.06,0.06-0.11,0.07c-0.05,0.02-0.12,0.02-0.2,0.02c-0.01,0-0.03-0.01-0.04-0.02
			c-0.01-0.01-0.03-0.05-0.04-0.12c-0.01-0.07-0.03-0.17-0.04-0.31c-0.01-0.14-0.03-0.33-0.04-0.58c-0.01-0.25-0.02-0.56-0.03-0.94
			C142.72,63.93,142.71,63.47,142.71,62.91z M143.22,67.44c0.06,0,0.12,0.02,0.17,0.05c0.06,0.04,0.09,0.08,0.11,0.13
			c0.02,0.05,0,0.11-0.04,0.17c-0.05,0.06-0.14,0.12-0.29,0.18c-0.12-0.02-0.21-0.05-0.26-0.09c-0.05-0.04-0.08-0.09-0.09-0.14
			c-0.01-0.05,0-0.1,0.03-0.14c0.03-0.05,0.07-0.09,0.11-0.12c0.04-0.03,0.09-0.06,0.14-0.07C143.15,67.4,143.19,67.41,143.22,67.44
			z"/>
	</g>
</g>
<g id="Calque_3">
	<circle class="st12" cx="100" cy="102.37" r="96"/>
	<path class="st8" d="M107.67,90.86c0,0,45.36-30.91,50.89-13.31C164.08,95.15,107.67,90.86,107.67,90.86z"/>
	<path class="st8" d="M92.08,90.76c0,0-45.36-30.91-50.89-13.31S92.08,90.76,92.08,90.76z"/>
	<path class="st8" d="M108.2,91.31c0,0,26.81-47.9,39.61-34.61C160.6,69.98,108.2,91.31,108.2,91.31z"/>
	<path class="st8" d="M91.5,90.69c0,0-26.81-47.9-39.61-34.61S91.5,90.69,91.5,90.69z"/>
	<path class="st8" d="M100.09,157c0,0-34.61-1.46-50.94-9.26c7.68-4.27,13.04-54.72,14.75-59.6l72.48,0.04
		c1.71,4.87,7.07,55.33,14.75,59.6C140.68,153.95,111.18,157,100.09,157z"/>
	<g>
		<path class="st3" d="M135.97,123.49c1.93-4.84,3.15-10.13,3.5-15.71c-8.96,4.7-23.24,7.74-39.34,7.74
			c-15.92,0-30.07-2.98-39.05-7.59c0.37,5.55,1.59,10.82,3.53,15.64c8.94,2.63,21.56,4.27,35.54,4.27
			C114.28,127.84,127.01,126.16,135.97,123.49z"/>
		<path class="st3" d="M70.96,134.73c7.2,9.33,17.66,15.2,29.31,15.2c11.67,0,22.15-5.89,29.35-15.25
			c-8.22,3.06-18.44,5.22-29.51,5.22C89.2,139.9,79.12,137.77,70.96,134.73z"/>
		<path class="st3" d="M138.01,91.64c-4.77-18.92-19.86-32.74-37.73-32.74c-17.9,0-33.01,13.86-37.75,32.83
			c9.01,4.22,22.53,6.91,37.65,6.91C115.4,98.63,129,95.91,138.01,91.64z"/>
		<path d="M61.09,107.93c-0.08-1.16-0.12-2.33-0.12-3.52c0-4.41,0.54-8.66,1.55-12.69"/>
		<path d="M138.01,91.64c1.02,4.05,1.57,8.34,1.57,12.78c0,1.13-0.04,2.25-0.11,3.37"/>
		<path d="M139.47,107.78c0.07-1.11,0.11-2.23,0.11-3.37c0-4.44-0.55-8.72-1.57-12.78c-9.01,4.27-22.61,6.99-37.83,6.99
			c-15.12,0-28.65-2.69-37.65-6.91c-1.01,4.03-1.55,8.29-1.55,12.69c0,1.18,0.04,2.36,0.12,3.52c8.97,4.62,23.12,7.59,39.05,7.59
			C116.23,115.52,130.51,112.48,139.47,107.78z"/>
		<path d="M135.97,123.49c-1.63,4.1-3.78,7.86-6.34,11.19"/>
		<path d="M70.96,134.73c-2.56-3.32-4.71-7.08-6.35-11.16"/>
		<path d="M100.16,127.84c-13.98,0-26.6-1.64-35.54-4.27c1.64,4.09,3.79,7.84,6.35,11.16c8.15,3.04,18.23,5.16,29.15,5.16
			c11.08,0,21.3-2.15,29.51-5.22c2.56-3.33,4.71-7.1,6.34-11.19C127.01,126.16,114.28,127.84,100.16,127.84z"/>
	</g>
	<ellipse cx="92.66" cy="76.85" rx="1.71" ry="3.57"/>
	<ellipse cx="106.84" cy="77.05" rx="1.71" ry="3.57"/>
	<g>
		<path d="M99.79,90.93c-3.32,0-6.02-2.7-6.02-6.02c0-0.4,0.32-0.72,0.72-0.72c0.4,0,0.72,0.32,0.72,0.72
			c0,2.53,2.06,4.59,4.59,4.59c2.53,0,4.59-2.06,4.59-4.59c0-0.4,0.32-0.72,0.72-0.72c0.4,0,0.72,0.32,0.72,0.72
			C105.81,88.23,103.11,90.93,99.79,90.93z"/>
	</g>
	<g>
		<path d="M106.43,64.65c-0.04,0-0.08,0-0.13-0.01c-0.39-0.07-0.65-0.44-0.58-0.83c1.06-5.92,4.37-12.53,10.49-13.3
			c0.39-0.05,0.75,0.23,0.8,0.62c0.05,0.39-0.23,0.75-0.62,0.8c-5.35,0.68-8.29,6.71-9.26,12.13
			C107.07,64.41,106.77,64.65,106.43,64.65z"/>
	</g>
	<g>
		<path d="M93.72,64.7c-0.34,0-0.64-0.24-0.7-0.59c-0.97-5.42-3.91-11.46-9.26-12.13c-0.39-0.05-0.67-0.41-0.62-0.8
			c0.05-0.39,0.41-0.67,0.8-0.62c6.12,0.78,9.43,7.38,10.49,13.3c0.07,0.39-0.19,0.76-0.58,0.83C93.8,64.69,93.76,64.7,93.72,64.7z"
			/>
	</g>
	<g>
		<path class="st4" d="M95.84,102.42c0.13-0.66,0.37-1.18,0.71-1.56c0.35-0.38,0.74-0.64,1.19-0.78c0.45-0.14,0.93-0.18,1.44-0.11
			c0.51,0.07,1,0.23,1.46,0.48c0.46,0.25,0.86,0.57,1.21,0.96c0.35,0.39,0.59,0.84,0.73,1.34c0.14,0.5,0.14,1.04,0,1.63
			c-0.14,0.58-0.46,1.18-0.95,1.8c0.39,0.14,0.75,0.28,1.08,0.42c0.33,0.14,0.62,0.31,0.85,0.52c0.23,0.21,0.41,0.45,0.54,0.74
			c0.13,0.29,0.19,0.65,0.19,1.08c0,0.36-0.06,0.73-0.19,1.13c-0.13,0.4-0.31,0.79-0.54,1.18c-0.23,0.39-0.5,0.76-0.81,1.11
			c-0.31,0.35-0.64,0.66-1,0.93c-0.36,0.27-0.72,0.48-1.09,0.64c-0.37,0.16-0.74,0.23-1.09,0.23c-0.24,0-0.47-0.15-0.7-0.45
			c-0.23-0.3-0.45-0.7-0.66-1.2c-0.22-0.5-0.43-1.07-0.63-1.72c-0.21-0.65-0.39-1.32-0.57-2.01c-0.17-0.7-0.33-1.39-0.47-2.07
			c-0.14-0.68-0.26-1.32-0.36-1.9c-0.1-0.58-0.18-1.09-0.24-1.51C95.87,102.87,95.84,102.58,95.84,102.42z M97.69,103.92
			c0,0.19-0.01,0.43-0.02,0.72c-0.01,0.29-0.01,0.58,0,0.88c0.01,0.3,0.04,0.6,0.1,0.91c0.05,0.3,0.15,0.56,0.29,0.78
			c0.53-0.1,0.99-0.28,1.38-0.55c0.39-0.27,0.71-0.59,0.95-0.95c0.24-0.36,0.42-0.75,0.53-1.16c0.11-0.41,0.15-0.81,0.12-1.2
			c-0.03-0.39-0.12-0.74-0.28-1.07c-0.16-0.32-0.37-0.57-0.66-0.75c-0.28-0.18-0.62-0.27-1.02-0.27c-0.4,0-0.86,0.13-1.38,0.39
			c0,0.09,0,0.24-0.01,0.45c-0.01,0.22-0.01,0.44-0.02,0.68c-0.01,0.24-0.01,0.46-0.01,0.68C97.69,103.68,97.69,103.83,97.69,103.92
			z M98.72,109.42c0,0.18,0.04,0.43,0.13,0.73c0.09,0.3,0.2,0.6,0.33,0.91c0.13,0.3,0.28,0.58,0.44,0.83
			c0.16,0.25,0.33,0.42,0.52,0.51c0.15,0.09,0.33,0.08,0.53-0.02c0.2-0.1,0.41-0.26,0.62-0.49c0.21-0.22,0.41-0.47,0.61-0.76
			c0.19-0.29,0.37-0.57,0.53-0.85c0.16-0.28,0.28-0.54,0.37-0.78c0.09-0.24,0.14-0.43,0.14-0.56c0-0.28-0.04-0.51-0.11-0.69
			c-0.08-0.18-0.19-0.32-0.33-0.43c-0.15-0.11-0.32-0.18-0.52-0.23c-0.2-0.04-0.42-0.06-0.66-0.06c-0.27,0-0.56,0.04-0.86,0.13
			c-0.3,0.09-0.58,0.21-0.83,0.37c-0.25,0.16-0.47,0.36-0.65,0.6C98.81,108.87,98.72,109.13,98.72,109.42z"/>
	</g>
	<circle class="st13" cx="57.5" cy="107.21" r="15.54"/>
	<circle class="st13" cx="25.52" cy="90.51" r="15.54"/>
	<circle class="st13" cx="68.48" cy="55.19" r="15.54"/>
	<circle class="st13" cx="160.6" cy="88.6" r="15.54"/>
	<circle class="st13" cx="144.85" cy="20.34" r="15.54"/>
	<circle class="st13" cx="118.12" cy="163.54" r="15.54"/>
	<circle class="st13" cx="132.14" cy="123.61" r="12.8"/>
	<circle class="st13" cx="80.56" cy="12.35" r="11.33"/>
	<circle class="st13" cx="172.68" cy="159.85" r="11.33"/>
	<circle class="st13" cx="73.65" cy="144.08" r="12.8"/>
	<circle class="st13" cx="52.64" cy="183.7" r="12.8"/>
</g>
</svg>
