<?xml version="1.0" encoding="utf-8"?>
<!-- Generator: Adobe Illustrator 23.0.1, SVG Export Plug-In . SVG Version: 6.00 Build 0)  -->
<svg version="1.1" xmlns="http://www.w3.org/2000/svg" xmlns:xlink="http://www.w3.org/1999/xlink" x="0px" y="0px"
	 viewBox="0 0 200 200" style="enable-background:new 0 0 200 200;" xml:space="preserve">
<style type="text/css">
	.st0{display:none;}
	.st1{display:inline;fill:#E52929;}
	.st2{display:inline;}
	.st3{fill:#FFCD32;}
	.st4{fill:#FFFFFF;stroke:#FFFFFF;stroke-miterlimit:10;}
	.st5{display:inline;opacity:0.7;fill:#FFCD32;}
	.st6{fill:#41BDE4;}
	.st7{fill:#FFFFFF;}
	.st8{fill:#FFE499;}
	.st9{fill:#E52929;}
</style>
<g id="Calque_1" class="st0">
	<path class="st1" d="M112.25,80.15c0,0,67.02-45.67,75.19-19.67S112.25,80.15,112.25,80.15z"/>
	<path class="st1" d="M89.21,79.99c0,0-67.02-45.67-75.19-19.67S89.21,79.99,89.21,79.99z"/>
	<path class="st1" d="M113.03,80.81c0,0,39.61-70.77,58.52-51.14S113.03,80.81,113.03,80.81z"/>
	<path class="st1" d="M88.35,79.89c0,0-39.61-70.77-58.52-51.14S88.35,79.89,88.35,79.89z"/>
	<path class="st1" d="M101.06,177.86c0,0-51.14-2.16-75.27-13.68c11.34-6.3,19.27-80.85,21.79-88.05l107.09,0.07
		c2.52,7.2,10.44,81.75,21.79,88.05C161.02,173.36,117.44,177.86,101.06,177.86z"/>
	<g class="st2">
		<path class="st3" d="M154.06,128.35c2.85-7.15,4.66-14.97,5.18-23.21c-13.24,6.95-34.34,11.44-58.12,11.44
			c-23.52,0-44.43-4.4-57.69-11.22c0.54,8.2,2.36,15.99,5.21,23.11c13.22,3.89,31.86,6.31,52.51,6.31
			C122.02,134.78,140.83,132.31,154.06,128.35z"/>
		<path class="st3" d="M58.02,144.97c10.63,13.78,26.09,22.45,43.31,22.45c17.25,0,32.73-8.71,43.37-22.53
			c-12.14,4.53-27.24,7.71-43.61,7.71C84.96,152.59,70.07,149.45,58.02,144.97z"/>
		<path class="st3" d="M157.08,81.29c-7.04-27.95-29.34-48.38-55.75-48.38c-26.45,0-48.77,20.48-55.78,48.5
			c13.31,6.24,33.29,10.21,55.64,10.21C123.67,91.62,143.76,87.6,157.08,81.29z"/>
		<path d="M43.43,105.36c-0.11-1.71-0.17-3.45-0.17-5.2c0-6.51,0.8-12.8,2.29-18.75"/>
		<path d="M157.08,81.29c1.51,5.99,2.32,12.32,2.32,18.88c0,1.67-0.05,3.33-0.16,4.97"/>
		<path d="M159.24,105.14c0.1-1.64,0.16-3.3,0.16-4.97c0-6.55-0.81-12.89-2.32-18.88c-13.31,6.31-33.41,10.33-55.89,10.33
			c-22.34,0-42.32-3.97-55.64-10.21c-1.49,5.95-2.29,12.25-2.29,18.75c0,1.75,0.06,3.48,0.17,5.2
			c13.26,6.82,34.17,11.22,57.69,11.22C124.9,116.58,146,112.09,159.24,105.14z"/>
		<path d="M154.06,128.35c-2.42,6.05-5.58,11.62-9.37,16.54"/>
		<path d="M58.02,144.97c-3.79-4.91-6.96-10.46-9.38-16.5"/>
		<path d="M101.15,134.78c-20.66,0-39.3-2.42-52.51-6.31c2.42,6.04,5.6,11.59,9.38,16.5c12.05,4.49,26.94,7.63,43.07,7.63
			c16.37,0,31.47-3.18,43.61-7.71c3.78-4.92,6.95-10.48,9.37-16.54C140.83,132.31,122.02,134.78,101.15,134.78z"/>
	</g>
	<ellipse class="st2" cx="90.07" cy="59.44" rx="2.52" ry="5.28"/>
	<ellipse class="st2" cx="111.03" cy="59.74" rx="2.52" ry="5.28"/>
	<g class="st2">
		<path d="M100.61,80.25c-4.9,0-8.89-3.99-8.89-8.89c0-0.58,0.47-1.06,1.06-1.06c0.58,0,1.06,0.47,1.06,1.06
			c0,3.74,3.04,6.77,6.78,6.77c3.74,0,6.78-3.04,6.78-6.77c0-0.58,0.47-1.06,1.06-1.06c0.58,0,1.06,0.47,1.06,1.06
			C109.5,76.26,105.51,80.25,100.61,80.25z"/>
	</g>
	<g class="st2">
		<path d="M110.42,41.42c-0.06,0-0.12-0.01-0.19-0.02c-0.58-0.1-0.96-0.65-0.86-1.23c1.56-8.75,6.45-18.51,15.49-19.66
			c0.57-0.07,1.11,0.34,1.18,0.92c0.07,0.58-0.34,1.11-0.92,1.18c-7.9,1-12.25,9.92-13.68,17.93
			C111.37,41.06,110.92,41.42,110.42,41.42z"/>
	</g>
	<g class="st2">
		<path d="M91.63,41.49c-0.5,0-0.95-0.36-1.04-0.87c-1.43-8.01-5.77-16.93-13.68-17.93c-0.58-0.07-0.99-0.6-0.92-1.18
			c0.07-0.58,0.61-0.98,1.18-0.92c9.04,1.15,13.93,10.91,15.49,19.66c0.1,0.58-0.28,1.12-0.86,1.23
			C91.76,41.48,91.7,41.49,91.63,41.49z"/>
	</g>
	<g class="st2">
		<path class="st4" d="M94.78,97.22c0.19-0.97,0.54-1.74,1.05-2.31c0.51-0.57,1.1-0.95,1.76-1.16c0.66-0.21,1.37-0.26,2.13-0.16
			c0.76,0.1,1.47,0.34,2.15,0.71c0.68,0.37,1.27,0.84,1.78,1.42c0.51,0.58,0.87,1.24,1.08,1.98c0.21,0.74,0.21,1.54,0,2.4
			c-0.21,0.86-0.68,1.75-1.41,2.65c0.57,0.21,1.11,0.41,1.6,0.62c0.49,0.21,0.91,0.46,1.26,0.77c0.34,0.3,0.61,0.67,0.8,1.1
			c0.19,0.43,0.29,0.96,0.29,1.6c0,0.53-0.1,1.08-0.29,1.67c-0.19,0.59-0.46,1.17-0.8,1.75c-0.34,0.57-0.74,1.12-1.2,1.64
			c-0.45,0.52-0.94,0.98-1.47,1.37c-0.53,0.4-1.06,0.71-1.61,0.94c-0.55,0.23-1.09,0.35-1.61,0.35c-0.35,0-0.69-0.22-1.03-0.67
			c-0.33-0.45-0.66-1.04-0.98-1.77c-0.32-0.73-0.63-1.58-0.93-2.53c-0.3-0.96-0.58-1.95-0.84-2.98c-0.26-1.03-0.49-2.05-0.69-3.06
			c-0.21-1.01-0.39-1.95-0.54-2.81c-0.15-0.86-0.27-1.61-0.36-2.24C94.82,97.89,94.78,97.46,94.78,97.22z M97.5,99.44
			c0,0.29-0.01,0.64-0.02,1.06c-0.02,0.42-0.02,0.86,0,1.3c0.02,0.45,0.06,0.89,0.14,1.34c0.08,0.45,0.22,0.83,0.43,1.15
			c0.78-0.14,1.46-0.41,2.04-0.81c0.58-0.4,1.05-0.86,1.41-1.4c0.36-0.53,0.62-1.1,0.78-1.71c0.16-0.61,0.22-1.2,0.18-1.77
			c-0.04-0.57-0.18-1.1-0.41-1.58c-0.23-0.48-0.55-0.85-0.97-1.11c-0.41-0.26-0.92-0.39-1.51-0.39c-0.59,0-1.27,0.19-2.03,0.57
			c0,0.13,0,0.35-0.01,0.67c-0.01,0.32-0.02,0.65-0.02,1c-0.01,0.35-0.01,0.69-0.01,1C97.5,99.09,97.5,99.31,97.5,99.44z
			 M99.03,107.57c0,0.27,0.06,0.63,0.19,1.08c0.13,0.45,0.29,0.89,0.49,1.34c0.2,0.45,0.42,0.86,0.66,1.23
			c0.24,0.37,0.49,0.63,0.77,0.75c0.22,0.13,0.49,0.12,0.79-0.04c0.3-0.15,0.61-0.39,0.92-0.72c0.31-0.33,0.61-0.7,0.9-1.12
			c0.29-0.42,0.55-0.84,0.78-1.26c0.23-0.41,0.41-0.8,0.55-1.16c0.14-0.36,0.2-0.63,0.2-0.82c0-0.41-0.06-0.75-0.17-1.02
			c-0.11-0.26-0.27-0.47-0.49-0.63c-0.22-0.16-0.47-0.27-0.77-0.33c-0.3-0.06-0.62-0.1-0.97-0.1c-0.4,0-0.82,0.06-1.27,0.19
			c-0.45,0.13-0.86,0.31-1.23,0.55c-0.37,0.24-0.69,0.53-0.96,0.88C99.16,106.75,99.03,107.14,99.03,107.57z"/>
	</g>
	<circle class="st5" cx="38.12" cy="104.31" r="22.96"/>
	<circle class="st5" cx="148.41" cy="128.53" r="18.91"/>
	<circle class="st5" cx="61.98" cy="158.78" r="18.91"/>
</g>
<g id="Calque_2">
	<path class="st6" d="M172.8,196H27.2C14.94,196,5,186.06,5,173.8V28.2C5,15.94,14.94,6,27.2,6h145.6c12.26,0,22.2,9.94,22.2,22.2
		v145.6C195,186.06,185.06,196,172.8,196z"/>
	<g>
		<g>
			<path class="st7" d="M97.97,97.64c12.85-18.73,19.38-70.12,0-69.68S85.34,80,97.97,97.64z"/>
			<path class="st8" d="M97.99,99.5l-0.89-1.24c-4.86-6.78-9.12-19-11.13-31.88C83.82,52.61,84.56,40.77,88,33.89
				c2.24-4.48,5.68-6.9,9.95-7c4.19-0.1,7.6,2.07,9.87,6.25c3.57,6.6,4.41,18.37,2.29,32.29c-1.98,13.01-6.29,25.59-11.25,32.81
				L97.99,99.5z M98.21,29.02c-0.07,0-0.14,0-0.21,0c-3.48,0.08-6.2,2.04-8.09,5.82c-6.85,13.7-1.17,46.5,8.05,60.87
				c9.39-15.14,15.07-48.46,7.98-61.56C104.09,30.75,101.49,29.02,98.21,29.02z"/>
		</g>
		<g>
			<path class="st7" d="M97.05,97.9c1.76-22.64-18.28-70.42-34.84-60.35S77.29,88.94,97.05,97.9z"/>
			<path class="st8" d="M97.99,99.5l-1.39-0.63c-7.6-3.45-17.4-11.89-25.58-22.04C62.28,65.98,57,55.35,56.53,47.68
				c-0.3-5,1.47-8.82,5.12-11.04c3.58-2.18,7.62-2.01,11.67,0.48c6.39,3.93,13,13.71,18.13,26.82c4.79,12.26,7.34,25.3,6.66,34.04
				L97.99,99.5z M62.94,38.36c-0.06,0.04-0.12,0.07-0.18,0.11c-2.97,1.81-4.35,4.86-4.09,9.09C59.58,62.84,80.9,88.4,96.07,96.24
				c0.56-17.81-11.18-49.51-23.86-57.3C68.9,36.91,65.79,36.71,62.94,38.36z"/>
		</g>
		<g>
			<path class="st7" d="M96.37,98.59C86.58,78.1,45.34,46.74,36.02,63.75S74.78,100.71,96.37,98.59z"/>
			<path class="st8" d="M97.99,99.5l-1.51,0.15c-8.3,0.81-21.02-1.6-33.18-6.3c-13-5.03-22.89-11.59-27.12-18
				c-2.76-4.18-3.14-8.37-1.09-12.12c2.01-3.68,5.59-5.55,10.35-5.42c7.5,0.21,18.11,5.37,29.11,14.16
				c10.28,8.22,19.01,18.24,22.79,26.15L97.99,99.5z M37.06,64.07c-0.04,0.06-0.07,0.12-0.1,0.19c-1.67,3.05-1.33,6.39,1,9.92
				C46.4,86.95,77.64,98.44,94.7,97.64c-8.42-15.71-34.43-37.28-49.32-37.69C41.5,59.84,38.71,61.23,37.06,64.07z"/>
		</g>
		<g>
			<path class="st7" d="M96.13,99.52c-18.73-12.85-70.12-19.38-69.68,0S78.49,112.15,96.13,99.52z"/>
			<path class="st8" d="M97.99,99.5l-1.24,0.89c-6.78,4.86-19,9.12-31.88,11.13c-13.77,2.15-25.61,1.41-32.49-2.03
				c-4.48-2.24-6.9-5.68-7-9.95c-0.1-4.19,2.07-7.6,6.25-9.87c6.6-3.57,18.37-4.41,32.29-2.29c13.01,1.98,25.59,6.29,32.81,11.25
				L97.99,99.5z M27.51,99.28c0,0.07,0,0.14,0,0.21c0.08,3.48,2.04,6.2,5.82,8.09c13.7,6.85,46.5,1.17,60.87-8.05
				c-15.14-9.39-48.46-15.07-61.56-7.98C29.24,93.4,27.51,96,27.51,99.28z"/>
		</g>
		<g>
			<path class="st7" d="M96.39,100.45c-22.64-1.76-70.42,18.28-60.35,34.84S87.43,120.2,96.39,100.45z"/>
			<path class="st8" d="M97.99,99.5l-0.63,1.39c-3.45,7.6-11.89,17.4-22.04,25.58c-10.85,8.75-21.48,14.03-29.15,14.49
				c-5,0.3-8.82-1.47-11.04-5.12c-2.18-3.58-2.01-7.62,0.48-11.67c3.93-6.39,13.71-13,26.82-18.13c12.26-4.79,25.3-7.34,34.04-6.66
				L97.99,99.5z M36.84,134.55c0.04,0.06,0.07,0.12,0.11,0.18c1.81,2.97,4.86,4.35,9.09,4.09c15.29-0.92,40.85-22.23,48.69-37.41
				c-17.81-0.56-49.51,11.18-57.3,23.86C35.4,128.59,35.2,131.71,36.84,134.55z"/>
		</g>
		<g>
			<path class="st7" d="M97.08,101.12c-20.49,9.79-51.84,51.04-34.84,60.35S99.2,122.71,97.08,101.12z"/>
			<path class="st8" d="M97.99,99.5l0.15,1.51c0.81,8.3-1.6,21.02-6.3,33.18c-5.03,13-11.59,22.89-18,27.12
				c-4.18,2.76-8.37,3.14-12.12,1.09c-3.68-2.01-5.55-5.59-5.42-10.35c0.21-7.5,5.37-18.11,14.16-29.11
				c8.22-10.28,18.24-19.01,26.15-22.79L97.99,99.5z M62.56,160.43c0.06,0.04,0.12,0.07,0.19,0.1c3.05,1.67,6.39,1.33,9.92-1
				c12.78-8.44,24.26-39.68,23.47-56.74c-15.71,8.42-37.28,34.43-37.69,49.32C58.33,155.99,59.72,158.79,62.56,160.43z"/>
		</g>
		<g>
			<path class="st7" d="M98.01,101.36c-12.85,18.73-19.38,70.12,0,69.68S110.64,119,98.01,101.36z"/>
			<path class="st8" d="M97.99,99.5l0.89,1.24c4.86,6.78,9.12,19,11.13,31.88c2.15,13.77,1.41,25.61-2.03,32.49
				c-2.24,4.48-5.68,6.9-9.95,7c-4.19,0.1-7.6-2.07-9.87-6.25c-3.57-6.6-4.41-18.37-2.29-32.29c1.98-13.01,6.29-25.59,11.25-32.81
				L97.99,99.5z M97.77,169.98c0.07,0,0.14,0,0.21,0c3.48-0.08,6.2-2.04,8.09-5.82c6.85-13.7,1.17-46.5-8.05-60.87
				c-9.39,15.14-15.07,48.46-7.98,61.56C91.89,168.25,94.49,169.98,97.77,169.98z"/>
		</g>
		<g>
			<path class="st7" d="M98.94,101.1c-1.76,22.64,18.28,70.42,34.84,60.35C150.34,151.38,118.69,110.06,98.94,101.1z"/>
			<path class="st8" d="M97.99,99.5l1.39,0.63c7.6,3.45,17.4,11.89,25.58,22.04c8.75,10.85,14.03,21.48,14.49,29.15
				c0.3,5-1.47,8.82-5.12,11.04c-3.58,2.18-7.62,2.01-11.67-0.48c-6.39-3.93-13-13.71-18.13-26.82c-4.79-12.26-7.34-25.3-6.66-34.04
				L97.99,99.5z M133.04,160.65c0.06-0.04,0.12-0.07,0.18-0.11c2.97-1.81,4.35-4.86,4.09-9.09c-0.92-15.29-22.23-40.85-37.41-48.69
				c-0.56,17.81,11.18,49.51,23.86,57.3C127.08,162.09,130.19,162.29,133.04,160.65z"/>
		</g>
		<g>
			<path class="st7" d="M99.61,100.41c9.79,20.49,51.04,51.84,60.35,34.84S121.2,98.3,99.61,100.41z"/>
			<path class="st8" d="M97.99,99.5l1.51-0.15c8.3-0.81,21.02,1.6,33.18,6.3c13,5.03,22.89,11.59,27.12,18
				c2.76,4.18,3.14,8.37,1.09,12.12c-2.01,3.68-5.59,5.55-10.35,5.42c-7.5-0.21-18.11-5.37-29.11-14.16
				c-10.28-8.22-19.01-18.24-22.79-26.15L97.99,99.5z M158.92,134.93c0.04-0.06,0.07-0.12,0.1-0.19c1.67-3.05,1.33-6.39-1-9.92
				c-8.44-12.78-39.68-24.26-56.74-23.47c8.42,15.71,34.43,37.28,49.32,37.69C154.48,139.16,157.27,137.78,158.92,134.93z"/>
		</g>
		<g>
			<path class="st7" d="M99.85,99.48c18.73,12.85,70.12,19.38,69.68,0S117.49,86.85,99.85,99.48z"/>
			<path class="st8" d="M97.99,99.5l1.24-0.89c6.78-4.86,19-9.12,31.88-11.13c13.77-2.15,25.61-1.41,32.49,2.03
				c4.48,2.24,6.9,5.68,7,9.95c0.1,4.19-2.07,7.6-6.25,9.87c-6.6,3.57-18.37,4.41-32.29,2.29c-13.01-1.98-25.59-6.29-32.81-11.25
				L97.99,99.5z M168.47,99.72c0-0.07,0-0.14,0-0.21c-0.08-3.48-2.04-6.2-5.82-8.09c-13.7-6.85-46.5-1.17-60.87,8.05
				c15.14,9.39,48.46,15.07,61.56,7.98C166.74,105.61,168.47,103.01,168.47,99.72z"/>
		</g>
		<g>
			<path class="st7" d="M99.59,98.56c22.64,1.76,70.42-18.28,60.35-34.84C149.87,47.15,108.55,78.8,99.59,98.56z"/>
			<path class="st8" d="M97.99,99.5l0.63-1.39c3.45-7.6,11.89-17.4,22.04-25.58c10.85-8.75,21.48-14.03,29.15-14.49
				c5-0.3,8.82,1.47,11.04,5.12c2.18,3.58,2.01,7.62-0.48,11.67c-3.93,6.39-13.71,13-26.82,18.13c-12.26,4.79-25.3,7.34-34.04,6.66
				L97.99,99.5z M159.14,64.45c-0.04-0.06-0.07-0.12-0.11-0.18c-1.81-2.97-4.86-4.35-9.09-4.09c-15.29,0.92-40.85,22.23-48.69,37.41
				c17.81,0.56,49.51-11.18,57.3-23.86C160.58,70.41,160.78,67.3,159.14,64.45z"/>
		</g>
		<g>
			<path class="st7" d="M98.9,97.88c20.49-9.79,51.84-51.04,34.84-60.35S96.78,76.29,98.9,97.88z"/>
			<path class="st8" d="M97.99,99.5l-0.15-1.51c-0.81-8.3,1.6-21.02,6.3-33.18c5.03-13,11.59-22.89,18-27.12
				c4.18-2.76,8.37-3.14,12.12-1.09c3.68,2.01,5.55,5.59,5.42,10.35c-0.21,7.5-5.37,18.11-14.16,29.11
				c-8.22,10.28-18.24,19.01-26.15,22.79L97.99,99.5z M133.42,38.57c-0.06-0.04-0.12-0.07-0.19-0.1c-3.05-1.67-6.39-1.33-9.92,1
				c-12.78,8.44-24.26,39.68-23.47,56.74c15.71-8.42,37.28-34.43,37.69-49.32C137.65,43.01,136.26,40.22,133.42,38.57z"/>
		</g>
		<circle class="st3" cx="98.27" cy="99.56" r="40.38"/>
		<ellipse cx="90.18" cy="89.49" rx="1.95" ry="4.08"/>
		<ellipse cx="106.37" cy="89.72" rx="1.95" ry="4.08"/>
		<g>
			<path d="M98.75,110.51c-3.79,0-6.87-3.08-6.87-6.87c0-0.45,0.37-0.82,0.82-0.82s0.82,0.37,0.82,0.82c0,2.89,2.35,5.23,5.23,5.23
				c2.89,0,5.23-2.35,5.23-5.23c0-0.45,0.37-0.82,0.82-0.82s0.82,0.37,0.82,0.82C105.61,107.43,102.53,110.51,98.75,110.51z"/>
		</g>
		<ellipse class="st9" cx="106.56" cy="98.18" rx="4.08" ry="1.95"/>
		<ellipse class="st9" cx="90.66" cy="98.18" rx="4.08" ry="1.95"/>
	</g>
</g>
</svg>
