<?xml version="1.0" encoding="utf-8"?>
<!-- Generator: Adobe Illustrator 23.0.1, SVG Export Plug-In . SVG Version: 6.00 Build 0)  -->
<svg version="1.1" xmlns="http://www.w3.org/2000/svg" xmlns:xlink="http://www.w3.org/1999/xlink" x="0px" y="0px"
	 viewBox="0 0 200 200" style="enable-background:new 0 0 200 200;" xml:space="preserve">
<style type="text/css">
	.st0{display:none;}
	.st1{display:inline;fill:#E52929;}
	.st2{display:inline;}
	.st3{fill:#FFCD32;}
	.st4{fill:#FFFFFF;stroke:#FFFFFF;stroke-miterlimit:10;}
	.st5{display:inline;opacity:0.7;fill:#FFCD32;}
	.st6{fill:#41BDE4;stroke:#FFFFFF;stroke-width:8;stroke-miterlimit:10;}
	.st7{fill:#FFFFFF;}
	.st8{fill:#FFE499;}
	.st9{fill:#E52929;}
</style>
<g id="Calque_1" class="st0">
	<path class="st1" d="M112.25,80.15c0,0,67.02-45.67,75.19-19.67S112.25,80.15,112.25,80.15z"/>
	<path class="st1" d="M89.21,79.99c0,0-67.02-45.67-75.19-19.67S89.21,79.99,89.21,79.99z"/>
	<path class="st1" d="M113.03,80.81c0,0,39.61-70.77,58.52-51.14S113.03,80.81,113.03,80.81z"/>
	<path class="st1" d="M88.35,79.89c0,0-39.61-70.77-58.52-51.14S88.35,79.89,88.35,79.89z"/>
	<path class="st1" d="M101.06,177.86c0,0-51.14-2.16-75.27-13.68c11.34-6.3,19.27-80.85,21.79-88.05l107.09,0.07
		c2.52,7.2,10.44,81.75,21.79,88.05C161.02,173.36,117.44,177.86,101.06,177.86z"/>
	<g class="st2">
		<path class="st3" d="M154.06,128.35c2.85-7.15,4.66-14.97,5.18-23.21c-13.24,6.95-34.34,11.44-58.12,11.44
			c-23.52,0-44.43-4.4-57.69-11.22c0.54,8.2,2.36,15.99,5.21,23.11c13.22,3.89,31.86,6.31,52.51,6.31
			C122.02,134.78,140.83,132.31,154.06,128.35z"/>
		<path class="st3" d="M58.02,144.97c10.63,13.78,26.09,22.45,43.31,22.45c17.25,0,32.73-8.71,43.37-22.53
			c-12.14,4.53-27.24,7.71-43.61,7.71C84.96,152.59,70.07,149.45,58.02,144.97z"/>
		<path class="st3" d="M157.08,81.29c-7.04-27.95-29.34-48.38-55.75-48.38c-26.45,0-48.77,20.48-55.78,48.5
			c13.31,6.24,33.29,10.21,55.64,10.21C123.67,91.62,143.76,87.6,157.08,81.29z"/>
		<path d="M43.43,105.36c-0.11-1.71-0.17-3.45-0.17-5.2c0-6.51,0.8-12.8,2.29-18.75"/>
		<path d="M157.08,81.29c1.51,5.99,2.32,12.32,2.32,18.88c0,1.67-0.05,3.33-0.16,4.97"/>
		<path d="M159.24,105.14c0.1-1.64,0.16-3.3,0.16-4.97c0-6.55-0.81-12.89-2.32-18.88c-13.31,6.31-33.41,10.33-55.89,10.33
			c-22.34,0-42.32-3.97-55.64-10.21c-1.49,5.95-2.29,12.25-2.29,18.75c0,1.75,0.06,3.48,0.17,5.2
			c13.26,6.82,34.17,11.22,57.69,11.22C124.9,116.58,146,112.09,159.24,105.14z"/>
		<path d="M154.06,128.35c-2.42,6.05-5.58,11.62-9.37,16.54"/>
		<path d="M58.02,144.97c-3.79-4.91-6.96-10.46-9.38-16.5"/>
		<path d="M101.15,134.78c-20.66,0-39.3-2.42-52.51-6.31c2.42,6.04,5.6,11.59,9.38,16.5c12.05,4.49,26.94,7.63,43.07,7.63
			c16.37,0,31.47-3.18,43.61-7.71c3.78-4.92,6.95-10.48,9.37-16.54C140.83,132.31,122.02,134.78,101.15,134.78z"/>
	</g>
	<ellipse class="st2" cx="90.07" cy="59.44" rx="2.52" ry="5.28"/>
	<ellipse class="st2" cx="111.03" cy="59.74" rx="2.52" ry="5.28"/>
	<g class="st2">
		<path d="M100.61,80.25c-4.9,0-8.89-3.99-8.89-8.89c0-0.58,0.47-1.06,1.06-1.06c0.58,0,1.06,0.47,1.06,1.06
			c0,3.74,3.04,6.77,6.78,6.77c3.74,0,6.78-3.04,6.78-6.77c0-0.58,0.47-1.06,1.06-1.06c0.58,0,1.06,0.47,1.06,1.06
			C109.5,76.26,105.51,80.25,100.61,80.25z"/>
	</g>
	<g class="st2">
		<path d="M110.42,41.42c-0.06,0-0.12-0.01-0.19-0.02c-0.58-0.1-0.96-0.65-0.86-1.23c1.56-8.75,6.45-18.51,15.49-19.66
			c0.57-0.07,1.11,0.34,1.18,0.92c0.07,0.58-0.34,1.11-0.92,1.18c-7.9,1-12.25,9.92-13.68,17.93
			C111.37,41.06,110.92,41.42,110.42,41.42z"/>
	</g>
	<g class="st2">
		<path d="M91.63,41.49c-0.5,0-0.95-0.36-1.04-0.87c-1.43-8.01-5.77-16.93-13.68-17.93c-0.58-0.07-0.99-0.6-0.92-1.18
			c0.07-0.58,0.61-0.98,1.18-0.92c9.04,1.15,13.93,10.91,15.49,19.66c0.1,0.58-0.28,1.12-0.86,1.23
			C91.76,41.48,91.7,41.49,91.63,41.49z"/>
	</g>
	<g class="st2">
		<path class="st4" d="M94.78,97.22c0.19-0.97,0.54-1.74,1.05-2.31c0.51-0.57,1.1-0.95,1.76-1.16c0.66-0.21,1.37-0.26,2.13-0.16
			c0.76,0.1,1.47,0.34,2.15,0.71c0.68,0.37,1.27,0.84,1.78,1.42c0.51,0.58,0.87,1.24,1.08,1.98c0.21,0.74,0.21,1.54,0,2.4
			c-0.21,0.86-0.68,1.75-1.41,2.65c0.57,0.21,1.11,0.41,1.6,0.62c0.49,0.21,0.91,0.46,1.26,0.77c0.34,0.3,0.61,0.67,0.8,1.1
			c0.19,0.43,0.29,0.96,0.29,1.6c0,0.53-0.1,1.08-0.29,1.67c-0.19,0.59-0.46,1.17-0.8,1.75c-0.34,0.57-0.74,1.12-1.2,1.64
			c-0.45,0.52-0.94,0.98-1.47,1.37c-0.53,0.4-1.06,0.71-1.61,0.94c-0.55,0.23-1.09,0.35-1.61,0.35c-0.35,0-0.69-0.22-1.03-0.67
			c-0.33-0.45-0.66-1.04-0.98-1.77c-0.32-0.73-0.63-1.58-0.93-2.53c-0.3-0.96-0.58-1.95-0.84-2.98c-0.26-1.03-0.49-2.05-0.69-3.06
			c-0.21-1.01-0.39-1.95-0.54-2.81c-0.15-0.86-0.27-1.61-0.36-2.24C94.82,97.89,94.78,97.46,94.78,97.22z M97.5,99.44
			c0,0.29-0.01,0.64-0.02,1.06c-0.02,0.42-0.02,0.86,0,1.3c0.02,0.45,0.06,0.89,0.14,1.34c0.08,0.45,0.22,0.83,0.43,1.15
			c0.78-0.14,1.46-0.41,2.04-0.81c0.58-0.4,1.05-0.86,1.41-1.4c0.36-0.53,0.62-1.1,0.78-1.71c0.16-0.61,0.22-1.2,0.18-1.77
			c-0.04-0.57-0.18-1.1-0.41-1.58c-0.23-0.48-0.55-0.85-0.97-1.11c-0.41-0.26-0.92-0.39-1.51-0.39c-0.59,0-1.27,0.19-2.03,0.57
			c0,0.13,0,0.35-0.01,0.67c-0.01,0.32-0.02,0.65-0.02,1c-0.01,0.35-0.01,0.69-0.01,1C97.5,99.09,97.5,99.31,97.5,99.44z
			 M99.03,107.57c0,0.27,0.06,0.63,0.19,1.08c0.13,0.45,0.29,0.89,0.49,1.34c0.2,0.45,0.42,0.86,0.66,1.23
			c0.24,0.37,0.49,0.63,0.77,0.75c0.22,0.13,0.49,0.12,0.79-0.04c0.3-0.15,0.61-0.39,0.92-0.72c0.31-0.33,0.61-0.7,0.9-1.12
			c0.29-0.42,0.55-0.84,0.78-1.26c0.23-0.41,0.41-0.8,0.55-1.16c0.14-0.36,0.2-0.63,0.2-0.82c0-0.41-0.06-0.75-0.17-1.02
			c-0.11-0.26-0.27-0.47-0.49-0.63c-0.22-0.16-0.47-0.27-0.77-0.33c-0.3-0.06-0.62-0.1-0.97-0.1c-0.4,0-0.82,0.06-1.27,0.19
			c-0.45,0.13-0.86,0.31-1.23,0.55c-0.37,0.24-0.69,0.53-0.96,0.88C99.16,106.75,99.03,107.14,99.03,107.57z"/>
	</g>
	<circle class="st5" cx="38.12" cy="104.31" r="22.96"/>
	<circle class="st5" cx="148.41" cy="128.53" r="18.91"/>
	<circle class="st5" cx="61.98" cy="158.78" r="18.91"/>
</g>
<g id="Calque_2">
	<circle class="st6" cx="100.4" cy="100.3" r="94.6"/>
	<g>
		<g>
			<path class="st7" d="M99.78,96.65c11.64-16.97,17.56-63.54,0-63.14S88.34,80.66,99.78,96.65z"/>
			<path class="st8" d="M99.8,98.33L99,97.21c-4.4-6.15-8.27-17.22-10.09-28.89c-1.95-12.48-1.28-23.21,1.84-29.44
				c2.03-4.06,5.15-6.26,9.01-6.34c3.8-0.09,6.89,1.87,8.94,5.66c3.24,5.98,3.99,16.65,2.07,29.26
				c-1.79,11.79-5.7,23.18-10.19,29.73L99.8,98.33z M100,34.47c-0.06,0-0.13,0-0.19,0c-3.15,0.07-5.62,1.85-7.33,5.27
				c-6.2,12.42-1.06,42.13,7.29,55.16c8.51-13.72,13.66-43.91,7.23-55.78C105.33,36.03,102.98,34.47,100,34.47z"/>
		</g>
		<g>
			<path class="st7" d="M98.94,96.88c1.6-20.52-16.56-63.81-31.57-54.68S81.04,88.76,98.94,96.88z"/>
			<path class="st8" d="M99.8,98.33l-1.26-0.57c-6.89-3.12-15.77-10.78-23.18-19.97c-7.93-9.83-12.71-19.46-13.13-26.41
				c-0.27-4.53,1.33-7.99,4.64-10c3.25-1.97,6.9-1.82,10.57,0.43c5.79,3.56,11.78,12.42,16.42,24.3
				c4.34,11.11,6.65,22.93,6.04,30.85L99.8,98.33z M68.04,42.92c-0.06,0.03-0.11,0.06-0.17,0.1c-2.69,1.64-3.94,4.41-3.71,8.23
				C65,65.11,84.31,88.27,98.06,95.38c0.51-16.14-10.13-44.86-21.62-51.92C73.44,41.61,70.62,41.44,68.04,42.92z"/>
		</g>
		<g>
			<path class="st7" d="M98.33,97.5c-8.87-18.57-46.24-46.98-54.68-31.57S78.77,99.42,98.33,97.5z"/>
			<path class="st8" d="M99.8,98.33l-1.37,0.13c-7.53,0.74-19.04-1.45-30.06-5.71c-11.78-4.55-20.74-10.5-24.58-16.31
				c-2.5-3.79-2.84-7.59-0.99-10.98c1.82-3.33,5.07-5.03,9.38-4.91c6.8,0.19,16.41,4.87,26.37,12.83
				c9.31,7.45,17.23,16.53,20.65,23.7L99.8,98.33z M44.59,66.23c-0.03,0.06-0.06,0.11-0.09,0.17c-1.51,2.76-1.21,5.79,0.9,8.98
				c7.65,11.58,35.96,21.99,51.41,21.26c-7.63-14.23-31.2-33.78-44.69-34.16C48.62,62.39,46.08,63.65,44.59,66.23z"/>
		</g>
		<g>
			<path class="st7" d="M98.12,98.35c-16.97-11.64-63.54-17.56-63.14,0C35.37,115.91,82.13,109.79,98.12,98.35z"/>
			<path class="st8" d="M99.8,98.33l-1.12,0.8c-6.15,4.4-17.22,8.27-28.89,10.09c-12.48,1.95-23.21,1.28-29.44-1.84
				c-4.06-2.03-6.26-5.15-6.34-9.01c-0.09-3.8,1.87-6.89,5.66-8.94c5.98-3.24,16.65-3.99,29.26-2.07
				c11.79,1.79,23.18,5.7,29.73,10.19L99.8,98.33z M35.94,98.13c0,0.06,0,0.13,0,0.19c0.07,3.15,1.85,5.62,5.27,7.33
				c12.42,6.2,42.13,1.06,55.16-7.29c-13.72-8.51-43.91-13.66-55.78-7.23C37.5,92.8,35.94,95.15,35.94,98.13z"/>
		</g>
		<g>
			<path class="st7" d="M98.35,99.18c-20.52-1.6-63.81,16.56-54.68,31.57C52.79,145.77,90.23,117.09,98.35,99.18z"/>
			<path class="st8" d="M99.8,98.33l-0.57,1.26c-3.12,6.89-10.78,15.77-19.97,23.18c-9.83,7.93-19.46,12.71-26.41,13.13
				c-4.53,0.27-7.99-1.33-10-4.64c-1.97-3.25-1.82-6.9,0.43-10.57c3.56-5.79,12.42-11.78,24.3-16.42
				c11.11-4.34,22.93-6.65,30.85-6.04L99.8,98.33z M44.4,130.09c0.03,0.06,0.06,0.11,0.1,0.17c1.64,2.69,4.41,3.94,8.23,3.71
				c13.85-0.83,37.02-20.15,44.12-33.89c-16.14-0.51-44.86,10.13-51.92,21.62C43.08,124.69,42.91,127.51,44.4,130.09z"/>
		</g>
		<g>
			<path class="st7" d="M98.97,99.79C80.41,108.67,52,146.04,67.4,154.48C82.81,162.92,100.89,119.36,98.97,99.79z"/>
			<path class="st8" d="M99.8,98.33l0.13,1.37c0.74,7.53-1.45,19.04-5.71,30.06c-4.55,11.78-10.5,20.74-16.31,24.58
				c-3.79,2.5-7.59,2.84-10.98,0.99c-3.33-1.82-5.03-5.07-4.91-9.38c0.19-6.8,4.87-16.41,12.83-26.37
				c7.45-9.31,16.53-17.23,23.7-20.65L99.8,98.33z M67.7,153.54c0.06,0.03,0.11,0.06,0.17,0.09c2.76,1.51,5.79,1.21,8.98-0.9
				c11.58-7.65,21.99-35.96,21.26-51.41c-14.23,7.63-33.78,31.2-34.16,44.69C63.86,149.51,65.12,152.05,67.7,153.54z"/>
		</g>
		<g>
			<path class="st7" d="M99.82,100.01c-11.64,16.97-17.56,63.54,0,63.14S111.26,115.99,99.82,100.01z"/>
			<path class="st8" d="M99.8,98.33l0.8,1.12c4.4,6.15,8.27,17.22,10.09,28.89c1.95,12.48,1.28,23.21-1.84,29.44
				c-2.03,4.06-5.15,6.26-9.01,6.34c-3.8,0.09-6.89-1.87-8.94-5.66c-3.24-5.98-3.99-16.65-2.07-29.26
				c1.79-11.79,5.7-23.18,10.19-29.73L99.8,98.33z M99.6,162.19c0.06,0,0.13,0,0.19,0c3.15-0.07,5.62-1.85,7.33-5.27
				c6.2-12.42,1.06-42.13-7.29-55.16c-8.51,13.72-13.66,43.91-7.23,55.78C94.27,160.63,96.63,162.19,99.6,162.19z"/>
		</g>
		<g>
			<path class="st7" d="M100.66,99.78c-1.6,20.52,16.56,63.81,31.57,54.68C147.24,145.34,118.56,107.9,100.66,99.78z"/>
			<path class="st8" d="M99.8,98.33l1.26,0.57c6.89,3.12,15.77,10.78,23.18,19.97c7.93,9.83,12.71,19.46,13.13,26.41
				c0.27,4.53-1.33,7.99-4.64,10c-3.25,1.97-6.9,1.82-10.57-0.43c-5.79-3.56-11.78-12.42-16.42-24.3
				c-4.34-11.11-6.65-22.93-6.04-30.85L99.8,98.33z M131.56,153.73c0.06-0.03,0.11-0.06,0.17-0.1c2.69-1.64,3.94-4.41,3.71-8.23
				c-0.83-13.85-20.15-37.02-33.89-44.12c-0.51,16.14,10.13,44.86,21.62,51.92C126.16,155.05,128.98,155.22,131.56,153.73z"/>
		</g>
		<g>
			<path class="st7" d="M101.27,99.16c8.87,18.57,46.24,46.98,54.68,31.57C164.39,115.32,120.83,97.24,101.27,99.16z"/>
			<path class="st8" d="M99.8,98.33l1.37-0.13c7.53-0.74,19.04,1.45,30.06,5.71c11.78,4.55,20.74,10.5,24.58,16.31
				c2.5,3.79,2.84,7.59,0.99,10.98c-1.82,3.33-5.07,5.03-9.38,4.91c-6.8-0.19-16.41-4.87-26.37-12.83
				c-9.31-7.45-17.23-16.53-20.65-23.7L99.8,98.33z M155.01,130.43c0.03-0.06,0.06-0.11,0.09-0.17c1.51-2.76,1.21-5.79-0.9-8.98
				c-7.65-11.58-35.96-21.99-51.41-21.26c7.63,14.23,31.2,33.78,44.69,34.16C150.99,134.27,153.52,133.01,155.01,130.43z"/>
		</g>
		<g>
			<path class="st7" d="M101.48,98.31c16.97,11.64,63.54,17.56,63.14,0S117.47,86.87,101.48,98.31z"/>
			<path class="st8" d="M99.8,98.33l1.12-0.8c6.15-4.4,17.22-8.27,28.89-10.09c12.48-1.95,23.21-1.28,29.44,1.84
				c4.06,2.03,6.26,5.15,6.34,9.01c0.09,3.8-1.87,6.89-5.66,8.94c-5.98,3.24-16.65,3.99-29.26,2.07
				c-11.79-1.79-23.18-5.7-29.73-10.19L99.8,98.33z M163.66,98.53c0-0.06,0-0.13,0-0.19c-0.07-3.15-1.85-5.62-5.27-7.33
				c-12.42-6.2-42.13-1.06-55.16,7.29c13.72,8.51,43.91,13.66,55.78,7.23C162.1,103.86,163.66,101.5,163.66,98.53z"/>
		</g>
		<g>
			<path class="st7" d="M101.25,97.47c20.52,1.6,63.81-16.56,54.68-31.57S109.37,79.57,101.25,97.47z"/>
			<path class="st8" d="M99.8,98.33l0.57-1.26c3.12-6.89,10.78-15.77,19.97-23.18c9.83-7.93,19.46-12.71,26.41-13.13
				c4.53-0.27,7.99,1.33,10,4.64c1.97,3.25,1.82,6.9-0.43,10.57c-3.56,5.79-12.42,11.78-24.3,16.42
				c-11.11,4.34-22.93,6.65-30.85,6.04L99.8,98.33z M155.21,66.57c-0.03-0.06-0.06-0.11-0.1-0.17c-1.64-2.69-4.41-3.94-8.23-3.71
				c-13.85,0.83-37.02,20.15-44.12,33.89c16.14,0.51,44.86-10.13,51.92-21.62C156.52,71.97,156.69,69.15,155.21,66.57z"/>
		</g>
		<g>
			<path class="st7" d="M100.63,96.86c18.57-8.87,46.98-46.24,31.57-54.68S98.71,77.3,100.63,96.86z"/>
			<path class="st8" d="M99.8,98.33l-0.13-1.37c-0.74-7.53,1.45-19.04,5.71-30.06c4.55-11.78,10.5-20.74,16.31-24.58
				c3.79-2.5,7.59-2.84,10.98-0.99c3.33,1.82,5.03,5.07,4.91,9.38c-0.19,6.8-4.87,16.41-12.83,26.37
				c-7.45,9.31-16.53,17.23-23.7,20.65L99.8,98.33z M131.9,43.12c-0.06-0.03-0.11-0.06-0.17-0.09c-2.76-1.51-5.79-1.21-8.98,0.9
				c-11.58,7.65-21.99,35.96-21.26,51.41c14.23-7.63,33.78-31.2,34.16-44.69C135.74,47.14,134.48,44.61,131.9,43.12z"/>
		</g>
		<circle class="st3" cx="100.05" cy="98.38" r="36.59"/>
		<ellipse cx="92.73" cy="89.26" rx="1.76" ry="3.7"/>
		<ellipse cx="107.4" cy="89.47" rx="1.76" ry="3.7"/>
		<g>
			<path d="M100.49,108.3c-3.43,0-6.22-2.79-6.22-6.22c0-0.41,0.33-0.74,0.74-0.74c0.41,0,0.74,0.33,0.74,0.74
				c0,2.61,2.13,4.74,4.74,4.74c2.61,0,4.74-2.13,4.74-4.74c0-0.41,0.33-0.74,0.74-0.74c0.41,0,0.74,0.33,0.74,0.74
				C106.71,105.51,103.92,108.3,100.49,108.3z"/>
		</g>
		<ellipse class="st9" cx="107.56" cy="97.13" rx="3.7" ry="1.76"/>
		<ellipse class="st9" cx="93.16" cy="97.13" rx="3.7" ry="1.76"/>
	</g>
</g>
</svg>
