<?xml version="1.0" encoding="utf-8"?>
<!-- Generator: Adobe Illustrator 23.0.1, SVG Export Plug-In . SVG Version: 6.00 Build 0)  -->
<svg version="1.1" xmlns="http://www.w3.org/2000/svg" xmlns:xlink="http://www.w3.org/1999/xlink" x="0px" y="0px"
	 viewBox="0 0 200 200" style="enable-background:new 0 0 200 200;" xml:space="preserve">
<style type="text/css">
	.st0{display:none;}
	.st1{display:inline;fill:#E52929;}
	.st2{display:inline;}
	.st3{fill:#FFCD32;}
	.st4{fill:#FFFFFF;stroke:#FFFFFF;stroke-miterlimit:10;}
	.st5{display:inline;opacity:0.7;fill:#FFCD32;}
	.st6{fill:#41BDE4;}
	.st7{fill:#0C9439;}
	.st8{fill:#FFFFFF;}
	.st9{fill:#FFE499;}
	.st10{fill:#E52929;}
	.st11{fill:#E42929;}
</style>
<g id="Calque_1" class="st0">
	<path class="st1" d="M112.25,80.15c0,0,67.02-45.67,75.19-19.67S112.25,80.15,112.25,80.15z"/>
	<path class="st1" d="M89.21,79.99c0,0-67.02-45.67-75.19-19.67S89.21,79.99,89.21,79.99z"/>
	<path class="st1" d="M113.03,80.81c0,0,39.61-70.77,58.52-51.14S113.03,80.81,113.03,80.81z"/>
	<path class="st1" d="M88.35,79.89c0,0-39.61-70.77-58.52-51.14S88.35,79.89,88.35,79.89z"/>
	<path class="st1" d="M101.06,177.86c0,0-51.14-2.16-75.27-13.68c11.34-6.3,19.27-80.85,21.79-88.05l107.09,0.07
		c2.52,7.2,10.44,81.75,21.79,88.05C161.02,173.36,117.44,177.86,101.06,177.86z"/>
	<g class="st2">
		<path class="st3" d="M154.06,128.35c2.85-7.15,4.66-14.97,5.18-23.21c-13.24,6.95-34.34,11.44-58.12,11.44
			c-23.52,0-44.43-4.4-57.69-11.22c0.54,8.2,2.36,15.99,5.21,23.11c13.22,3.89,31.86,6.31,52.51,6.31
			C122.02,134.78,140.83,132.31,154.06,128.35z"/>
		<path class="st3" d="M58.02,144.97c10.63,13.78,26.09,22.45,43.31,22.45c17.25,0,32.73-8.71,43.37-22.53
			c-12.14,4.53-27.24,7.71-43.61,7.71C84.96,152.59,70.07,149.45,58.02,144.97z"/>
		<path class="st3" d="M157.08,81.29c-7.04-27.95-29.34-48.38-55.75-48.38c-26.45,0-48.77,20.48-55.78,48.5
			c13.31,6.24,33.29,10.21,55.64,10.21C123.67,91.62,143.76,87.6,157.08,81.29z"/>
		<path d="M43.43,105.36c-0.11-1.71-0.17-3.45-0.17-5.2c0-6.51,0.8-12.8,2.29-18.75"/>
		<path d="M157.08,81.29c1.51,5.99,2.32,12.32,2.32,18.88c0,1.67-0.05,3.33-0.16,4.97"/>
		<path d="M159.24,105.14c0.1-1.64,0.16-3.3,0.16-4.97c0-6.55-0.81-12.89-2.32-18.88c-13.31,6.31-33.41,10.33-55.89,10.33
			c-22.34,0-42.32-3.97-55.64-10.21c-1.49,5.95-2.29,12.25-2.29,18.75c0,1.75,0.06,3.48,0.17,5.2
			c13.26,6.82,34.17,11.22,57.69,11.22C124.9,116.58,146,112.09,159.24,105.14z"/>
		<path d="M154.06,128.35c-2.42,6.05-5.58,11.62-9.37,16.54"/>
		<path d="M58.02,144.97c-3.79-4.91-6.96-10.46-9.38-16.5"/>
		<path d="M101.15,134.78c-20.66,0-39.3-2.42-52.51-6.31c2.42,6.04,5.6,11.59,9.38,16.5c12.05,4.49,26.94,7.63,43.07,7.63
			c16.37,0,31.47-3.18,43.61-7.71c3.78-4.92,6.95-10.48,9.37-16.54C140.83,132.31,122.02,134.78,101.15,134.78z"/>
	</g>
	<ellipse class="st2" cx="90.07" cy="59.44" rx="2.52" ry="5.28"/>
	<ellipse class="st2" cx="111.03" cy="59.74" rx="2.52" ry="5.28"/>
	<g class="st2">
		<path d="M100.61,80.25c-4.9,0-8.89-3.99-8.89-8.89c0-0.58,0.47-1.06,1.06-1.06c0.58,0,1.06,0.47,1.06,1.06
			c0,3.74,3.04,6.77,6.78,6.77c3.74,0,6.78-3.04,6.78-6.77c0-0.58,0.47-1.06,1.06-1.06c0.58,0,1.06,0.47,1.06,1.06
			C109.5,76.26,105.51,80.25,100.61,80.25z"/>
	</g>
	<g class="st2">
		<path d="M110.42,41.42c-0.06,0-0.12-0.01-0.19-0.02c-0.58-0.1-0.96-0.65-0.86-1.23c1.56-8.75,6.45-18.51,15.49-19.66
			c0.57-0.07,1.11,0.34,1.18,0.92c0.07,0.58-0.34,1.11-0.92,1.18c-7.9,1-12.25,9.92-13.68,17.93
			C111.37,41.06,110.92,41.42,110.42,41.42z"/>
	</g>
	<g class="st2">
		<path d="M91.63,41.49c-0.5,0-0.95-0.36-1.04-0.87c-1.43-8.01-5.77-16.93-13.68-17.93c-0.58-0.07-0.99-0.6-0.92-1.18
			c0.07-0.58,0.61-0.98,1.18-0.92c9.04,1.15,13.93,10.91,15.49,19.66c0.1,0.58-0.28,1.12-0.86,1.23
			C91.76,41.48,91.7,41.49,91.63,41.49z"/>
	</g>
	<g class="st2">
		<path class="st4" d="M94.78,97.22c0.19-0.97,0.54-1.74,1.05-2.31c0.51-0.57,1.1-0.95,1.76-1.16c0.66-0.21,1.37-0.26,2.13-0.16
			c0.76,0.1,1.47,0.34,2.15,0.71c0.68,0.37,1.27,0.84,1.78,1.42c0.51,0.58,0.87,1.24,1.08,1.98c0.21,0.74,0.21,1.54,0,2.4
			c-0.21,0.86-0.68,1.75-1.41,2.65c0.57,0.21,1.11,0.41,1.6,0.62c0.49,0.21,0.91,0.46,1.26,0.77c0.34,0.3,0.61,0.67,0.8,1.1
			c0.19,0.43,0.29,0.96,0.29,1.6c0,0.53-0.1,1.08-0.29,1.67c-0.19,0.59-0.46,1.17-0.8,1.75c-0.34,0.57-0.74,1.12-1.2,1.64
			c-0.45,0.52-0.94,0.98-1.47,1.37c-0.53,0.4-1.06,0.71-1.61,0.94c-0.55,0.23-1.09,0.35-1.61,0.35c-0.35,0-0.69-0.22-1.03-0.67
			c-0.33-0.45-0.66-1.04-0.98-1.77c-0.32-0.73-0.63-1.58-0.93-2.53c-0.3-0.96-0.58-1.95-0.84-2.98c-0.26-1.03-0.49-2.05-0.69-3.06
			c-0.21-1.01-0.39-1.95-0.54-2.81c-0.15-0.86-0.27-1.61-0.36-2.24C94.82,97.89,94.78,97.46,94.78,97.22z M97.5,99.44
			c0,0.29-0.01,0.64-0.02,1.06c-0.02,0.42-0.02,0.86,0,1.3c0.02,0.45,0.06,0.89,0.14,1.34c0.08,0.45,0.22,0.83,0.43,1.15
			c0.78-0.14,1.46-0.41,2.04-0.81c0.58-0.4,1.05-0.86,1.41-1.4c0.36-0.53,0.62-1.1,0.78-1.71c0.16-0.61,0.22-1.2,0.18-1.77
			c-0.04-0.57-0.18-1.1-0.41-1.58c-0.23-0.48-0.55-0.85-0.97-1.11c-0.41-0.26-0.92-0.39-1.51-0.39c-0.59,0-1.27,0.19-2.03,0.57
			c0,0.13,0,0.35-0.01,0.67c-0.01,0.32-0.02,0.65-0.02,1c-0.01,0.35-0.01,0.69-0.01,1C97.5,99.09,97.5,99.31,97.5,99.44z
			 M99.03,107.57c0,0.27,0.06,0.63,0.19,1.08c0.13,0.45,0.29,0.89,0.49,1.34c0.2,0.45,0.42,0.86,0.66,1.23
			c0.24,0.37,0.49,0.63,0.77,0.75c0.22,0.13,0.49,0.12,0.79-0.04c0.3-0.15,0.61-0.39,0.92-0.72c0.31-0.33,0.61-0.7,0.9-1.12
			c0.29-0.42,0.55-0.84,0.78-1.26c0.23-0.41,0.41-0.8,0.55-1.16c0.14-0.36,0.2-0.63,0.2-0.82c0-0.41-0.06-0.75-0.17-1.02
			c-0.11-0.26-0.27-0.47-0.49-0.63c-0.22-0.16-0.47-0.27-0.77-0.33c-0.3-0.06-0.62-0.1-0.97-0.1c-0.4,0-0.82,0.06-1.27,0.19
			c-0.45,0.13-0.86,0.31-1.23,0.55c-0.37,0.24-0.69,0.53-0.96,0.88C99.16,106.75,99.03,107.14,99.03,107.57z"/>
	</g>
	<circle class="st5" cx="38.12" cy="104.31" r="22.96"/>
	<circle class="st5" cx="148.41" cy="128.53" r="18.91"/>
	<circle class="st5" cx="61.98" cy="158.78" r="18.91"/>
</g>
<g id="Calque_2">
	<circle class="st6" cx="99.4" cy="102.83" r="95.17"/>
	<path class="st7" d="M94.48,133.92c2.37,10.88,7.1,32.18,1.89,50.64s7.57,0.47,7.57,0.47s-4.73-44.48,4.73-55.37
		S94.48,133.92,94.48,133.92z"/>
	<g>
		<g>
			<path class="st8" d="M98.78,99.15c11.71-17.07,17.67-63.92,0-63.52C81.11,36.03,87.27,83.07,98.78,99.15z"/>
			<path class="st9" d="M98.8,100.85l-0.81-1.13c-4.43-6.18-8.32-17.32-10.15-29.06c-1.96-12.55-1.28-23.35,1.85-29.62
				c2.04-4.09,5.18-6.29,9.07-6.38c3.82-0.09,6.93,1.88,8.99,5.7c3.26,6.02,4.02,16.75,2.08,29.43
				c-1.81,11.86-5.74,23.32-10.26,29.91L98.8,100.85z M99,36.6c-0.06,0-0.13,0-0.19,0c-3.17,0.07-5.65,1.86-7.37,5.31
				c-6.24,12.49-1.07,42.39,7.34,55.49c8.56-13.8,13.74-44.18,7.28-56.12C104.36,38.17,101.99,36.6,99,36.6z"/>
		</g>
		<g>
			<path class="st8" d="M97.94,99.39c1.61-20.64-16.66-64.19-31.76-55.01S79.92,91.22,97.94,99.39z"/>
			<path class="st9" d="M98.8,100.85l-1.26-0.57c-6.93-3.14-15.86-10.84-23.32-20.09C66.24,70.28,61.43,60.6,61.01,53.6
				c-0.27-4.56,1.34-8.04,4.66-10.06c3.27-1.99,6.94-1.83,10.64,0.44c5.83,3.58,11.85,12.5,16.52,24.45
				c4.37,11.18,6.69,23.07,6.07,31.03L98.8,100.85z M66.85,45.11c-0.06,0.03-0.11,0.07-0.17,0.1c-2.71,1.65-3.96,4.43-3.73,8.28
				c0.84,13.94,20.27,37.24,34.1,44.39c0.51-16.24-10.19-45.13-21.75-52.24C72.28,43.79,69.44,43.61,66.85,45.11z"/>
		</g>
		<g>
			<path class="st8" d="M97.32,100.01C88.39,81.33,50.8,52.75,42.31,68.25S77.64,101.94,97.32,100.01z"/>
			<path class="st9" d="M98.8,100.85l-1.38,0.14c-7.57,0.74-19.16-1.46-30.24-5.74c-11.85-4.58-20.86-10.56-24.73-16.41
				c-2.52-3.81-2.86-7.63-0.99-11.04c1.83-3.35,5.1-5.06,9.43-4.94c6.84,0.19,16.51,4.9,26.53,12.91
				c9.37,7.49,17.33,16.63,20.78,23.84L98.8,100.85z M43.26,68.55c-0.03,0.06-0.06,0.11-0.1,0.17c-1.52,2.78-1.22,5.82,0.91,9.04
				c7.7,11.65,36.17,22.12,51.72,21.39C88.12,84.83,64.4,65.16,50.83,64.79C47.3,64.69,44.75,65.96,43.26,68.55z"/>
		</g>
		<g>
			<path class="st8" d="M97.1,100.86c-17.07-11.71-63.92-17.67-63.52,0C33.98,118.53,81.02,112.38,97.1,100.86z"/>
			<path class="st9" d="M98.8,100.85l-1.13,0.81c-6.18,4.43-17.32,8.32-29.06,10.15c-12.55,1.96-23.35,1.28-29.62-1.85
				c-4.09-2.04-6.29-5.18-6.38-9.07c-0.09-3.82,1.88-6.93,5.7-8.99c6.02-3.26,16.75-4.02,29.43-2.08
				c11.86,1.81,23.32,5.74,29.91,10.26L98.8,100.85z M34.55,100.65c0,0.06,0,0.13,0,0.19c0.07,3.17,1.86,5.65,5.31,7.37
				c12.49,6.24,42.39,1.07,55.49-7.34c-13.8-8.56-44.18-13.74-56.12-7.28C36.12,95.28,34.55,97.65,34.55,100.65z"/>
		</g>
		<g>
			<path class="st8" d="M97.34,101.71c-20.64-1.61-64.19,16.66-55.01,31.76C51.5,148.57,89.17,119.72,97.34,101.71z"/>
			<path class="st9" d="M98.8,100.85l-0.57,1.26c-3.14,6.93-10.84,15.86-20.09,23.32c-9.89,7.97-19.58,12.79-26.57,13.21
				c-4.56,0.27-8.04-1.34-10.06-4.66c-1.99-3.27-1.83-6.94,0.44-10.64c3.58-5.83,12.5-11.85,24.45-16.52
				c11.18-4.37,23.07-6.69,31.03-6.07L98.8,100.85z M43.06,132.8c0.03,0.06,0.07,0.11,0.1,0.17c1.65,2.71,4.43,3.96,8.28,3.73
				c13.94-0.84,37.24-20.27,44.39-34.1c-16.24-0.51-45.13,10.19-52.24,21.75C41.74,127.36,41.56,130.2,43.06,132.8z"/>
		</g>
		<g>
			<path class="st8" d="M97.96,102.32c-18.68,8.93-47.26,46.52-31.76,55.01S99.9,122,97.96,102.32z"/>
			<path class="st9" d="M98.8,100.85l0.14,1.38c0.74,7.57-1.46,19.16-5.74,30.24c-4.58,11.85-10.56,20.86-16.41,24.73
				c-3.81,2.52-7.63,2.86-11.04,0.99c-3.35-1.83-5.06-5.1-4.94-9.43c0.19-6.84,4.9-16.51,12.91-26.53
				c7.49-9.37,16.63-17.33,23.84-20.78L98.8,100.85z M66.5,156.39c0.06,0.03,0.11,0.06,0.17,0.1c2.78,1.52,5.82,1.22,9.04-0.91
				c11.65-7.7,22.12-36.17,21.39-51.72c-14.32,7.67-33.99,31.39-34.36,44.96C62.64,152.34,63.91,154.89,66.5,156.39z"/>
		</g>
		<g>
			<path class="st8" d="M98.81,102.54c-11.71,17.07-17.67,63.92,0,63.52C116.48,165.67,110.33,118.62,98.81,102.54z"/>
			<path class="st9" d="M98.8,100.85l0.81,1.13c4.43,6.18,8.32,17.32,10.15,29.06c1.96,12.55,1.28,23.35-1.85,29.62
				c-2.04,4.09-5.18,6.29-9.07,6.38c-3.82,0.09-6.93-1.88-8.99-5.7c-3.26-6.02-4.02-16.75-2.08-29.43
				c1.81-11.86,5.74-23.32,10.26-29.91L98.8,100.85z M98.6,165.09c0.06,0,0.13,0,0.19,0c3.17-0.07,5.65-1.86,7.37-5.31
				c6.24-12.49,1.07-42.39-7.34-55.49c-8.56,13.8-13.74,44.18-7.28,56.12C93.23,163.52,95.6,165.09,98.6,165.09z"/>
		</g>
		<g>
			<path class="st8" d="M99.66,102.3c-1.61,20.64,16.66,64.19,31.76,55.01C146.52,148.14,117.67,110.47,99.66,102.3z"/>
			<path class="st9" d="M98.8,100.85l1.26,0.57c6.93,3.14,15.86,10.84,23.32,20.09c7.97,9.89,12.79,19.58,13.21,26.57
				c0.27,4.56-1.34,8.04-4.66,10.06c-3.27,1.99-6.94,1.83-10.64-0.44c-5.83-3.58-11.85-12.5-16.52-24.45
				c-4.37-11.18-6.69-23.07-6.07-31.03L98.8,100.85z M130.75,156.59c0.06-0.03,0.11-0.07,0.17-0.1c2.71-1.65,3.96-4.43,3.73-8.28
				c-0.84-13.94-20.27-37.24-34.1-44.39c-0.51,16.24,10.19,45.13,21.75,52.24C125.31,157.9,128.15,158.08,130.75,156.59z"/>
		</g>
		<g>
			<path class="st8" d="M100.27,101.68c8.93,18.68,46.52,47.26,55.01,31.76C163.77,117.94,119.95,99.75,100.27,101.68z"/>
			<path class="st9" d="M98.8,100.85l1.38-0.14c7.57-0.74,19.16,1.46,30.24,5.74c11.85,4.58,20.86,10.56,24.73,16.41
				c2.52,3.81,2.86,7.63,0.99,11.04c-1.83,3.35-5.1,5.06-9.43,4.94c-6.84-0.19-16.51-4.9-26.53-12.91
				c-9.37-7.49-17.33-16.63-20.78-23.84L98.8,100.85z M154.34,133.14c0.03-0.06,0.06-0.11,0.1-0.17c1.52-2.78,1.22-5.82-0.91-9.04
				c-7.7-11.65-36.17-22.12-51.72-21.39c7.67,14.32,31.39,33.99,44.96,34.36C150.29,137,152.84,135.74,154.34,133.14z"/>
		</g>
		<g>
			<path class="st8" d="M100.49,100.83c17.07,11.71,63.92,17.67,63.52,0C163.62,83.16,116.57,89.31,100.49,100.83z"/>
			<path class="st9" d="M98.8,100.85l1.13-0.81c6.18-4.43,17.32-8.32,29.06-10.15c12.55-1.96,23.35-1.28,29.62,1.85
				c4.09,2.04,6.29,5.18,6.38,9.07c0.09,3.82-1.88,6.93-5.7,8.99c-6.02,3.26-16.75,4.02-29.43,2.08
				c-11.86-1.81-23.32-5.74-29.91-10.26L98.8,100.85z M163.04,101.04c0-0.06,0-0.13,0-0.19c-0.07-3.17-1.86-5.65-5.31-7.37
				c-12.49-6.24-42.39-1.07-55.49,7.34c13.8,8.56,44.18,13.74,56.12,7.28C161.47,106.41,163.04,104.04,163.04,101.04z"/>
		</g>
		<g>
			<path class="st8" d="M100.25,99.98c20.64,1.61,64.19-16.66,55.01-31.76S108.42,81.97,100.25,99.98z"/>
			<path class="st9" d="M98.8,100.85l0.57-1.26c3.14-6.93,10.84-15.86,20.09-23.32c9.89-7.97,19.58-12.79,26.57-13.21
				c4.56-0.27,8.04,1.34,10.06,4.66c1.99,3.27,1.83,6.94-0.44,10.64c-3.58,5.83-12.49,11.85-24.45,16.52
				c-11.18,4.37-23.07,6.69-31.03,6.07L98.8,100.85z M154.54,68.89c-0.03-0.06-0.07-0.11-0.1-0.17c-1.65-2.71-4.43-3.96-8.28-3.73
				c-13.94,0.84-37.24,20.27-44.39,34.1C118,99.61,146.9,88.9,154.01,77.34C155.86,74.33,156.03,71.49,154.54,68.89z"/>
		</g>
		<g>
			<path class="st8" d="M99.63,99.37c18.68-8.93,47.26-46.52,31.76-55.01S97.7,79.69,99.63,99.37z"/>
			<path class="st9" d="M98.8,100.85l-0.14-1.38c-0.74-7.57,1.46-19.16,5.74-30.24c4.58-11.85,10.56-20.86,16.41-24.73
				c3.81-2.52,7.63-2.86,11.04-0.99c3.35,1.83,5.06,5.1,4.94,9.43c-0.19,6.84-4.9,16.51-12.91,26.53
				c-7.49,9.37-16.63,17.33-23.84,20.78L98.8,100.85z M131.09,45.3c-0.06-0.03-0.11-0.06-0.17-0.1c-2.78-1.52-5.82-1.22-9.04,0.91
				c-11.65,7.7-22.12,36.17-21.39,51.72c14.32-7.67,33.99-31.39,34.36-44.96C134.95,49.35,133.69,46.8,131.09,45.3z"/>
		</g>
		<circle class="st3" cx="99.05" cy="100.89" r="36.81"/>
		<ellipse cx="91.68" cy="91.72" rx="1.78" ry="3.72"/>
		<ellipse cx="106.44" cy="91.93" rx="1.78" ry="3.72"/>
		<g>
			<path d="M99.49,110.88c-3.45,0-6.26-2.81-6.26-6.26c0-0.41,0.33-0.74,0.74-0.74c0.41,0,0.74,0.33,0.74,0.74
				c0,2.63,2.14,4.77,4.77,4.77c2.63,0,4.77-2.14,4.77-4.77c0-0.41,0.33-0.74,0.74-0.74s0.75,0.33,0.75,0.74
				C105.75,108.07,102.94,110.88,99.49,110.88z"/>
		</g>
		<ellipse class="st10" cx="106.61" cy="99.64" rx="3.72" ry="1.78"/>
		<ellipse class="st10" cx="92.12" cy="99.64" rx="3.72" ry="1.78"/>
	</g>
	<path class="st7" d="M173,163.1c-17.46,21.19-43.9,34.7-73.5,34.7c-30.96,0-58.47-14.78-75.85-37.67
		C49.98,184.48,136.42,190.02,173,163.1z"/>
	<ellipse class="st8" cx="161.91" cy="18.34" rx="25.79" ry="16.93"/>
	<path class="st8" d="M144.64,25.55c1.42,6.63,0,14.2-3.31,15.62c13.72-3.31,10.41-10.88,9.46-13.72
		C149.84,24.6,144.64,25.55,144.64,25.55z"/>
	<path class="st11" d="M163.1,20.47c-0.94-1.92-1.84-3.78-2.76-5.63c-0.43-0.87-0.88-1.74-1.34-2.59c-0.17-0.32-0.18-0.51,0.2-0.66
		c0.55-0.22,1.08-0.49,1.63-0.72c1.22-0.5,2.55-0.24,3.4,0.77c0.51,0.61,0.9,1.34,1.31,2.03c0.24,0.42-0.13,0.57-0.41,0.72
		c-0.29,0.15-0.48,0.08-0.64-0.24c-0.63-1.27-2.19-1.65-3.35-0.82c-0.09,0.07-0.14,0.33-0.09,0.45c1.18,2.41,2.34,4.83,3.57,7.22
		c1.32,2.54,0.07,4.34-2.26,4.84c-1.52,0.33-2.88-1.26-2.56-2.79c0.22-1.03,0.81-1.69,1.79-2.03
		C162.07,20.84,162.54,20.67,163.1,20.47z"/>
	<path class="st11" d="M178.4,20.44c0.32-1.67,0.64-3.37,0.98-5.16c-1.15,0.13-2.24,0.23-3.33,0.39c-1.6,0.23-1.25-0.16-1.58,1.48
		c-0.36,1.81-0.7,3.62-1.04,5.43c-0.34,1.78-2.33,2.05-3.4,1.52c-0.87-0.43-1.19-1.46-0.81-2.32c0.4-0.91,1.55-1.42,2.54-1.1
		c0.35,0.11,0.69,0.29,1.09,0.46c0.06-0.22,0.13-0.42,0.17-0.63c0.39-2.01,0.78-4.02,1.14-6.03c0.09-0.48,0.29-0.69,0.79-0.74
		c1.78-0.17,3.56-0.39,5.33-0.6c0.4-0.05,0.49,0.1,0.42,0.46c-0.55,2.83-1.09,5.66-1.65,8.49c-0.18,0.92-0.79,1.45-1.7,1.63
		c-0.94,0.19-1.78-0.03-2.41-0.77c-0.44-0.52-0.38-1.15-0.11-1.74c0.3-0.67,0.82-1.14,1.58-1.11
		C177.05,20.1,177.69,20.3,178.4,20.44z"/>
	<path class="st11" d="M153.58,18.8c-0.52-1.79-1.05-3.61-1.61-5.53c-1.05,0.7-2.07,1.34-3.06,2.04c-1.45,1.02-1.3,0.47-0.81,2.23
		c0.54,1.94,1.12,3.88,1.68,5.82c0.55,1.9-1.26,3.16-2.57,3.18c-1.06,0.02-1.89-0.83-1.95-1.86c-0.06-1.09,0.81-2.16,1.93-2.34
		c0.4-0.06,0.81-0.06,1.29-0.1c-0.05-0.25-0.08-0.48-0.15-0.7c-0.62-2.16-1.24-4.31-1.89-6.46c-0.15-0.51-0.07-0.82,0.4-1.11
		c1.65-1.06,3.28-2.15,4.91-3.24c0.36-0.24,0.53-0.15,0.64,0.24c0.87,3.04,1.76,6.07,2.62,9.11c0.28,0.99-0.05,1.81-0.85,2.44
		c-0.83,0.66-1.75,0.86-2.73,0.44c-0.69-0.29-0.95-0.93-0.98-1.64c-0.03-0.8,0.24-1.52,0.99-1.87
		C152.09,19.15,152.82,19.02,153.58,18.8z"/>
</g>
</svg>
