<?xml version="1.0" encoding="utf-8"?>
<!-- Generator: Adobe Illustrator 23.0.1, SVG Export Plug-In . SVG Version: 6.00 Build 0)  -->
<svg version="1.1" xmlns="http://www.w3.org/2000/svg" xmlns:xlink="http://www.w3.org/1999/xlink" x="0px" y="0px"
	 viewBox="0 0 200 200" style="enable-background:new 0 0 200 200;" xml:space="preserve">
<style type="text/css">
	.st0{display:none;}
	.st1{display:inline;fill:#E52929;}
	.st2{display:inline;}
	.st3{fill:#FFCD32;}
	.st4{fill:#FFFFFF;stroke:#FFFFFF;stroke-miterlimit:10;}
	.st5{display:inline;opacity:0.7;fill:#FFCD32;}
	.st6{fill:#41BDE4;}
	.st7{fill:#E52929;}
	.st8{opacity:0.7;fill:#FFCD32;}
</style>
<g id="Calque_1" class="st0">
	<path class="st1" d="M112.25,80.15c0,0,67.02-45.67,75.19-19.67S112.25,80.15,112.25,80.15z"/>
	<path class="st1" d="M89.21,79.99c0,0-67.02-45.67-75.19-19.67S89.21,79.99,89.21,79.99z"/>
	<path class="st1" d="M113.03,80.81c0,0,39.61-70.77,58.52-51.14S113.03,80.81,113.03,80.81z"/>
	<path class="st1" d="M88.35,79.89c0,0-39.61-70.77-58.52-51.14S88.35,79.89,88.35,79.89z"/>
	<path class="st1" d="M101.06,177.86c0,0-51.14-2.16-75.27-13.68c11.34-6.3,19.27-80.85,21.79-88.05l107.09,0.07
		c2.52,7.2,10.44,81.75,21.79,88.05C161.02,173.36,117.44,177.86,101.06,177.86z"/>
	<g class="st2">
		<path class="st3" d="M154.06,128.35c2.85-7.15,4.66-14.97,5.18-23.21c-13.24,6.95-34.34,11.44-58.12,11.44
			c-23.52,0-44.43-4.4-57.69-11.22c0.54,8.2,2.36,15.99,5.21,23.11c13.22,3.89,31.86,6.31,52.51,6.31
			C122.02,134.78,140.83,132.31,154.06,128.35z"/>
		<path class="st3" d="M58.02,144.97c10.63,13.78,26.09,22.45,43.31,22.45c17.25,0,32.73-8.71,43.37-22.53
			c-12.14,4.53-27.24,7.71-43.61,7.71C84.96,152.59,70.07,149.45,58.02,144.97z"/>
		<path class="st3" d="M157.08,81.29c-7.04-27.95-29.34-48.38-55.75-48.38c-26.45,0-48.77,20.48-55.78,48.5
			c13.31,6.24,33.29,10.21,55.64,10.21C123.67,91.62,143.76,87.6,157.08,81.29z"/>
		<path d="M43.43,105.36c-0.11-1.71-0.17-3.45-0.17-5.2c0-6.51,0.8-12.8,2.29-18.75"/>
		<path d="M157.08,81.29c1.51,5.99,2.32,12.32,2.32,18.88c0,1.67-0.05,3.33-0.16,4.97"/>
		<path d="M159.24,105.14c0.1-1.64,0.16-3.3,0.16-4.97c0-6.55-0.81-12.89-2.32-18.88c-13.31,6.31-33.41,10.33-55.89,10.33
			c-22.34,0-42.32-3.97-55.64-10.21c-1.49,5.95-2.29,12.25-2.29,18.75c0,1.75,0.06,3.48,0.17,5.2
			c13.26,6.82,34.17,11.22,57.69,11.22C124.9,116.58,146,112.09,159.24,105.14z"/>
		<path d="M154.06,128.35c-2.42,6.05-5.58,11.62-9.37,16.54"/>
		<path d="M58.02,144.97c-3.79-4.91-6.96-10.46-9.38-16.5"/>
		<path d="M101.15,134.78c-20.66,0-39.3-2.42-52.51-6.31c2.42,6.04,5.6,11.59,9.38,16.5c12.05,4.49,26.94,7.63,43.07,7.63
			c16.37,0,31.47-3.18,43.61-7.71c3.78-4.92,6.95-10.48,9.37-16.54C140.83,132.31,122.02,134.78,101.15,134.78z"/>
	</g>
	<ellipse class="st2" cx="90.07" cy="59.44" rx="2.52" ry="5.28"/>
	<ellipse class="st2" cx="111.03" cy="59.74" rx="2.52" ry="5.28"/>
	<g class="st2">
		<path d="M100.61,80.25c-4.9,0-8.89-3.99-8.89-8.89c0-0.58,0.47-1.06,1.06-1.06c0.58,0,1.06,0.47,1.06,1.06
			c0,3.74,3.04,6.77,6.78,6.77c3.74,0,6.78-3.04,6.78-6.77c0-0.58,0.47-1.06,1.06-1.06c0.58,0,1.06,0.47,1.06,1.06
			C109.5,76.26,105.51,80.25,100.61,80.25z"/>
	</g>
	<g class="st2">
		<path d="M110.42,41.42c-0.06,0-0.12-0.01-0.19-0.02c-0.58-0.1-0.96-0.65-0.86-1.23c1.56-8.75,6.45-18.51,15.49-19.66
			c0.57-0.07,1.11,0.34,1.18,0.92c0.07,0.58-0.34,1.11-0.92,1.18c-7.9,1-12.25,9.92-13.68,17.93
			C111.37,41.06,110.92,41.42,110.42,41.42z"/>
	</g>
	<g class="st2">
		<path d="M91.63,41.49c-0.5,0-0.95-0.36-1.04-0.87c-1.43-8.01-5.77-16.93-13.68-17.93c-0.58-0.07-0.99-0.6-0.92-1.18
			c0.07-0.58,0.61-0.98,1.18-0.92c9.04,1.15,13.93,10.91,15.49,19.66c0.1,0.58-0.28,1.12-0.86,1.23
			C91.76,41.48,91.7,41.49,91.63,41.49z"/>
	</g>
	<g class="st2">
		<path class="st4" d="M94.78,97.22c0.19-0.97,0.54-1.74,1.05-2.31c0.51-0.57,1.1-0.95,1.76-1.16c0.66-0.21,1.37-0.26,2.13-0.16
			c0.76,0.1,1.47,0.34,2.15,0.71c0.68,0.37,1.27,0.84,1.78,1.42c0.51,0.58,0.87,1.24,1.08,1.98c0.21,0.74,0.21,1.54,0,2.4
			c-0.21,0.86-0.68,1.75-1.41,2.65c0.57,0.21,1.11,0.41,1.6,0.62c0.49,0.21,0.91,0.46,1.26,0.77c0.34,0.3,0.61,0.67,0.8,1.1
			c0.19,0.43,0.29,0.96,0.29,1.6c0,0.53-0.1,1.08-0.29,1.67c-0.19,0.59-0.46,1.17-0.8,1.75c-0.34,0.57-0.74,1.12-1.2,1.64
			c-0.45,0.52-0.94,0.98-1.47,1.37c-0.53,0.4-1.06,0.71-1.61,0.94c-0.55,0.23-1.09,0.35-1.61,0.35c-0.35,0-0.69-0.22-1.03-0.67
			c-0.33-0.45-0.66-1.04-0.98-1.77c-0.32-0.73-0.63-1.58-0.93-2.53c-0.3-0.96-0.58-1.95-0.84-2.98c-0.26-1.03-0.49-2.05-0.69-3.06
			c-0.21-1.01-0.39-1.95-0.54-2.81c-0.15-0.86-0.27-1.61-0.36-2.24C94.82,97.89,94.78,97.46,94.78,97.22z M97.5,99.44
			c0,0.29-0.01,0.64-0.02,1.06c-0.02,0.42-0.02,0.86,0,1.3c0.02,0.45,0.06,0.89,0.14,1.34c0.08,0.45,0.22,0.83,0.43,1.15
			c0.78-0.14,1.46-0.41,2.04-0.81c0.58-0.4,1.05-0.86,1.41-1.4c0.36-0.53,0.62-1.1,0.78-1.71c0.16-0.61,0.22-1.2,0.18-1.77
			c-0.04-0.57-0.18-1.1-0.41-1.58c-0.23-0.48-0.55-0.85-0.97-1.11c-0.41-0.26-0.92-0.39-1.51-0.39c-0.59,0-1.27,0.19-2.03,0.57
			c0,0.13,0,0.35-0.01,0.67c-0.01,0.32-0.02,0.65-0.02,1c-0.01,0.35-0.01,0.69-0.01,1C97.5,99.09,97.5,99.31,97.5,99.44z
			 M99.03,107.57c0,0.27,0.06,0.63,0.19,1.08c0.13,0.45,0.29,0.89,0.49,1.34c0.2,0.45,0.42,0.86,0.66,1.23
			c0.24,0.37,0.49,0.63,0.77,0.75c0.22,0.13,0.49,0.12,0.79-0.04c0.3-0.15,0.61-0.39,0.92-0.72c0.31-0.33,0.61-0.7,0.9-1.12
			c0.29-0.42,0.55-0.84,0.78-1.26c0.23-0.41,0.41-0.8,0.55-1.16c0.14-0.36,0.2-0.63,0.2-0.82c0-0.41-0.06-0.75-0.17-1.02
			c-0.11-0.26-0.27-0.47-0.49-0.63c-0.22-0.16-0.47-0.27-0.77-0.33c-0.3-0.06-0.62-0.1-0.97-0.1c-0.4,0-0.82,0.06-1.27,0.19
			c-0.45,0.13-0.86,0.31-1.23,0.55c-0.37,0.24-0.69,0.53-0.96,0.88C99.16,106.75,99.03,107.14,99.03,107.57z"/>
	</g>
	<circle class="st5" cx="38.12" cy="104.31" r="22.96"/>
	<circle class="st5" cx="148.41" cy="128.53" r="18.91"/>
	<circle class="st5" cx="61.98" cy="158.78" r="18.91"/>
</g>
<g id="Calque_2">
	<circle class="st6" cx="100" cy="100.3" r="97.7"/>
	<g>
		<path class="st7" d="M107.8,88.59c0,0,46.17-31.46,51.79-13.55C165.22,92.95,107.8,88.59,107.8,88.59z"/>
		<path class="st7" d="M91.94,88.48c0,0-46.17-31.46-51.79-13.55S91.94,88.48,91.94,88.48z"/>
		<path class="st7" d="M108.34,89.04c0,0,27.29-48.75,40.31-35.23S108.34,89.04,108.34,89.04z"/>
		<path class="st7" d="M91.34,88.41c0,0-27.29-48.75-40.31-35.23S91.34,88.41,91.34,88.41z"/>
		<path class="st7" d="M100.09,155.9c0,0-35.23-1.49-51.85-9.43c7.81-4.34,13.27-55.69,15.01-60.65l73.77,0.05
			c1.74,4.96,7.19,56.31,15.01,60.65C141.4,152.8,111.38,155.9,100.09,155.9z"/>
		<g>
			<path class="st3" d="M136.61,121.79c1.97-4.92,3.21-10.31,3.57-15.99c-9.12,4.78-23.66,7.88-40.04,7.88
				c-16.2,0-30.61-3.03-39.74-7.73c0.37,5.65,1.62,11.02,3.59,15.92c9.1,2.68,21.94,4.34,36.17,4.34
				C114.53,126.22,127.49,124.51,136.61,121.79z"/>
			<path class="st3" d="M70.45,133.23c7.33,9.49,17.97,15.47,29.83,15.47c11.88,0,22.55-6,29.87-15.52
				c-8.36,3.12-18.76,5.31-30.04,5.31C89.01,138.49,78.75,136.33,70.45,133.23z"/>
			<path class="st3" d="M138.68,89.37c-4.85-19.26-20.21-33.33-38.4-33.33c-18.22,0-33.59,14.11-38.42,33.41
				c9.17,4.3,22.93,7.03,38.32,7.03C115.67,96.49,129.51,93.72,138.68,89.37z"/>
			<path d="M60.4,105.95c-0.08-1.18-0.12-2.37-0.12-3.58c0-4.48,0.55-8.82,1.58-12.92"/>
			<path d="M138.68,89.37c1.04,4.13,1.6,8.49,1.6,13c0,1.15-0.04,2.29-0.11,3.43"/>
			<path d="M140.17,105.8c0.07-1.13,0.11-2.27,0.11-3.43c0-4.51-0.56-8.88-1.6-13c-9.17,4.35-23.01,7.12-38.5,7.12
				c-15.39,0-29.15-2.73-38.32-7.03c-1.03,4.1-1.58,8.43-1.58,12.92c0,1.2,0.04,2.4,0.12,3.58c9.13,4.7,23.53,7.73,39.74,7.73
				C116.52,113.68,131.06,110.59,140.17,105.8z"/>
			<path d="M136.61,121.79c-1.66,4.17-3.85,8-6.45,11.39"/>
			<path d="M70.45,133.23c-2.61-3.38-4.79-7.2-6.46-11.36"/>
			<path d="M100.16,126.22c-14.23,0-27.07-1.67-36.17-4.34c1.67,4.16,3.85,7.98,6.46,11.36c8.3,3.09,18.56,5.25,29.67,5.25
				c11.27,0,21.68-2.19,30.04-5.31c2.61-3.39,4.79-7.22,6.45-11.39C127.49,124.51,114.53,126.22,100.16,126.22z"/>
		</g>
		<ellipse cx="92.53" cy="74.32" rx="1.74" ry="3.64"/>
		<ellipse cx="106.96" cy="74.53" rx="1.74" ry="3.64"/>
		<g>
			<path d="M99.78,88.65c-3.38,0-6.12-2.75-6.12-6.12c0-0.4,0.33-0.73,0.73-0.73c0.4,0,0.73,0.33,0.73,0.73
				c0,2.57,2.09,4.67,4.67,4.67s4.67-2.09,4.67-4.67c0-0.4,0.33-0.73,0.73-0.73s0.73,0.33,0.73,0.73
				C105.91,85.91,103.16,88.65,99.78,88.65z"/>
		</g>
		<g>
			<path d="M106.54,61.91c-0.04,0-0.09,0-0.13-0.01c-0.4-0.07-0.66-0.45-0.59-0.85c1.08-6.03,4.45-12.75,10.67-13.54
				c0.39-0.05,0.76,0.23,0.81,0.63c0.05,0.4-0.23,0.76-0.63,0.81c-5.44,0.69-8.44,6.83-9.42,12.35
				C107.2,61.66,106.89,61.91,106.54,61.91z"/>
		</g>
		<g>
			<path d="M93.6,61.96c-0.35,0-0.65-0.25-0.72-0.6C91.9,55.84,88.91,49.7,83.47,49c-0.4-0.05-0.68-0.42-0.63-0.81
				c0.05-0.4,0.42-0.68,0.81-0.63c6.23,0.79,9.6,7.51,10.67,13.54c0.07,0.4-0.19,0.77-0.59,0.85C93.69,61.95,93.65,61.96,93.6,61.96
				z"/>
		</g>
		<g>
			<path class="st4" d="M95.77,100.34c0.13-0.67,0.37-1.2,0.72-1.59c0.35-0.39,0.75-0.66,1.21-0.8c0.46-0.14,0.94-0.18,1.47-0.11
				c0.52,0.07,1.02,0.23,1.48,0.49c0.47,0.25,0.88,0.58,1.23,0.98c0.35,0.4,0.6,0.86,0.74,1.37c0.14,0.51,0.14,1.06,0,1.65
				c-0.14,0.59-0.47,1.2-0.97,1.83c0.4,0.14,0.76,0.29,1.1,0.43c0.34,0.14,0.63,0.32,0.86,0.53c0.24,0.21,0.42,0.46,0.55,0.76
				c0.13,0.3,0.2,0.66,0.2,1.1c0,0.36-0.07,0.75-0.2,1.15c-0.13,0.41-0.32,0.81-0.55,1.2c-0.24,0.4-0.51,0.77-0.82,1.13
				c-0.31,0.36-0.65,0.67-1.01,0.95c-0.36,0.27-0.73,0.49-1.11,0.65c-0.38,0.16-0.75,0.24-1.11,0.24c-0.24,0-0.48-0.15-0.71-0.46
				c-0.23-0.31-0.46-0.71-0.68-1.22c-0.22-0.5-0.43-1.09-0.64-1.75c-0.21-0.66-0.4-1.34-0.58-2.05c-0.18-0.71-0.33-1.41-0.48-2.11
				c-0.14-0.7-0.27-1.34-0.37-1.93c-0.1-0.59-0.19-1.11-0.25-1.54C95.8,100.81,95.77,100.51,95.77,100.34z M97.65,101.87
				c0,0.2-0.01,0.44-0.02,0.73c-0.01,0.29-0.01,0.59,0,0.9c0.01,0.31,0.04,0.61,0.1,0.92c0.05,0.31,0.15,0.57,0.3,0.79
				c0.54-0.1,1.01-0.29,1.41-0.56c0.4-0.27,0.72-0.6,0.97-0.96c0.25-0.37,0.43-0.76,0.54-1.18c0.11-0.42,0.15-0.82,0.12-1.22
				c-0.03-0.4-0.12-0.76-0.28-1.09c-0.16-0.33-0.38-0.58-0.67-0.77c-0.29-0.18-0.63-0.27-1.04-0.27c-0.41,0-0.87,0.13-1.4,0.4
				c0,0.09,0,0.24-0.01,0.46c-0.01,0.22-0.01,0.45-0.02,0.69c-0.01,0.24-0.01,0.47-0.01,0.69
				C97.65,101.63,97.65,101.79,97.65,101.87z M98.7,107.47c0,0.19,0.04,0.43,0.13,0.74c0.09,0.31,0.2,0.61,0.34,0.92
				c0.14,0.31,0.29,0.59,0.45,0.85c0.16,0.26,0.34,0.43,0.53,0.52c0.15,0.09,0.33,0.08,0.54-0.02c0.21-0.1,0.42-0.27,0.63-0.49
				c0.21-0.22,0.42-0.48,0.62-0.77c0.2-0.29,0.38-0.58,0.54-0.86c0.16-0.29,0.29-0.55,0.38-0.8c0.09-0.25,0.14-0.44,0.14-0.57
				c0-0.29-0.04-0.52-0.12-0.7c-0.08-0.18-0.19-0.33-0.34-0.44c-0.15-0.11-0.32-0.19-0.53-0.23c-0.2-0.04-0.43-0.07-0.67-0.07
				c-0.27,0-0.57,0.04-0.87,0.13c-0.31,0.09-0.59,0.21-0.85,0.38c-0.26,0.16-0.48,0.37-0.66,0.61
				C98.79,106.91,98.7,107.18,98.7,107.47z"/>
		</g>
		<circle class="st8" cx="56.74" cy="105.23" r="15.81"/>
		<circle class="st8" cx="132.71" cy="121.91" r="13.02"/>
		<circle class="st8" cx="73.18" cy="142.75" r="13.02"/>
	</g>
</g>
</svg>
