<?xml version="1.0" encoding="utf-8"?>
<!-- Generator: Adobe Illustrator 23.0.1, SVG Export Plug-In . SVG Version: 6.00 Build 0)  -->
<svg version="1.1" id="Calque_1" xmlns="http://www.w3.org/2000/svg" xmlns:xlink="http://www.w3.org/1999/xlink" x="0px" y="0px"
	 viewBox="0 0 200 200" style="enable-background:new 0 0 200 200;" xml:space="preserve">
<style type="text/css">
	.st0{fill:#E52929;}
	.st1{fill:#FFCD32;}
	.st2{fill:#FFFFFF;stroke:#FFFFFF;stroke-miterlimit:10;}
	.st3{opacity:0.7;fill:#FFCD32;}
</style>
<path class="st0" d="M112.25,80.15c0,0,67.02-45.67,75.19-19.67S112.25,80.15,112.25,80.15z"/>
<path class="st0" d="M89.21,79.99c0,0-67.02-45.67-75.19-19.67S89.21,79.99,89.21,79.99z"/>
<path class="st0" d="M113.03,80.81c0,0,39.61-70.77,58.52-51.14S113.03,80.81,113.03,80.81z"/>
<path class="st0" d="M88.35,79.89c0,0-39.61-70.77-58.52-51.14S88.35,79.89,88.35,79.89z"/>
<path class="st0" d="M101.06,177.86c0,0-51.14-2.16-75.27-13.68c11.34-6.3,19.27-80.85,21.79-88.05l107.09,0.07
	c2.52,7.2,10.44,81.75,21.79,88.05C161.02,173.36,117.44,177.86,101.06,177.86z"/>
<g>
	<path class="st1" d="M154.06,128.35c2.85-7.15,4.66-14.97,5.18-23.21c-13.24,6.95-34.34,11.44-58.12,11.44
		c-23.52,0-44.43-4.4-57.69-11.22c0.54,8.2,2.36,15.99,5.21,23.11c13.22,3.89,31.86,6.31,52.51,6.31
		C122.02,134.78,140.83,132.31,154.06,128.35z"/>
	<path class="st1" d="M58.02,144.97c10.63,13.78,26.09,22.45,43.31,22.45c17.25,0,32.73-8.71,43.37-22.53
		c-12.14,4.53-27.24,7.71-43.61,7.71C84.96,152.59,70.07,149.45,58.02,144.97z"/>
	<path class="st1" d="M157.08,81.29c-7.04-27.95-29.34-48.38-55.75-48.38c-26.45,0-48.77,20.48-55.78,48.5
		c13.31,6.24,33.29,10.21,55.64,10.21C123.67,91.62,143.76,87.6,157.08,81.29z"/>
	<path d="M43.43,105.36c-0.11-1.71-0.17-3.45-0.17-5.2c0-6.51,0.8-12.8,2.29-18.75"/>
	<path d="M157.08,81.29c1.51,5.99,2.32,12.32,2.32,18.88c0,1.67-0.05,3.33-0.16,4.97"/>
	<path d="M159.24,105.14c0.1-1.64,0.16-3.3,0.16-4.97c0-6.55-0.81-12.89-2.32-18.88c-13.31,6.31-33.41,10.33-55.89,10.33
		c-22.34,0-42.32-3.97-55.64-10.21c-1.49,5.95-2.29,12.25-2.29,18.75c0,1.75,0.06,3.48,0.17,5.2c13.26,6.82,34.17,11.22,57.69,11.22
		C124.9,116.58,146,112.09,159.24,105.14z"/>
	<path d="M154.06,128.35c-2.42,6.05-5.58,11.62-9.37,16.54"/>
	<path d="M58.02,144.97c-3.79-4.91-6.96-10.46-9.38-16.5"/>
	<path d="M101.15,134.78c-20.66,0-39.3-2.42-52.51-6.31c2.42,6.04,5.6,11.59,9.38,16.5c12.05,4.49,26.94,7.63,43.07,7.63
		c16.37,0,31.47-3.18,43.61-7.71c3.78-4.92,6.95-10.48,9.37-16.54C140.83,132.31,122.02,134.78,101.15,134.78z"/>
</g>
<ellipse cx="90.07" cy="59.44" rx="2.52" ry="5.28"/>
<ellipse cx="111.03" cy="59.74" rx="2.52" ry="5.28"/>
<g>
	<path d="M100.61,80.25c-4.9,0-8.89-3.99-8.89-8.89c0-0.58,0.47-1.06,1.06-1.06c0.58,0,1.06,0.47,1.06,1.06
		c0,3.74,3.04,6.77,6.78,6.77c3.74,0,6.78-3.04,6.78-6.77c0-0.58,0.47-1.06,1.06-1.06c0.58,0,1.06,0.47,1.06,1.06
		C109.5,76.26,105.51,80.25,100.61,80.25z"/>
</g>
<g>
	<path d="M110.42,41.42c-0.06,0-0.12-0.01-0.19-0.02c-0.58-0.1-0.96-0.65-0.86-1.23c1.56-8.75,6.45-18.51,15.49-19.66
		c0.57-0.07,1.11,0.34,1.18,0.92c0.07,0.58-0.34,1.11-0.92,1.18c-7.9,1-12.25,9.92-13.68,17.93
		C111.37,41.06,110.92,41.42,110.42,41.42z"/>
</g>
<g>
	<path d="M91.63,41.49c-0.5,0-0.95-0.36-1.04-0.87c-1.43-8.01-5.77-16.93-13.68-17.93c-0.58-0.07-0.99-0.6-0.92-1.18
		c0.07-0.58,0.61-0.98,1.18-0.92c9.04,1.15,13.93,10.91,15.49,19.66c0.1,0.58-0.28,1.12-0.86,1.23
		C91.76,41.48,91.7,41.49,91.63,41.49z"/>
</g>
<g>
	<path class="st2" d="M94.78,97.22c0.19-0.97,0.54-1.74,1.05-2.31c0.51-0.57,1.1-0.95,1.76-1.16c0.66-0.21,1.37-0.26,2.13-0.16
		c0.76,0.1,1.47,0.34,2.15,0.71c0.68,0.37,1.27,0.84,1.78,1.42c0.51,0.58,0.87,1.24,1.08,1.98c0.21,0.74,0.21,1.54,0,2.4
		c-0.21,0.86-0.68,1.75-1.41,2.65c0.57,0.21,1.11,0.41,1.6,0.62c0.49,0.21,0.91,0.46,1.26,0.77c0.34,0.3,0.61,0.67,0.8,1.1
		c0.19,0.43,0.29,0.96,0.29,1.6c0,0.53-0.1,1.08-0.29,1.67c-0.19,0.59-0.46,1.17-0.8,1.75c-0.34,0.57-0.74,1.12-1.2,1.64
		c-0.45,0.52-0.94,0.98-1.47,1.37c-0.53,0.4-1.06,0.71-1.61,0.94c-0.55,0.23-1.09,0.35-1.61,0.35c-0.35,0-0.69-0.22-1.03-0.67
		c-0.33-0.45-0.66-1.04-0.98-1.77c-0.32-0.73-0.63-1.58-0.93-2.53c-0.3-0.96-0.58-1.95-0.84-2.98c-0.26-1.03-0.49-2.05-0.69-3.06
		c-0.21-1.01-0.39-1.95-0.54-2.81c-0.15-0.86-0.27-1.61-0.36-2.24C94.82,97.89,94.78,97.46,94.78,97.22z M97.5,99.44
		c0,0.29-0.01,0.64-0.02,1.06c-0.02,0.42-0.02,0.86,0,1.3c0.02,0.45,0.06,0.89,0.14,1.34c0.08,0.45,0.22,0.83,0.43,1.15
		c0.78-0.14,1.46-0.41,2.04-0.81c0.58-0.4,1.05-0.86,1.41-1.4c0.36-0.53,0.62-1.1,0.78-1.71c0.16-0.61,0.22-1.2,0.18-1.77
		c-0.04-0.57-0.18-1.1-0.41-1.58c-0.23-0.48-0.55-0.85-0.97-1.11c-0.41-0.26-0.92-0.39-1.51-0.39c-0.59,0-1.27,0.19-2.03,0.57
		c0,0.13,0,0.35-0.01,0.67c-0.01,0.32-0.02,0.65-0.02,1c-0.01,0.35-0.01,0.69-0.01,1C97.5,99.09,97.5,99.31,97.5,99.44z
		 M99.03,107.57c0,0.27,0.06,0.63,0.19,1.08c0.13,0.45,0.29,0.89,0.49,1.34c0.2,0.45,0.42,0.86,0.66,1.23
		c0.24,0.37,0.49,0.63,0.77,0.75c0.22,0.13,0.49,0.12,0.79-0.04c0.3-0.15,0.61-0.39,0.92-0.72c0.31-0.33,0.61-0.7,0.9-1.12
		c0.29-0.42,0.55-0.84,0.78-1.26c0.23-0.41,0.41-0.8,0.55-1.16c0.14-0.36,0.2-0.63,0.2-0.82c0-0.41-0.06-0.75-0.17-1.02
		c-0.11-0.26-0.27-0.47-0.49-0.63c-0.22-0.16-0.47-0.27-0.77-0.33c-0.3-0.06-0.62-0.1-0.97-0.1c-0.4,0-0.82,0.06-1.27,0.19
		c-0.45,0.13-0.86,0.31-1.23,0.55c-0.37,0.24-0.69,0.53-0.96,0.88C99.16,106.75,99.03,107.14,99.03,107.57z"/>
</g>
<circle class="st3" cx="38.12" cy="104.31" r="22.96"/>
<circle class="st3" cx="148.41" cy="128.53" r="18.91"/>
<circle class="st3" cx="61.98" cy="158.78" r="18.91"/>
</svg>
