<?xml version="1.0" encoding="utf-8"?>
<!-- Generator: Adobe Illustrator 23.0.1, SVG Export Plug-In . SVG Version: 6.00 Build 0)  -->
<svg version="1.1" id="Calque_1" xmlns="http://www.w3.org/2000/svg" xmlns:xlink="http://www.w3.org/1999/xlink" x="0px" y="0px"
	 viewBox="0 0 500 500" style="enable-background:new 0 0 500 500;" xml:space="preserve">
<style type="text/css">
	.st0{fill:#41BEE5;}
	.st1{fill:#FFFFFF;}
	.st2{fill:#0C9539;}
	.st3{fill:#FFFFFF;stroke:#FFE499;stroke-width:5;stroke-miterlimit:10;}
	.st4{fill:#E52929;}
	.st5{fill:#FFCD32;}
	.st6{fill:#FFFFFF;stroke:#FFFFFF;stroke-miterlimit:10;}
	.st7{opacity:0.85;fill:#E52929;}
</style>
<path class="st0" d="M189.25,141.69"/>
<g>
	<circle class="st0" cx="262.73" cy="248.66" r="218.66"/>
	<circle class="st1" cx="347" cy="87.06" r="26.5"/>
	<circle class="st1" cx="313.32" cy="74.17" r="26.5"/>
	<circle class="st1" cx="320.39" cy="105.76" r="26.5"/>
	<circle class="st1" cx="369.86" cy="123.64" r="26.5"/>
	<circle class="st1" cx="389.81" cy="86.64" r="26.5"/>
	<circle class="st1" cx="339.51" cy="114.91" r="26.5"/>
	<circle class="st1" cx="194.85" cy="60.45" r="26.5"/>
	<circle class="st1" cx="144.96" cy="61.7" r="26.5"/>
	<circle class="st1" cx="176.14" cy="95.37" r="26.5"/>
	<circle class="st1" cx="225.19" cy="94.95" r="26.5"/>
	<circle class="st1" cx="240.57" cy="73.34" r="26.5"/>
	<circle class="st1" cx="46.86" cy="174.77" r="26.5"/>
	<circle class="st1" cx="85.93" cy="155.23" r="26.5"/>
	<circle class="st1" cx="83.02" cy="197.63" r="26.5"/>
	<circle class="st1" cx="147.87" cy="333.99" r="26.5"/>
	<circle class="st1" cx="115.45" cy="316.53" r="26.5"/>
	<circle class="st1" cx="108.8" cy="358.1" r="26.5"/>
	<circle class="st1" cx="78.03" cy="331.49" r="26.5"/>
	<circle class="st1" cx="124.18" cy="176.02" r="26.5"/>
	<path class="st2" d="M358.76,285.24c-5.82,18.29-19.12,138.01-19.95,156.31c-10.39,0.83-9.56,0.42-14.55,0.42
		c5.4-13.72,25.36-125.54,17.88-135.94S358.76,285.24,358.76,285.24z"/>
	<path class="st3" d="M399.64,254.48c-5.58-0.4-15.61-13.78-15.19-17.1c0.42-3.32,23.19-40.66,37.24-28.49
		C435.73,221.07,407.98,255.07,399.64,254.48z"/>
	
		<ellipse transform="matrix(0.2137 -0.9769 0.9769 0.2137 55.176 535.1135)" class="st3" cx="360" cy="233.28" rx="23.28" ry="12.06"/>
	
		<ellipse transform="matrix(0.3486 -0.9373 0.9373 0.3486 38.0822 508.6082)" class="st3" cx="384.95" cy="226.91" rx="23.28" ry="12.06"/>
	
		<ellipse transform="matrix(0.9847 -0.1743 0.1743 0.9847 -37.1869 62.5154)" class="st3" cx="337.28" cy="242.95" rx="12.06" ry="23.28"/>
	
		<ellipse transform="matrix(0.9216 -0.3881 0.3881 0.9216 -74.669 143.5787)" class="st3" cx="318.16" cy="256.66" rx="12.06" ry="23.28"/>
	
		<ellipse transform="matrix(0.7505 -0.6608 0.6608 0.7505 -102.3942 265.3754)" class="st3" cx="300.28" cy="268.3" rx="12.06" ry="23.28"/>
	<ellipse transform="matrix(0.5 -0.866 0.866 0.5 -108.0057 392.771)" class="st3" cx="286.15" cy="289.92" rx="12.06" ry="23.28"/>
	<path class="st3" d="M288.09,309.36c-4.57-3.33-12.47-21.2-29.52-2.91s20.79,24.53,26.61,18.29
		C291,318.5,288.09,309.36,288.09,309.36z"/>
	<path class="st4" d="M171.48,125.29c0,0-61.95,50.84-87.79,43.35c12.8,28.3,54.72,65.27,54.72,65.27L171.48,125.29z"/>
	<g>
		<path class="st5" d="M205.03,268.71c8.44-2.78,16.7-6.99,24.37-12.64c-15.96-6.56-35.59-21.89-53.23-42.93
			c-17.45-20.81-29.06-42.56-32.86-59.35c-6.85,6.56-12.4,13.95-16.58,21.75c6.36,14.57,18.05,32.86,33.37,51.13
			C175.58,245.13,191.72,259.94,205.03,268.71z"/>
		<path class="st5" d="M119.11,196.08c-4.3,19.62-0.51,39.73,12.26,54.96c12.79,15.25,31.98,22.49,52.1,21.65
			c-13.01-7.38-27.02-18.38-39.16-32.86C132.34,225.57,124.07,210.06,119.11,196.08z"/>
		<path class="st5" d="M248.9,236.47c19.5-26.96,21.04-61.83,1.45-85.19c-19.62-23.4-54.29-27.95-84.27-13.37
			c4.35,16.4,15.66,37.02,32.23,56.78C214.98,214.59,233.44,229.38,248.9,236.47z"/>
		<path d="M143.32,153.8c1.43-1.37,2.92-2.71,4.47-4c5.76-4.83,11.92-8.79,18.29-11.88"/>
		<path d="M248.9,236.47c-4.18,5.78-9.18,11.19-14.97,16.05c-1.48,1.24-2.99,2.42-4.52,3.55"/>
		<path d="M229.4,256.08c1.53-1.13,3.04-2.31,4.52-3.55c5.8-4.86,10.8-10.28,14.97-16.05c-15.45-7.09-33.91-21.89-50.59-41.78
			c-16.57-19.76-27.88-40.38-32.23-56.78c-6.37,3.1-12.53,7.06-18.29,11.88c-1.55,1.3-3.04,2.63-4.47,4
			c3.8,16.79,15.41,38.54,32.86,59.35C193.81,234.18,213.44,249.52,229.4,256.08z"/>
		<path d="M205.03,268.71c-7.15,2.35-14.42,3.68-21.57,3.98"/>
		<path d="M119.11,196.08c1.53-6.99,4.09-13.91,7.63-20.53"/>
		<path d="M160.11,226.67c-15.32-18.27-27-36.56-33.37-51.13c-3.54,6.62-6.1,13.55-7.63,20.53c4.97,13.98,13.23,29.49,25.19,43.75
			c12.14,14.48,26.15,25.48,39.16,32.86c7.16-0.3,14.43-1.62,21.57-3.98C191.72,259.94,175.58,245.13,160.11,226.67z"/>
	</g>
	<ellipse transform="matrix(0.5879 -0.809 0.809 0.5879 -49.1084 264.7033)" cx="235.23" cy="180.55" rx="6.1" ry="2.91"/>
	<g>
		<path d="M223.87,208.26c-4.32-3.65-4.87-10.14-1.21-14.46c0.44-0.52,1.21-0.58,1.72-0.14s0.58,1.21,0.14,1.72
			c-2.78,3.29-2.37,8.24,0.93,11.02c3.29,2.78,8.24,2.37,11.02-0.93c0.44-0.52,1.21-0.58,1.72-0.14c0.52,0.44,0.58,1.21,0.14,1.72
			C234.68,211.37,228.19,211.92,223.87,208.26z"/>
	</g>
	<g>
		<path d="M256.99,174.6c-0.06-0.04-0.11-0.09-0.16-0.15c-0.45-0.51-0.4-1.28,0.11-1.72c7.7-6.78,19.13-12.08,28.12-6.62
			c0.57,0.35,0.76,1.1,0.41,1.68c-0.35,0.58-1.1,0.76-1.68,0.41c-7.86-4.77-18.19,0.16-25.24,6.36
			C258.1,174.96,257.44,174.96,256.99,174.6z"/>
	</g>
	<g>
		<path d="M248.76,168.4c-0.45-0.37-0.57-1.02-0.27-1.54c4.66-8.15,7.42-19.26,1.17-26c-0.46-0.49-0.43-1.27,0.06-1.73
			c0.49-0.46,1.27-0.42,1.73,0.06c7.15,7.71,4.26,19.97-0.84,28.88c-0.33,0.59-1.08,0.79-1.67,0.45
			C248.88,168.48,248.82,168.44,248.76,168.4z"/>
	</g>
	<ellipse transform="matrix(0.5879 -0.809 0.809 0.5879 -54.2206 279.7152)" cx="247.41" cy="193.07" rx="6.1" ry="2.91"/>
	<path class="st4" d="M193.09,144.82c0,0-77.36-52.71-86.79-22.7S193.09,144.82,193.09,144.82z"/>
	<path class="st4" d="M192.09,144.71c0,0-45.73-81.69-67.55-59.03S192.09,144.71,192.09,144.71z"/>
	<g>
		<path class="st6" d="M210.24,215.35c1.09-0.35,2.06-0.42,2.92-0.22c0.86,0.2,1.57,0.58,2.15,1.13c0.58,0.55,1.02,1.24,1.34,2.07
			c0.32,0.82,0.48,1.68,0.48,2.57c0.01,0.89-0.14,1.75-0.45,2.59c-0.31,0.84-0.78,1.57-1.41,2.19c-0.63,0.62-1.45,1.07-2.43,1.33
			c-0.99,0.27-2.14,0.28-3.47,0.05c0.11,0.7,0.2,1.35,0.26,1.97c0.06,0.61,0.04,1.18-0.08,1.69c-0.12,0.51-0.34,0.99-0.67,1.42
			c-0.33,0.43-0.82,0.83-1.46,1.18c-0.53,0.29-1.15,0.51-1.85,0.64c-0.7,0.13-1.44,0.19-2.21,0.16c-0.77-0.03-1.54-0.13-2.32-0.3
			c-0.78-0.17-1.51-0.41-2.21-0.72c-0.7-0.31-1.31-0.68-1.85-1.11c-0.54-0.43-0.96-0.91-1.25-1.44c-0.19-0.35-0.16-0.83,0.11-1.41
			c0.27-0.59,0.68-1.24,1.25-1.97c0.56-0.73,1.25-1.51,2.05-2.35c0.8-0.84,1.65-1.67,2.55-2.5c0.9-0.83,1.8-1.63,2.71-2.4
			c0.91-0.77,1.76-1.47,2.54-2.1c0.79-0.63,1.47-1.17,2.06-1.6C209.58,215.77,209.99,215.48,210.24,215.35z M209.5,219.34
			c-0.29,0.16-0.65,0.35-1.09,0.57c-0.44,0.22-0.88,0.46-1.32,0.72c-0.44,0.26-0.87,0.56-1.27,0.89c-0.41,0.33-0.71,0.69-0.92,1.07
			c0.58,0.71,1.23,1.25,1.96,1.62c0.73,0.37,1.46,0.58,2.2,0.65c0.74,0.07,1.46,0.01,2.16-0.16c0.7-0.18,1.33-0.44,1.89-0.8
			c0.56-0.36,1.02-0.79,1.37-1.29c0.36-0.5,0.55-1.03,0.59-1.6c0.04-0.57-0.11-1.15-0.44-1.74c-0.33-0.6-0.9-1.18-1.71-1.74
			c-0.13,0.07-0.36,0.19-0.68,0.36c-0.33,0.17-0.67,0.35-1.03,0.53c-0.36,0.19-0.7,0.37-1.02,0.55
			C209.85,219.15,209.63,219.27,209.5,219.34z M202.13,225.41c-0.27,0.15-0.6,0.41-0.98,0.79c-0.38,0.38-0.74,0.79-1.08,1.24
			c-0.34,0.45-0.63,0.9-0.88,1.35c-0.25,0.45-0.36,0.85-0.34,1.19c-0.01,0.3,0.15,0.56,0.47,0.78c0.32,0.22,0.73,0.4,1.24,0.53
			c0.5,0.13,1.05,0.23,1.63,0.28c0.59,0.06,1.15,0.09,1.7,0.09c0.55,0,1.04-0.03,1.48-0.09c0.44-0.06,0.75-0.15,0.95-0.25
			c0.42-0.23,0.73-0.47,0.94-0.73c0.2-0.26,0.33-0.54,0.37-0.85c0.04-0.31,0.01-0.63-0.09-0.96c-0.1-0.33-0.25-0.68-0.44-1.03
			c-0.22-0.4-0.52-0.8-0.9-1.18c-0.38-0.38-0.79-0.69-1.24-0.94c-0.45-0.25-0.93-0.4-1.43-0.48
			C203.03,225.08,202.56,225.17,202.13,225.41z"/>
	</g>
	
		<ellipse transform="matrix(0.7754 -0.6315 0.6315 0.7754 -104.3141 281.3917)" class="st5" cx="343.38" cy="287.32" rx="78.15" ry="31.18"/>
	<path class="st3" d="M407.13,265.03c-4.32-3.55-1.73-18.05,0.54-20.52c2.27-2.47,39.38-21.99,43.81-3.94
		C455.9,258.63,413.6,270.33,407.13,265.03z"/>
	<ellipse transform="matrix(0.7071 -0.7071 0.7071 0.7071 -88.5955 320.5692)" cx="342.66" cy="267.23" rx="6.1" ry="2.91"/>
	<ellipse transform="matrix(0.7071 -0.7071 0.7071 0.7071 -91.057 328.8981)" cx="351.49" cy="274.36" rx="6.1" ry="2.91"/>
	<g>
		<path d="M326.32,292.65c-3.45-2.91-3.88-8.09-0.97-11.54c0.35-0.41,0.96-0.46,1.37-0.12c0.41,0.35,0.46,0.96,0.12,1.37
			c-2.22,2.63-1.89,6.57,0.74,8.79s6.57,1.89,8.79-0.74c0.35-0.41,0.96-0.46,1.37-0.12c0.41,0.35,0.46,0.96,0.12,1.37
			C334.95,295.13,329.77,295.56,326.32,292.65z"/>
	</g>
	
		<ellipse transform="matrix(0.7071 -0.7071 0.7071 0.7071 -101.2226 327.3347)" class="st7" cx="344.52" cy="285.85" rx="2.59" ry="5.42"/>
	
		<ellipse transform="matrix(0.7071 -0.7071 0.7071 0.7071 -96.9625 314.8942)" class="st7" cx="331.63" cy="274.49" rx="2.59" ry="5.42"/>
	<path class="st3" d="M301.82,332.11c4.26-3.62,20.79-1.09,22.82,1.58c2.03,2.67,11.91,45.27-6.64,46.42
		C299.45,381.24,295.45,337.53,301.82,332.11z"/>
	<path class="st3" d="M325.16,327.15c2.1-5.18,17.92-10.6,20.96-9.17s31.52,34.61,15.6,44.22S322.02,334.91,325.16,327.15z"/>
	<path class="st3" d="M350.8,315.94c0.87-5.52,15.07-14.37,18.34-13.67s38.53,26.6,25.19,39.55
		C381,354.78,349.5,324.21,350.8,315.94z"/>
	<path class="st3" d="M371.74,301.68c0.03-5.59,12.72-16.49,16.07-16.28c3.35,0.2,42.11,20.46,30.88,35.28
		C407.46,335.5,371.7,310.05,371.74,301.68z"/>
	<path class="st3" d="M388.63,280.37c-0.98-5.51,9.54-18.51,12.86-18.92c3.33-0.41,45.11,12.53,36.74,29.13
		C429.87,307.19,390.1,288.61,388.63,280.37z"/>
	<path class="st3" d="M274.92,326.54c-11.09,1.66-23,19.4-20.79,28.82c2.22,9.42,13.58,4.43,18.57-8.31
		C277.69,334.3,287.95,329.03,274.92,326.54z"/>
	<path class="st3" d="M289.97,331.93c-14.43,5.56-25.16,33-19.36,45.03c5.81,12.02,19.61,1.9,22.51-16.75
		C296.02,341.54,308.25,331.38,289.97,331.93z"/>
	<path class="st2" d="M431.3,387.44c-40.1,48.69-100.86,79.73-168.86,79.73c-71.13,0-134.32-33.96-174.26-86.55
		C148.68,436.58,347.27,449.3,431.3,387.44z"/>
</g>
</svg>
