<?xml version="1.0" encoding="utf-8"?>
<!-- Generator: Adobe Illustrator 23.0.1, SVG Export Plug-In . SVG Version: 6.00 Build 0)  -->
<svg version="1.1" id="Calque_1" xmlns="http://www.w3.org/2000/svg" xmlns:xlink="http://www.w3.org/1999/xlink" x="0px" y="0px"
	 viewBox="0 0 100 100" style="enable-background:new 0 0 100 100;" xml:space="preserve">
<style type="text/css">
	.st0{fill:#FFFFFF;}
</style>
<g>
	<g>
		<path class="st0" d="M76.33,56.63H13.51c-3.61,0-6.54-2.93-6.54-6.54c0-3.61,2.93-6.54,6.54-6.54h62.82
			c3.61,0,6.54,2.93,6.54,6.54C82.88,53.7,79.95,56.63,76.33,56.63z"/>
	</g>
	<g>
		<path class="st0" d="M85.46,55.28c-1.67,0-3.35-0.64-4.63-1.92L61.89,34.42c-2.56-2.55-2.56-6.7,0-9.25c2.55-2.56,6.7-2.56,9.25,0
			l18.94,18.94c2.56,2.55,2.56,6.7,0,9.25C88.81,54.64,87.13,55.28,85.46,55.28z"/>
	</g>
	<g>
		<path class="st0" d="M66.52,76.22c-1.67,0-3.35-0.64-4.63-1.92c-2.56-2.55-2.56-6.7,0-9.25l18.94-18.94c2.55-2.56,6.7-2.56,9.25,0
			c2.56,2.55,2.56,6.7,0,9.25L71.14,74.3C69.87,75.58,68.19,76.22,66.52,76.22z"/>
	</g>
</g>
</svg>
